<svg xmlns="http://www.w3.org/2000/svg" xmlns:xlink="http://www.w3.org/1999/xlink" version="1.1" width="1699.9999pt" height="2200pt" viewBox="0 0 1699.9999 2200">
<defs>
<clipPath id="clip_1">
<path transform="matrix(2.7777777,0,0,-2.7777777,.0006358333,2200.0023)" d="M0 0H612V792H0Z"/>
</clipPath>
<clipPath id="clip_2">
<path transform="matrix(2.7777777,0,0,2.7777777,1861.8062,1102.0855)" d="M-558-360V-17H-108V-360H-558Z" fill-rule="evenodd"/>
</clipPath>
<clipPath id="clip_3">
<path transform="matrix(2.7879079,0,0,2.7854496,-10.195753,-1045.3519)" d="M115.5 411.941H563V754.5H115.5Z"/>
</clipPath>
<clipPath id="clip_4">
<path transform="matrix(2.7879079,0,0,2.7854496,-10.195753,-1045.3519)" d="M115.5 411.941H563V754.5H115.5Z"/>
</clipPath>
<clipPath id="clip_5">
<path transform="matrix(2.7777777,0,0,-2.7777777,.0006358333,2200.0023)" d="M0 0H612V792H0Z"/>
</clipPath>
<clipPath id="clip_6">
<path transform="matrix(2.7777777,0,0,2.7777777,1861.8062,1102.0855)" d="M-558-360V-17H-108V-360H-558Z" fill-rule="evenodd"/>
</clipPath>
<clipPath id="clip_7">
<path transform="matrix(2.7879079,0,0,2.7854496,-10.195753,-1045.3519)" d="M115.5 411.941H563V754.5H115.5Z"/>
</clipPath>
<clipPath id="clip_8">
<path transform="matrix(2.7879079,0,0,2.7854496,-10.195753,-1045.3519)" d="M115.5 411.941H563V754.5H115.5Z"/>
</clipPath>
<clipPath id="clip_9">
<path transform="matrix(2.7777777,0,0,-2.7777777,.0006358333,2200.0023)" d="M0 0H612V792H0Z"/>
</clipPath>
<clipPath id="clip_10">
<path transform="matrix(2.7777777,0,0,2.7777777,1861.8062,1102.0855)" d="M-558-360V-17H-108V-360H-558Z" fill-rule="evenodd"/>
</clipPath>
<clipPath id="clip_11">
<path transform="matrix(2.7879079,0,0,2.7854496,-10.195753,-1045.3519)" d="M115.5 411.941H563V754.5H115.5Z"/>
</clipPath>
<clipPath id="clip_12">
<path transform="matrix(2.7879079,0,0,2.7854496,-10.195753,-1045.3519)" d="M115.5 411.941H563V754.5H115.5Z"/>
</clipPath>
<clipPath id="clip_13">
<path transform="matrix(2.7777777,0,0,-2.7777777,.0006358333,2200.0023)" d="M0 0H612V792H0Z"/>
</clipPath>
<clipPath id="clip_14">
<path transform="matrix(2.7777777,0,0,2.7777777,1861.8062,1102.0855)" d="M-558-360V-17H-108V-360H-558Z" fill-rule="evenodd"/>
</clipPath>
<clipPath id="clip_15">
<path transform="matrix(2.7879079,0,0,2.7854496,-10.195753,-1045.3519)" d="M115.5 411.941H563V754.5H115.5Z"/>
</clipPath>
<clipPath id="clip_16">
<path transform="matrix(2.7879079,0,0,2.7854496,-10.195753,-1045.3519)" d="M115.5 411.941H563V754.5H115.5Z"/>
</clipPath>
<clipPath id="clip_17">
<path transform="matrix(2.7777777,0,0,-2.7777777,.0006358333,2200.0023)" d="M0 0H612V792H0Z"/>
</clipPath>
<clipPath id="clip_18">
<path transform="matrix(2.7777777,0,0,2.7777777,1861.8062,1102.0855)" d="M-558-360V-17H-108V-360H-558Z" fill-rule="evenodd"/>
</clipPath>
<clipPath id="clip_19">
<path transform="matrix(2.7879079,0,0,2.7854496,-10.195753,-1045.3519)" d="M115.5 411.941H563V754.5H115.5Z"/>
</clipPath>
<clipPath id="clip_20">
<path transform="matrix(2.7879079,0,0,2.7854496,-10.195753,-1045.3519)" d="M115.5 411.941H563V754.5H115.5Z"/>
</clipPath>
<clipPath id="clip_21">
<path transform="matrix(2.7777777,0,0,-2.7777777,.0006358333,2200.0023)" d="M0 0H612V792H0Z"/>
</clipPath>
<clipPath id="clip_22">
<path transform="matrix(2.7777777,0,0,2.7777777,1861.8062,1102.0855)" d="M-558-360V-17H-108V-360H-558Z" fill-rule="evenodd"/>
</clipPath>
<clipPath id="clip_23">
<path transform="matrix(2.7879079,0,0,2.7854496,-10.195753,-1045.3519)" d="M115.5 411.941H563V754.5H115.5Z"/>
</clipPath>
<clipPath id="clip_24">
<path transform="matrix(2.7879079,0,0,2.7854496,-10.195753,-1045.3519)" d="M115.5 411.941H563V754.5H115.5Z"/>
</clipPath>
<clipPath id="clip_25">
<path transform="matrix(2.7777777,0,0,-2.7777777,.0012716666,2200.0023)" d="M0 0H612V792H0Z"/>
</clipPath>
<clipPath id="clip_26">
<path transform="matrix(2.7777777,0,0,2.7777777,1861.8069,1102.0855)" d="M-558-360V-17H-108V-360H-558Z" fill-rule="evenodd"/>
</clipPath>
<clipPath id="clip_27">
<path transform="matrix(2.7879079,0,0,2.7854496,-10.195075,-1045.3519)" d="M115.5 411.941H563V754.5H115.5Z"/>
</clipPath>
<clipPath id="clip_28">
<path transform="matrix(2.7879079,0,0,2.7854496,-10.195075,-1045.3519)" d="M115.5 411.941H563V754.5H115.5Z"/>
</clipPath>
<clipPath id="clip_29">
<path transform="matrix(2.7777777,0,0,-2.7777777,.0012716666,2200.0023)" d="M0 0H612V792H0Z"/>
</clipPath>
<clipPath id="clip_30">
<path transform="matrix(2.7777777,0,0,2.7777777,1861.8069,1102.0855)" d="M-558-360V-17H-108V-360H-558Z" fill-rule="evenodd"/>
</clipPath>
<clipPath id="clip_31">
<path transform="matrix(2.7879079,0,0,2.7854496,-10.195075,-1045.3519)" d="M115.5 411.941H563V754.5H115.5Z"/>
</clipPath>
<clipPath id="clip_32">
<path transform="matrix(2.7879079,0,0,2.7854496,-10.195075,-1045.3519)" d="M115.5 411.941H563V754.5H115.5Z"/>
</clipPath>
<clipPath id="clip_33">
<path transform="matrix(2.7777777,0,0,-2.7777777,.0012716666,2200.0023)" d="M0 0H612V792H0Z"/>
</clipPath>
<clipPath id="clip_34">
<path transform="matrix(2.7777777,0,0,2.7777777,1861.8069,1102.0855)" d="M-558-360V-17H-108V-360H-558Z" fill-rule="evenodd"/>
</clipPath>
<clipPath id="clip_35">
<path transform="matrix(2.7879079,0,0,2.7854496,-10.195075,-1045.3519)" d="M115.5 411.941H563V754.5H115.5Z"/>
</clipPath>
<clipPath id="clip_36">
<path transform="matrix(2.7879079,0,0,2.7854496,-10.195075,-1045.3519)" d="M115.5 411.941H563V754.5H115.5Z"/>
</clipPath>
<clipPath id="clip_37">
<path transform="matrix(2.7777777,0,0,-2.7777777,.0012291666,2200.0023)" d="M0 0H612V792H0Z"/>
</clipPath>
<clipPath id="clip_38">
<path transform="matrix(2.7777777,0,0,2.7777777,1861.8067,1102.0855)" d="M-558-360V-17H-108V-360H-558Z" fill-rule="evenodd"/>
</clipPath>
<clipPath id="clip_39">
<path transform="matrix(2.7879079,0,0,2.7854496,-10.195244,-1045.3519)" d="M115.5 411.941H563V754.5H115.5Z"/>
</clipPath>
<clipPath id="clip_40">
<path transform="matrix(2.7879079,0,0,2.7854496,-10.195244,-1045.3519)" d="M115.5 411.941H563V754.5H115.5Z"/>
</clipPath>
<clipPath id="clip_41">
<path transform="matrix(2.7777777,0,0,-2.7777777,.00093249997,2200.0023)" d="M0 0H612V792H0Z"/>
</clipPath>
<clipPath id="clip_42">
<path transform="matrix(2.7777777,0,0,2.7777777,1861.8065,1102.0855)" d="M-558-360V-17H-108V-360H-558Z" fill-rule="evenodd"/>
</clipPath>
<clipPath id="clip_43">
<path transform="matrix(2.7879079,0,0,2.7854496,-10.195414,-1045.3519)" d="M115.5 411.941H563V754.5H115.5Z"/>
</clipPath>
<clipPath id="clip_44">
<path transform="matrix(2.7879079,0,0,2.7854496,-10.195414,-1045.3519)" d="M115.5 411.941H563V754.5H115.5Z"/>
</clipPath>
<clipPath id="clip_45">
<path transform="matrix(2.7777777,0,0,-2.7777777,.00093249997,2200.0023)" d="M0 0H612V792H0Z"/>
</clipPath>
<clipPath id="clip_46">
<path transform="matrix(2.7777777,0,0,2.7777777,1861.8065,1102.0857)" d="M-558-360V-17H-108V-360H-558Z" fill-rule="evenodd"/>
</clipPath>
<clipPath id="clip_47">
<path transform="matrix(2.7879079,0,0,2.7854496,-10.195414,-1045.3518)" d="M115.5 411.941H563V754.5H115.5Z"/>
</clipPath>
<clipPath id="clip_48">
<path transform="matrix(2.7879079,0,0,2.7854496,-10.195414,-1045.3518)" d="M115.5 411.941H563V754.5H115.5Z"/>
</clipPath>
<clipPath id="clip_49">
<path transform="matrix(2.7777777,0,0,-2.7777777,.0006358333,2200.0023)" d="M0 0H612V792H0Z"/>
</clipPath>
<clipPath id="clip_50">
<path transform="matrix(2.7777777,0,0,2.7777777,1861.8062,1102.0857)" d="M-558-360V-17H-108V-360H-558Z" fill-rule="evenodd"/>
</clipPath>
<clipPath id="clip_51">
<path transform="matrix(2.7879079,0,0,2.7854496,-10.195753,-1045.3518)" d="M115.5 411.941H563V754.5H115.5Z"/>
</clipPath>
<clipPath id="clip_52">
<path transform="matrix(2.7879079,0,0,2.7854496,-10.195753,-1045.3518)" d="M115.5 411.941H563V754.5H115.5Z"/>
</clipPath>
<clipPath id="clip_53">
<path transform="matrix(2.7777777,0,0,-2.7777777,.0006358333,2200.0025)" d="M0 0H612V792H0Z"/>
</clipPath>
<clipPath id="clip_54">
<path transform="matrix(2.7777777,0,0,2.7777777,1861.8062,1102.0858)" d="M-558-360V-17H-108V-360H-558Z" fill-rule="evenodd"/>
</clipPath>
<clipPath id="clip_55">
<path transform="matrix(2.7879079,0,0,2.7854496,-10.195753,-1045.3517)" d="M115.5 411.941H563V754.5H115.5Z"/>
</clipPath>
<clipPath id="clip_56">
<path transform="matrix(2.7879079,0,0,2.7854496,-10.195753,-1045.3517)" d="M115.5 411.941H563V754.5H115.5Z"/>
</clipPath>
<clipPath id="clip_57">
<path transform="matrix(2.7777777,0,0,-2.7777777,.0012291666,2200.0023)" d="M0 0H612V792H0Z"/>
</clipPath>
<clipPath id="clip_58">
<path transform="matrix(2.7777777,0,0,2.7777777,1861.8067,1102.0857)" d="M-558-360V-17H-108V-360H-558Z" fill-rule="evenodd"/>
</clipPath>
<clipPath id="clip_59">
<path transform="matrix(2.7879079,0,0,2.7854496,-10.195244,-1045.3518)" d="M115.5 411.941H563V754.5H115.5Z"/>
</clipPath>
<clipPath id="clip_60">
<path transform="matrix(2.7879079,0,0,2.7854496,-10.195244,-1045.3518)" d="M115.5 411.941H563V754.5H115.5Z"/>
</clipPath>
<clipPath id="clip_61">
<path transform="matrix(2.7777777,0,0,-2.7777777,.0012291666,2200.0023)" d="M0 0H612V792H0Z"/>
</clipPath>
<clipPath id="clip_62">
<path transform="matrix(2.7777777,0,0,2.7777777,1861.8067,1102.0857)" d="M-558-360V-17H-108V-360H-558Z" fill-rule="evenodd"/>
</clipPath>
<clipPath id="clip_63">
<path transform="matrix(2.7879079,0,0,2.7854496,-10.195244,-1045.3518)" d="M115.5 411.941H563V754.5H115.5Z"/>
</clipPath>
<clipPath id="clip_64">
<path transform="matrix(2.7879079,0,0,2.7854496,-10.195244,-1045.3518)" d="M115.5 411.941H563V754.5H115.5Z"/>
</clipPath>
<clipPath id="clip_65">
<path transform="matrix(2.7777777,0,0,-2.7777777,.001398611,2200.0023)" d="M0 0H612V792H0Z"/>
</clipPath>
<clipPath id="clip_66">
<path transform="matrix(2.7777777,0,0,2.7777777,1861.8069,1102.0857)" d="M-558-360V-17H-108V-360H-558Z" fill-rule="evenodd"/>
</clipPath>
<clipPath id="clip_67">
<path transform="matrix(2.7879079,0,0,2.7854496,-10.195075,-1045.3518)" d="M115.5 411.941H563V754.5H115.5Z"/>
</clipPath>
<clipPath id="clip_68">
<path transform="matrix(2.7879079,0,0,2.7854496,-10.195075,-1045.3518)" d="M115.5 411.941H563V754.5H115.5Z"/>
</clipPath>
<clipPath id="clip_69">
<path transform="matrix(2.7777777,0,0,-2.7777777,.0014411111,2200.0023)" d="M0 0H612V792H0Z"/>
</clipPath>
<clipPath id="clip_70">
<path transform="matrix(2.7777777,0,0,2.7777777,1861.807,1102.0857)" d="M-558-360V-17H-108V-360H-558Z" fill-rule="evenodd"/>
</clipPath>
<clipPath id="clip_71">
<path transform="matrix(2.7879079,0,0,2.7854496,-10.194905,-1045.3518)" d="M115.5 411.941H563V754.5H115.5Z"/>
</clipPath>
<clipPath id="clip_72">
<path transform="matrix(2.7879079,0,0,2.7854496,-10.194905,-1045.3518)" d="M115.5 411.941H563V754.5H115.5Z"/>
</clipPath>
<clipPath id="clip_73">
<path transform="matrix(2.7777777,0,0,-2.7777777,.0014836111,2200.0023)" d="M0 0H612V792H0Z"/>
</clipPath>
<clipPath id="clip_74">
<path transform="matrix(2.7777777,0,0,2.7777777,1861.807,1102.0857)" d="M-558-360V-17H-108V-360H-558Z" fill-rule="evenodd"/>
</clipPath>
<clipPath id="clip_75">
<path transform="matrix(2.7879079,0,0,2.7854496,-10.194905,-1045.3518)" d="M115.5 411.941H563V754.5H115.5Z"/>
</clipPath>
<clipPath id="clip_76">
<path transform="matrix(2.7879079,0,0,2.7854496,-10.194905,-1045.3518)" d="M115.5 411.941H563V754.5H115.5Z"/>
</clipPath>
<clipPath id="clip_77">
<path transform="matrix(2.7777777,0,0,-2.7777777,.0015683333,2200.0023)" d="M0 0H612V792H0Z"/>
</clipPath>
<clipPath id="clip_78">
<path transform="matrix(2.7777777,0,0,2.7777777,1861.807,1102.0857)" d="M-558-360V-17H-108V-360H-558Z" fill-rule="evenodd"/>
</clipPath>
<clipPath id="clip_79">
<path transform="matrix(2.7879079,0,0,2.7854496,-10.194905,-1045.3518)" d="M115.5 411.941H563V754.5H115.5Z"/>
</clipPath>
<clipPath id="clip_80">
<path transform="matrix(2.7879079,0,0,2.7854496,-10.194905,-1045.3518)" d="M115.5 411.941H563V754.5H115.5Z"/>
</clipPath>
<clipPath id="clip_81">
<path transform="matrix(2.7777777,0,0,-2.7777777,.0015683333,2200.0023)" d="M0 0H612V792H0Z"/>
</clipPath>
<clipPath id="clip_82">
<path transform="matrix(2.7777777,0,0,2.7777777,1861.807,1102.0857)" d="M-558-360V-17H-108V-360H-558Z" fill-rule="evenodd"/>
</clipPath>
<clipPath id="clip_83">
<path transform="matrix(2.7879079,0,0,2.7854496,-10.194905,-1045.3518)" d="M115.5 411.941H563V754.5H115.5Z"/>
</clipPath>
<clipPath id="clip_84">
<path transform="matrix(2.7879079,0,0,2.7854496,-10.194905,-1045.3518)" d="M115.5 411.941H563V754.5H115.5Z"/>
</clipPath>
<clipPath id="clip_85">
<path transform="matrix(2.7777777,0,0,-2.7777777,.001398611,2200.0023)" d="M0 0H612V792H0Z"/>
</clipPath>
<clipPath id="clip_86">
<path transform="matrix(2.7777777,0,0,2.7777777,1861.8069,1102.0857)" d="M-558-360V-17H-108V-360H-558Z" fill-rule="evenodd"/>
</clipPath>
<clipPath id="clip_87">
<path transform="matrix(2.7879079,0,0,2.7854496,-10.195075,-1045.3518)" d="M115.5 411.941H563V754.5H115.5Z"/>
</clipPath>
<clipPath id="clip_88">
<path transform="matrix(2.7879079,0,0,2.7854496,-10.195075,-1045.3518)" d="M115.5 411.941H563V754.5H115.5Z"/>
</clipPath>
<clipPath id="clip_89">
<path transform="matrix(2.7777777,0,0,-2.7777777,.001398611,2200.0023)" d="M0 0H612V792H0Z"/>
</clipPath>
<clipPath id="clip_90">
<path transform="matrix(2.7777777,0,0,2.7777777,1861.8069,1102.0857)" d="M-558-360V-17H-108V-360H-558Z" fill-rule="evenodd"/>
</clipPath>
<clipPath id="clip_91">
<path transform="matrix(2.7879079,0,0,2.7854496,-10.195075,-1045.3518)" d="M115.5 411.941H563V754.5H115.5Z"/>
</clipPath>
<clipPath id="clip_92">
<path transform="matrix(2.7879079,0,0,2.7854496,-10.195075,-1045.3518)" d="M115.5 411.941H563V754.5H115.5Z"/>
</clipPath>
<clipPath id="clip_93">
<path transform="matrix(2.7777777,0,0,-2.7777777,.0011866667,2200.0023)" d="M0 0H612V792H0Z"/>
</clipPath>
<clipPath id="clip_94">
<path transform="matrix(2.7777777,0,0,2.7777777,1861.8067,1102.0857)" d="M-558-360V-17H-108V-360H-558Z" fill-rule="evenodd"/>
</clipPath>
<clipPath id="clip_95">
<path transform="matrix(2.7879079,0,0,2.7854496,-10.195244,-1045.3518)" d="M115.5 411.941H563V754.5H115.5Z"/>
</clipPath>
<clipPath id="clip_96">
<path transform="matrix(2.7879079,0,0,2.7854496,-10.195244,-1045.3518)" d="M115.5 411.941H563V754.5H115.5Z"/>
</clipPath>
<clipPath id="clip_97">
<path transform="matrix(2.7777777,0,0,-2.7777777,.0011866667,2200.0023)" d="M0 0H612V792H0Z"/>
</clipPath>
<clipPath id="clip_98">
<path transform="matrix(2.7777777,0,0,2.7777777,1861.8067,1102.0857)" d="M-558-360V-17H-108V-360H-558Z" fill-rule="evenodd"/>
</clipPath>
<clipPath id="clip_99">
<path transform="matrix(2.7879079,0,0,2.7854496,-10.195244,-1045.3518)" d="M115.5 411.941H563V754.5H115.5Z"/>
</clipPath>
<clipPath id="clip_100">
<path transform="matrix(2.7879079,0,0,2.7854496,-10.195244,-1045.3518)" d="M115.5 411.941H563V754.5H115.5Z"/>
</clipPath>
<clipPath id="clip_101">
<path transform="matrix(2.7777777,0,0,-2.7777777,.0011444443,2200.0023)" d="M0 0H612V792H0Z"/>
</clipPath>
<clipPath id="clip_102">
<path transform="matrix(2.7777777,0,0,2.7777777,1861.8067,1102.0857)" d="M-558-360V-17H-108V-360H-558Z" fill-rule="evenodd"/>
</clipPath>
<clipPath id="clip_103">
<path transform="matrix(2.7879079,0,0,2.7854496,-10.195244,-1045.3518)" d="M115.5 411.941H563V754.5H115.5Z"/>
</clipPath>
<clipPath id="clip_104">
<path transform="matrix(2.7879079,0,0,2.7854496,-10.195244,-1045.3518)" d="M115.5 411.941H563V754.5H115.5Z"/>
</clipPath>
<clipPath id="clip_105">
<path transform="matrix(2.7777777,0,0,-2.7777777,.0015258333,2200.0023)" d="M0 0H612V792H0Z"/>
</clipPath>
<clipPath id="clip_106">
<path transform="matrix(2.7777777,0,0,2.7777777,1861.807,1102.0857)" d="M-558-360V-17H-108V-360H-558Z" fill-rule="evenodd"/>
</clipPath>
<clipPath id="clip_107">
<path transform="matrix(2.7879079,0,0,2.7854496,-10.194905,-1045.3518)" d="M115.5 411.941H563V754.5H115.5Z"/>
</clipPath>
<clipPath id="clip_108">
<path transform="matrix(2.7879079,0,0,2.7854496,-10.194905,-1045.3518)" d="M115.5 411.941H563V754.5H115.5Z"/>
</clipPath>
<clipPath id="clip_109">
<path transform="matrix(2.7777777,0,0,-2.7777777,.0013563888,2200.0023)" d="M0 0H612V792H0Z"/>
</clipPath>
<clipPath id="clip_110">
<path transform="matrix(2.7777777,0,0,2.7777777,1861.8069,1102.0857)" d="M-558-360V-17H-108V-360H-558Z" fill-rule="evenodd"/>
</clipPath>
<clipPath id="clip_111">
<path transform="matrix(2.7879079,0,0,2.7854496,-10.195075,-1045.3518)" d="M115.5 411.941H563V754.5H115.5Z"/>
</clipPath>
<clipPath id="clip_112">
<path transform="matrix(2.7879079,0,0,2.7854496,-10.195075,-1045.3518)" d="M115.5 411.941H563V754.5H115.5Z"/>
</clipPath>
<clipPath id="clip_113">
<path transform="matrix(2.7777777,0,0,-2.7777777,.0013138888,2200.0023)" d="M0 0H612V792H0Z"/>
</clipPath>
<clipPath id="clip_114">
<path transform="matrix(2.7777777,0,0,2.7777777,1861.8069,1102.0857)" d="M-558-360V-17H-108V-360H-558Z" fill-rule="evenodd"/>
</clipPath>
<clipPath id="clip_115">
<path transform="matrix(2.7879079,0,0,2.7854496,-10.195075,-1045.3518)" d="M115.5 411.941H563V754.5H115.5Z"/>
</clipPath>
<clipPath id="clip_116">
<path transform="matrix(2.7879079,0,0,2.7854496,-10.195075,-1045.3518)" d="M115.5 411.941H563V754.5H115.5Z"/>
</clipPath>
<clipPath id="clip_117">
<path transform="matrix(2.7777777,0,0,-2.7777777,.0013138888,2200.0023)" d="M0 0H612V792H0Z"/>
</clipPath>
<clipPath id="clip_118">
<path transform="matrix(2.7777777,0,0,2.7777777,1861.8069,1102.0857)" d="M-558-360V-17H-108V-360H-558Z" fill-rule="evenodd"/>
</clipPath>
<clipPath id="clip_119">
<path transform="matrix(2.7879079,0,0,2.7854496,-10.195075,-1045.3518)" d="M115.5 411.941H563V754.5H115.5Z"/>
</clipPath>
<clipPath id="clip_120">
<path transform="matrix(2.7879079,0,0,2.7854496,-10.195075,-1045.3518)" d="M115.5 411.941H563V754.5H115.5Z"/>
</clipPath>
<clipPath id="clip_121">
<path transform="matrix(2.7777777,0,0,-2.7777777,.0012716666,2200.0023)" d="M0 0H612V792H0Z"/>
</clipPath>
<clipPath id="clip_122">
<path transform="matrix(2.7777777,0,0,2.7777777,1861.8069,1102.0857)" d="M-558-360V-17H-108V-360H-558Z" fill-rule="evenodd"/>
</clipPath>
<clipPath id="clip_123">
<path transform="matrix(2.7879079,0,0,2.7854496,-10.195075,-1045.3518)" d="M115.5 411.941H563V754.5H115.5Z"/>
</clipPath>
<clipPath id="clip_124">
<path transform="matrix(2.7879079,0,0,2.7854496,-10.195075,-1045.3518)" d="M115.5 411.941H563V754.5H115.5Z"/>
</clipPath>
<clipPath id="clip_125">
<path transform="matrix(2.7777777,0,0,-2.7777777,.0012716666,2200.0023)" d="M0 0H612V792H0Z"/>
</clipPath>
<clipPath id="clip_126">
<path transform="matrix(2.7777777,0,0,2.7777777,1861.8069,1102.0857)" d="M-558-360V-17H-108V-360H-558Z" fill-rule="evenodd"/>
</clipPath>
<clipPath id="clip_127">
<path transform="matrix(2.7879079,0,0,2.7854496,-10.195075,-1045.3518)" d="M115.5 411.941H563V754.5H115.5Z"/>
</clipPath>
<clipPath id="clip_128">
<path transform="matrix(2.7879079,0,0,2.7854496,-10.195075,-1045.3518)" d="M115.5 411.941H563V754.5H115.5Z"/>
</clipPath>
<clipPath id="clip_129">
<path transform="matrix(2.7777777,0,0,-2.7777777,.0013138888,2200.0023)" d="M0 0H612V792H0Z"/>
</clipPath>
<clipPath id="clip_130">
<path transform="matrix(2.7777777,0,0,2.7777777,1861.8069,1102.0857)" d="M-558-360V-17H-108V-360H-558Z" fill-rule="evenodd"/>
</clipPath>
<clipPath id="clip_131">
<path transform="matrix(2.7879079,0,0,2.7854496,-10.195075,-1045.3518)" d="M115.5 411.941H563V754.5H115.5Z"/>
</clipPath>
<clipPath id="clip_132">
<path transform="matrix(2.7879079,0,0,2.7854496,-10.195075,-1045.3518)" d="M115.5 411.941H563V754.5H115.5Z"/>
</clipPath>
<clipPath id="clip_133">
<path transform="matrix(2.7777777,0,0,-2.7777777,.0012716666,2200.0023)" d="M0 0H612V792H0Z"/>
</clipPath>
<clipPath id="clip_134">
<path transform="matrix(2.7777777,0,0,2.7777777,1861.8069,1102.0857)" d="M-558-360V-17H-108V-360H-558Z" fill-rule="evenodd"/>
</clipPath>
<clipPath id="clip_135">
<path transform="matrix(2.7879079,0,0,2.7854496,-10.195075,-1045.3518)" d="M115.5 411.941H563V754.5H115.5Z"/>
</clipPath>
<clipPath id="clip_136">
<path transform="matrix(2.7879079,0,0,2.7854496,-10.195075,-1045.3518)" d="M115.5 411.941H563V754.5H115.5Z"/>
</clipPath>
<clipPath id="clip_137">
<path transform="matrix(2.7777777,0,0,-2.7777777,.0012716666,2200.0023)" d="M0 0H612V792H0Z"/>
</clipPath>
<clipPath id="clip_138">
<path transform="matrix(2.7777777,0,0,2.7777777,1861.8069,1102.0857)" d="M-558-360V-17H-108V-360H-558Z" fill-rule="evenodd"/>
</clipPath>
<clipPath id="clip_139">
<path transform="matrix(2.7879079,0,0,2.7854496,-10.195075,-1045.3518)" d="M115.5 411.941H563V754.5H115.5Z"/>
</clipPath>
<clipPath id="clip_140">
<path transform="matrix(2.7879079,0,0,2.7854496,-10.195075,-1045.3518)" d="M115.5 411.941H563V754.5H115.5Z"/>
</clipPath>
<clipPath id="clip_141">
<path transform="matrix(2.7777777,0,0,-2.7777777,.0011019444,2200.0023)" d="M0 0H612V792H0Z"/>
</clipPath>
<clipPath id="clip_142">
<path transform="matrix(2.7777777,0,0,2.7777777,1861.8065,1102.0857)" d="M-558-360V-17H-108V-360H-558Z" fill-rule="evenodd"/>
</clipPath>
<clipPath id="clip_143">
<path transform="matrix(2.7879079,0,0,2.7854496,-10.195414,-1045.3518)" d="M115.5 411.941H563V754.5H115.5Z"/>
</clipPath>
<clipPath id="clip_144">
<path transform="matrix(2.7879079,0,0,2.7854496,-10.195414,-1045.3518)" d="M115.5 411.941H563V754.5H115.5Z"/>
</clipPath>
<clipPath id="clip_145">
<path transform="matrix(2.7777777,0,0,-2.7777777,.0011019444,2200.0023)" d="M0 0H612V792H0Z"/>
</clipPath>
<clipPath id="clip_146">
<path transform="matrix(2.7777777,0,0,2.7777777,1861.8065,1102.0857)" d="M-558-360V-17H-108V-360H-558Z" fill-rule="evenodd"/>
</clipPath>
<clipPath id="clip_147">
<path transform="matrix(2.7879079,0,0,2.7854496,-10.195414,-1045.3518)" d="M115.5 411.941H563V754.5H115.5Z"/>
</clipPath>
<clipPath id="clip_148">
<path transform="matrix(2.7879079,0,0,2.7854496,-10.195414,-1045.3518)" d="M115.5 411.941H563V754.5H115.5Z"/>
</clipPath>
<clipPath id="clip_149">
<path transform="matrix(2.7777777,0,0,-2.7777777,.0011444443,2200.0023)" d="M0 0H612V792H0Z"/>
</clipPath>
<clipPath id="clip_150">
<path transform="matrix(2.7777777,0,0,2.7777777,1861.8067,1102.0857)" d="M-558-360V-17H-108V-360H-558Z" fill-rule="evenodd"/>
</clipPath>
<clipPath id="clip_151">
<path transform="matrix(2.7879079,0,0,2.7854496,-10.195244,-1045.3518)" d="M115.5 411.941H563V754.5H115.5Z"/>
</clipPath>
<clipPath id="clip_152">
<path transform="matrix(2.7879079,0,0,2.7854496,-10.195244,-1045.3518)" d="M115.5 411.941H563V754.5H115.5Z"/>
</clipPath>
<clipPath id="clip_153">
<path transform="matrix(2.7777777,0,0,-2.7777777,.0014411111,2200.0023)" d="M0 0H612V792H0Z"/>
</clipPath>
<clipPath id="clip_154">
<path transform="matrix(2.7777777,0,0,2.7777777,1861.807,1102.0857)" d="M-558-360V-17H-108V-360H-558Z" fill-rule="evenodd"/>
</clipPath>
<clipPath id="clip_155">
<path transform="matrix(2.7879079,0,0,2.7854496,-10.194905,-1045.3518)" d="M115.5 411.941H563V754.5H115.5Z"/>
</clipPath>
<clipPath id="clip_156">
<path transform="matrix(2.7879079,0,0,2.7854496,-10.194905,-1045.3518)" d="M115.5 411.941H563V754.5H115.5Z"/>
</clipPath>
<clipPath id="clip_157">
<path transform="matrix(2.7777777,0,0,-2.7777777,.0014411111,2200.0023)" d="M0 0H612V792H0Z"/>
</clipPath>
<clipPath id="clip_158">
<path transform="matrix(2.7777777,0,0,2.7777777,1861.807,1102.0857)" d="M-558-360V-17H-108V-360H-558Z" fill-rule="evenodd"/>
</clipPath>
<clipPath id="clip_159">
<path transform="matrix(2.7879079,0,0,2.7854496,-10.194905,-1045.3518)" d="M115.5 411.941H563V754.5H115.5Z"/>
</clipPath>
<clipPath id="clip_160">
<path transform="matrix(2.7879079,0,0,2.7854496,-10.194905,-1045.3518)" d="M115.5 411.941H563V754.5H115.5Z"/>
</clipPath>
<clipPath id="clip_161">
<path transform="matrix(2.7777777,0,0,-2.7777777,.0014411111,2200.0023)" d="M0 0H612V792H0Z"/>
</clipPath>
<clipPath id="clip_162">
<path transform="matrix(2.7777777,0,0,2.7777777,1861.807,1102.0857)" d="M-558-360V-17H-108V-360H-558Z" fill-rule="evenodd"/>
</clipPath>
<clipPath id="clip_163">
<path transform="matrix(2.7879079,0,0,2.7854496,-10.194905,-1045.3518)" d="M115.5 411.941H563V754.5H115.5Z"/>
</clipPath>
<clipPath id="clip_164">
<path transform="matrix(2.7879079,0,0,2.7854496,-10.194905,-1045.3518)" d="M115.5 411.941H563V754.5H115.5Z"/>
</clipPath>
<clipPath id="clip_165">
<path transform="matrix(2.7777777,0,0,-2.7777777,.0013138888,2200.0023)" d="M0 0H612V792H0Z"/>
</clipPath>
<clipPath id="clip_166">
<path transform="matrix(2.7777777,0,0,2.7777777,1861.8069,1102.0857)" d="M-558-360V-17H-108V-360H-558Z" fill-rule="evenodd"/>
</clipPath>
<clipPath id="clip_167">
<path transform="matrix(2.7879079,0,0,2.7854496,-10.195075,-1045.3518)" d="M115.5 411.941H563V754.5H115.5Z"/>
</clipPath>
<clipPath id="clip_168">
<path transform="matrix(2.7879079,0,0,2.7854496,-10.195075,-1045.3518)" d="M115.5 411.941H563V754.5H115.5Z"/>
</clipPath>
<clipPath id="clip_169">
<path transform="matrix(2.7777777,0,0,-2.7777777,.0011444443,2200.0023)" d="M0 0H612V792H0Z"/>
</clipPath>
<clipPath id="clip_170">
<path transform="matrix(2.7777777,0,0,2.7777777,1861.8067,1102.0857)" d="M-558-360V-17H-108V-360H-558Z" fill-rule="evenodd"/>
</clipPath>
<clipPath id="clip_171">
<path transform="matrix(2.7879079,0,0,2.7854496,-10.195244,-1045.3518)" d="M115.5 411.941H563V754.5H115.5Z"/>
</clipPath>
<clipPath id="clip_172">
<path transform="matrix(2.7879079,0,0,2.7854496,-10.195244,-1045.3518)" d="M115.5 411.941H563V754.5H115.5Z"/>
</clipPath>
<clipPath id="clip_173">
<path transform="matrix(2.7777777,0,0,-2.7777777,.0011444443,2200.0023)" d="M0 0H612V792H0Z"/>
</clipPath>
<clipPath id="clip_174">
<path transform="matrix(2.7777777,0,0,2.7777777,1861.8067,1102.0857)" d="M-558-360V-17H-108V-360H-558Z" fill-rule="evenodd"/>
</clipPath>
<clipPath id="clip_175">
<path transform="matrix(2.7879079,0,0,2.7854496,-10.195244,-1045.3518)" d="M115.5 411.941H563V754.5H115.5Z"/>
</clipPath>
<clipPath id="clip_176">
<path transform="matrix(2.7879079,0,0,2.7854496,-10.195244,-1045.3518)" d="M115.5 411.941H563V754.5H115.5Z"/>
</clipPath>
<clipPath id="clip_177">
<path transform="matrix(2.7777777,0,0,-2.7777777,.0011444443,2200.0023)" d="M0 0H612V792H0Z"/>
</clipPath>
<clipPath id="clip_178">
<path transform="matrix(2.7777777,0,0,2.7777777,1861.8067,1102.0857)" d="M-558-360V-17H-108V-360H-558Z" fill-rule="evenodd"/>
</clipPath>
<clipPath id="clip_179">
<path transform="matrix(2.7879079,0,0,2.7854496,-10.195244,-1045.3518)" d="M115.5 411.941H563V754.5H115.5Z"/>
</clipPath>
<clipPath id="clip_180">
<path transform="matrix(2.7879079,0,0,2.7854496,-10.195244,-1045.3518)" d="M115.5 411.941H563V754.5H115.5Z"/>
</clipPath>
<clipPath id="clip_181">
<path transform="matrix(2.7777777,0,0,-2.7777777,.0013138888,2200.0023)" d="M0 0H612V792H0Z"/>
</clipPath>
<clipPath id="clip_182">
<path transform="matrix(2.7777777,0,0,2.7777777,1861.8069,1102.0857)" d="M-558-360V-17H-108V-360H-558Z" fill-rule="evenodd"/>
</clipPath>
<clipPath id="clip_183">
<path transform="matrix(2.7879079,0,0,2.7854496,-10.195075,-1045.3518)" d="M115.5 411.941H563V754.5H115.5Z"/>
</clipPath>
<clipPath id="clip_184">
<path transform="matrix(2.7879079,0,0,2.7854496,-10.195075,-1045.3518)" d="M115.5 411.941H563V754.5H115.5Z"/>
</clipPath>
<clipPath id="clip_185">
<path transform="matrix(2.7777777,0,0,-2.7777777,.0014411111,2200.0023)" d="M0 0H612V792H0Z"/>
</clipPath>
<clipPath id="clip_186">
<path transform="matrix(2.7777777,0,0,2.7777777,1861.807,1102.0857)" d="M-558-360V-17H-108V-360H-558Z" fill-rule="evenodd"/>
</clipPath>
<clipPath id="clip_187">
<path transform="matrix(2.7879079,0,0,2.7854496,-10.194905,-1045.3518)" d="M115.5 411.941H563V754.5H115.5Z"/>
</clipPath>
<clipPath id="clip_188">
<path transform="matrix(2.7879079,0,0,2.7854496,-10.194905,-1045.3518)" d="M115.5 411.941H563V754.5H115.5Z"/>
</clipPath>
<clipPath id="clip_189">
<path transform="matrix(2.7777777,0,0,-2.7777777,.0013563888,2200.0023)" d="M0 0H612V792H0Z"/>
</clipPath>
<clipPath id="clip_190">
<path transform="matrix(2.7777777,0,0,2.7777777,1861.8069,1102.0857)" d="M-558-360V-17H-108V-360H-558Z" fill-rule="evenodd"/>
</clipPath>
<clipPath id="clip_191">
<path transform="matrix(2.7879079,0,0,2.7854496,-10.195075,-1045.3518)" d="M115.5 411.941H563V754.5H115.5Z"/>
</clipPath>
<clipPath id="clip_192">
<path transform="matrix(2.7879079,0,0,2.7854496,-10.195075,-1045.3518)" d="M115.5 411.941H563V754.5H115.5Z"/>
</clipPath>
<clipPath id="clip_193">
<path transform="matrix(2.7777777,0,0,-2.7777777,.0013563888,2200.0023)" d="M0 0H612V792H0Z"/>
</clipPath>
<clipPath id="clip_194">
<path transform="matrix(2.7777777,0,0,2.7777777,1861.8069,1102.0857)" d="M-558-360V-17H-108V-360H-558Z" fill-rule="evenodd"/>
</clipPath>
<clipPath id="clip_195">
<path transform="matrix(2.7879079,0,0,2.7854496,-10.195075,-1045.3518)" d="M115.5 411.941H563V754.5H115.5Z"/>
</clipPath>
<clipPath id="clip_196">
<path transform="matrix(2.7879079,0,0,2.7854496,-10.195075,-1045.3518)" d="M115.5 411.941H563V754.5H115.5Z"/>
</clipPath>
<clipPath id="clip_197">
<path transform="matrix(2.7777777,0,0,-2.7777777,.0013563888,2200.0023)" d="M0 0H612V792H0Z"/>
</clipPath>
<clipPath id="clip_198">
<path transform="matrix(2.7777777,0,0,2.7777777,1861.8069,1102.0857)" d="M-558-360V-17H-108V-360H-558Z" fill-rule="evenodd"/>
</clipPath>
<clipPath id="clip_199">
<path transform="matrix(2.7879079,0,0,2.7854496,-10.195075,-1045.3518)" d="M115.5 411.941H563V754.5H115.5Z"/>
</clipPath>
<clipPath id="clip_200">
<path transform="matrix(2.7879079,0,0,2.7854496,-10.195075,-1045.3518)" d="M115.5 411.941H563V754.5H115.5Z"/>
</clipPath>
<clipPath id="clip_201">
<path transform="matrix(2.7777777,0,0,-2.7777777,.0013563888,2200.0023)" d="M0 0H612V792H0Z"/>
</clipPath>
<clipPath id="clip_202">
<path transform="matrix(2.7777777,0,0,2.7777777,1861.8069,1102.0857)" d="M-558-360V-17H-108V-360H-558Z" fill-rule="evenodd"/>
</clipPath>
<clipPath id="clip_203">
<path transform="matrix(2.7879079,0,0,2.7854496,-10.195075,-1045.3518)" d="M115.5 411.941H563V754.5H115.5Z"/>
</clipPath>
<clipPath id="clip_204">
<path transform="matrix(2.7879079,0,0,2.7854496,-10.195075,-1045.3518)" d="M115.5 411.941H563V754.5H115.5Z"/>
</clipPath>
<clipPath id="clip_205">
<path transform="matrix(2.7777777,0,0,-2.7777777,.0013563888,2200.0023)" d="M0 0H612V792H0Z"/>
</clipPath>
<clipPath id="clip_206">
<path transform="matrix(2.7777777,0,0,2.7777777,1861.8069,1102.0857)" d="M-558-360V-17H-108V-360H-558Z" fill-rule="evenodd"/>
</clipPath>
<clipPath id="clip_207">
<path transform="matrix(2.7879079,0,0,2.7854496,-10.195075,-1045.3518)" d="M115.5 411.941H563V754.5H115.5Z"/>
</clipPath>
<clipPath id="clip_208">
<path transform="matrix(2.7879079,0,0,2.7854496,-10.195075,-1045.3518)" d="M115.5 411.941H563V754.5H115.5Z"/>
</clipPath>
<clipPath id="clip_209">
<path transform="matrix(2.7777777,0,0,-2.7777777,.001398611,2200.0023)" d="M0 0H612V792H0Z"/>
</clipPath>
<clipPath id="clip_210">
<path transform="matrix(2.7777777,0,0,2.7777777,1861.8069,1102.0857)" d="M-558-360V-17H-108V-360H-558Z" fill-rule="evenodd"/>
</clipPath>
<clipPath id="clip_211">
<path transform="matrix(2.7879079,0,0,2.7854496,-10.195075,-1045.3518)" d="M115.5 411.941H563V754.5H115.5Z"/>
</clipPath>
<clipPath id="clip_212">
<path transform="matrix(2.7879079,0,0,2.7854496,-10.195075,-1045.3518)" d="M115.5 411.941H563V754.5H115.5Z"/>
</clipPath>
<clipPath id="clip_213">
<path transform="matrix(2.7777777,0,0,-2.7777777,.001398611,2200.0023)" d="M0 0H612V792H0Z"/>
</clipPath>
<clipPath id="clip_214">
<path transform="matrix(2.7777777,0,0,2.7777777,1861.8069,1102.0857)" d="M-558-360V-17H-108V-360H-558Z" fill-rule="evenodd"/>
</clipPath>
<clipPath id="clip_215">
<path transform="matrix(2.7879079,0,0,2.7854496,-10.195075,-1045.3518)" d="M115.5 411.941H563V754.5H115.5Z"/>
</clipPath>
<clipPath id="clip_216">
<path transform="matrix(2.7879079,0,0,2.7854496,-10.195075,-1045.3518)" d="M115.5 411.941H563V754.5H115.5Z"/>
</clipPath>
<clipPath id="clip_217">
<path transform="matrix(2.7777777,0,0,-2.7777777,.0014411111,2200.0023)" d="M0 0H612V792H0Z"/>
</clipPath>
<clipPath id="clip_218">
<path transform="matrix(2.7777777,0,0,2.7777777,1861.807,1102.0857)" d="M-558-360V-17H-108V-360H-558Z" fill-rule="evenodd"/>
</clipPath>
<clipPath id="clip_219">
<path transform="matrix(2.7879079,0,0,2.7854496,-10.194905,-1045.3518)" d="M115.5 411.941H563V754.5H115.5Z"/>
</clipPath>
<clipPath id="clip_220">
<path transform="matrix(2.7879079,0,0,2.7854496,-10.194905,-1045.3518)" d="M115.5 411.941H563V754.5H115.5Z"/>
</clipPath>
<clipPath id="clip_221">
<path transform="matrix(2.7777777,0,0,-2.7777777,.00088999999,2200.0028)" d="M0 0H612V792H0Z"/>
</clipPath>
<clipPath id="clip_222">
<path transform="matrix(2.7777777,0,0,2.7777777,1861.8063,1102.0862)" d="M-558-360V-17H-108V-360H-558Z" fill-rule="evenodd"/>
</clipPath>
<clipPath id="clip_223">
<path transform="matrix(2.7879079,0,0,2.7854496,-10.195583,-1045.3513)" d="M115.5 411.941H563V754.5H115.5Z"/>
</clipPath>
<clipPath id="clip_224">
<path transform="matrix(2.7879079,0,0,2.7854496,-10.195583,-1045.3513)" d="M115.5 411.941H563V754.5H115.5Z"/>
</clipPath>
<clipPath id="clip_225">
<path transform="matrix(2.7777777,0,0,-2.7777777,.0006780555,2200.0025)" d="M0 0H612V792H0Z"/>
</clipPath>
<clipPath id="clip_226">
<path transform="matrix(2.7777777,0,0,2.7777777,1861.8062,1102.0858)" d="M-558-360V-17H-108V-360H-558Z" fill-rule="evenodd"/>
</clipPath>
<clipPath id="clip_227">
<path transform="matrix(2.7879079,0,0,2.7854496,-10.195753,-1045.3517)" d="M115.5 411.941H563V754.5H115.5Z"/>
</clipPath>
<clipPath id="clip_228">
<path transform="matrix(2.7879079,0,0,2.7854496,-10.195753,-1045.3517)" d="M115.5 411.941H563V754.5H115.5Z"/>
</clipPath>
<clipPath id="clip_229">
<path transform="matrix(2.7777777,0,0,-2.7777777,.0006780555,2200.0025)" d="M0 0H612V792H0Z"/>
</clipPath>
<clipPath id="clip_230">
<path transform="matrix(2.7777777,0,0,2.7777777,1861.8062,1102.0858)" d="M-558-360V-17H-108V-360H-558Z" fill-rule="evenodd"/>
</clipPath>
<clipPath id="clip_231">
<path transform="matrix(2.7879079,0,0,2.7854496,-10.195753,-1045.3517)" d="M115.5 411.941H563V754.5H115.5Z"/>
</clipPath>
<clipPath id="clip_232">
<path transform="matrix(2.7879079,0,0,2.7854496,-10.195753,-1045.3517)" d="M115.5 411.941H563V754.5H115.5Z"/>
</clipPath>
<clipPath id="clip_233">
<path transform="matrix(2.7777777,0,0,-2.7777777,.0006358333,2200.0025)" d="M0 0H612V792H0Z"/>
</clipPath>
<clipPath id="clip_234">
<path transform="matrix(2.7777777,0,0,2.7777777,1861.8062,1102.0858)" d="M-558-360V-17H-108V-360H-558Z" fill-rule="evenodd"/>
</clipPath>
<clipPath id="clip_235">
<path transform="matrix(2.7879079,0,0,2.7854496,-10.195753,-1045.3517)" d="M115.5 411.941H563V754.5H115.5Z"/>
</clipPath>
<clipPath id="clip_236">
<path transform="matrix(2.7879079,0,0,2.7854496,-10.195753,-1045.3517)" d="M115.5 411.941H563V754.5H115.5Z"/>
</clipPath>
<clipPath id="clip_237">
<path transform="matrix(2.7777777,0,0,-2.7777777,.0006358333,2200.0025)" d="M0 0H612V792H0Z"/>
</clipPath>
<clipPath id="clip_238">
<path transform="matrix(2.7777777,0,0,2.7777777,1861.8062,1102.0858)" d="M-558-360V-17H-108V-360H-558Z" fill-rule="evenodd"/>
</clipPath>
<clipPath id="clip_239">
<path transform="matrix(2.7879079,0,0,2.7854496,-10.195753,-1045.3517)" d="M115.5 411.941H563V754.5H115.5Z"/>
</clipPath>
<clipPath id="clip_240">
<path transform="matrix(2.7879079,0,0,2.7854496,-10.195753,-1045.3517)" d="M115.5 411.941H563V754.5H115.5Z"/>
</clipPath>
<clipPath id="clip_241">
<path transform="matrix(2.7777777,0,0,-2.7777777,.0006358333,2200.0025)" d="M0 0H612V792H0Z"/>
</clipPath>
<clipPath id="clip_242">
<path transform="matrix(2.7777777,0,0,2.7777777,1861.8062,1102.0858)" d="M-558-360V-17H-108V-360H-558Z" fill-rule="evenodd"/>
</clipPath>
<clipPath id="clip_243">
<path transform="matrix(2.7879079,0,0,2.7854496,-10.195753,-1045.3517)" d="M115.5 411.941H563V754.5H115.5Z"/>
</clipPath>
<clipPath id="clip_244">
<path transform="matrix(2.7879079,0,0,2.7854496,-10.195753,-1045.3517)" d="M115.5 411.941H563V754.5H115.5Z"/>
</clipPath>
<clipPath id="clip_245">
<path transform="matrix(2.7777777,0,0,-2.7777777,.0006358333,2200.0025)" d="M0 0H612V792H0Z"/>
</clipPath>
<clipPath id="clip_246">
<path transform="matrix(2.7777777,0,0,2.7777777,1861.8062,1102.0858)" d="M-558-360V-17H-108V-360H-558Z" fill-rule="evenodd"/>
</clipPath>
<clipPath id="clip_247">
<path transform="matrix(2.7879079,0,0,2.7854496,-10.195753,-1045.3517)" d="M115.5 411.941H563V754.5H115.5Z"/>
</clipPath>
<clipPath id="clip_248">
<path transform="matrix(2.7879079,0,0,2.7854496,-10.195753,-1045.3517)" d="M115.5 411.941H563V754.5H115.5Z"/>
</clipPath>
<clipPath id="clip_249">
<path transform="matrix(2.7777777,0,0,-2.7777777,.0006358333,2200.0025)" d="M0 0H612V792H0Z"/>
</clipPath>
<clipPath id="clip_250">
<path transform="matrix(2.7777777,0,0,2.7777777,1861.8062,1102.0858)" d="M-558-360V-17H-108V-360H-558Z" fill-rule="evenodd"/>
</clipPath>
<clipPath id="clip_251">
<path transform="matrix(2.7879079,0,0,2.7854496,-10.195753,-1045.3517)" d="M115.5 411.941H563V754.5H115.5Z"/>
</clipPath>
<clipPath id="clip_252">
<path transform="matrix(2.7879079,0,0,2.7854496,-10.195753,-1045.3517)" d="M115.5 411.941H563V754.5H115.5Z"/>
</clipPath>
<clipPath id="clip_253">
<path transform="matrix(2.7777777,0,0,-2.7777777,.0006358333,2200.0025)" d="M0 0H612V792H0Z"/>
</clipPath>
<clipPath id="clip_254">
<path transform="matrix(2.7777777,0,0,2.7777777,1861.8062,1102.0858)" d="M-558-360V-17H-108V-360H-558Z" fill-rule="evenodd"/>
</clipPath>
<clipPath id="clip_255">
<path transform="matrix(2.7879079,0,0,2.7854496,-10.195753,-1045.3517)" d="M115.5 411.941H563V754.5H115.5Z"/>
</clipPath>
<clipPath id="clip_256">
<path transform="matrix(2.7879079,0,0,2.7854496,-10.195753,-1045.3517)" d="M115.5 411.941H563V754.5H115.5Z"/>
</clipPath>
<clipPath id="clip_257">
<path transform="matrix(2.7777777,0,0,-2.7777777,.000975,2200.0028)" d="M0 0H612V792H0Z"/>
</clipPath>
<clipPath id="clip_258">
<path transform="matrix(2.7777777,0,0,2.7777777,1861.8065,1102.0862)" d="M-558-360V-17H-108V-360H-558Z" fill-rule="evenodd"/>
</clipPath>
<clipPath id="clip_259">
<path transform="matrix(2.7879079,0,0,2.7854496,-10.195414,-1045.3513)" d="M115.5 411.941H563V754.5H115.5Z"/>
</clipPath>
<clipPath id="clip_260">
<path transform="matrix(2.7879079,0,0,2.7854496,-10.195414,-1045.3513)" d="M115.5 411.941H563V754.5H115.5Z"/>
</clipPath>
<clipPath id="clip_261">
<path transform="matrix(2.7777777,0,0,-2.7777777,.0010172222,2200.0032)" d="M0 0H612V792H0Z"/>
</clipPath>
<clipPath id="clip_262">
<path transform="matrix(2.7777777,0,0,2.7777777,1861.8065,1102.0866)" d="M-558-360V-17H-108V-360H-558Z" fill-rule="evenodd"/>
</clipPath>
<clipPath id="clip_263">
<path transform="matrix(2.7879079,0,0,2.7854496,-10.195414,-1045.351)" d="M115.5 411.941H563V754.5H115.5Z"/>
</clipPath>
<clipPath id="clip_264">
<path transform="matrix(2.7879079,0,0,2.7854496,-10.195414,-1045.351)" d="M115.5 411.941H563V754.5H115.5Z"/>
</clipPath>
<clipPath id="clip_265">
<path transform="matrix(2.7777777,0,0,-2.7777777,.000975,2200.0032)" d="M0 0H612V792H0Z"/>
</clipPath>
<clipPath id="clip_266">
<path transform="matrix(2.7777777,0,0,2.7777777,1861.8065,1102.0866)" d="M-558-360V-17H-108V-360H-558Z" fill-rule="evenodd"/>
</clipPath>
<clipPath id="clip_267">
<path transform="matrix(2.7879079,0,0,2.7854496,-10.195414,-1045.351)" d="M115.5 411.941H563V754.5H115.5Z"/>
</clipPath>
<clipPath id="clip_268">
<path transform="matrix(2.7879079,0,0,2.7854496,-10.195414,-1045.351)" d="M115.5 411.941H563V754.5H115.5Z"/>
</clipPath>
<clipPath id="clip_269">
<path transform="matrix(2.7777777,0,0,-2.7777777,.0010172222,2200.0028)" d="M0 0H612V792H0Z"/>
</clipPath>
<clipPath id="clip_270">
<path transform="matrix(2.7777777,0,0,2.7777777,1861.8065,1102.0862)" d="M-558-360V-17H-108V-360H-558Z" fill-rule="evenodd"/>
</clipPath>
<clipPath id="clip_271">
<path transform="matrix(2.7879079,0,0,2.7854496,-10.195414,-1045.3513)" d="M115.5 411.941H563V754.5H115.5Z"/>
</clipPath>
<clipPath id="clip_272">
<path transform="matrix(2.7879079,0,0,2.7854496,-10.195414,-1045.3513)" d="M115.5 411.941H563V754.5H115.5Z"/>
</clipPath>
<clipPath id="clip_273">
<path transform="matrix(2.7777777,0,0,-2.7777777,.000975,2200.0023)" d="M0 0H612V792H0Z"/>
</clipPath>
<clipPath id="clip_274">
<path transform="matrix(2.7777777,0,0,2.7777777,1861.8065,1102.0857)" d="M-558-360V-17H-108V-360H-558Z" fill-rule="evenodd"/>
</clipPath>
<clipPath id="clip_275">
<path transform="matrix(2.7879079,0,0,2.7854496,-10.195414,-1045.3518)" d="M115.5 411.941H563V754.5H115.5Z"/>
</clipPath>
<clipPath id="clip_276">
<path transform="matrix(2.7879079,0,0,2.7854496,-10.195414,-1045.3518)" d="M115.5 411.941H563V754.5H115.5Z"/>
</clipPath>
<clipPath id="clip_277">
<path transform="matrix(2.7777777,0,0,-2.7777777,.0010172222,2200.0023)" d="M0 0H612V792H0Z"/>
</clipPath>
<clipPath id="clip_278">
<path transform="matrix(2.7777777,0,0,2.7777777,1861.8065,1102.0857)" d="M-558-360V-17H-108V-360H-558Z" fill-rule="evenodd"/>
</clipPath>
<clipPath id="clip_279">
<path transform="matrix(2.7879079,0,0,2.7854496,-10.195414,-1045.3518)" d="M115.5 411.941H563V754.5H115.5Z"/>
</clipPath>
<clipPath id="clip_280">
<path transform="matrix(2.7879079,0,0,2.7854496,-10.195414,-1045.3518)" d="M115.5 411.941H563V754.5H115.5Z"/>
</clipPath>
<clipPath id="clip_281">
<path transform="matrix(2.7777777,0,0,-2.7777777,.0010172222,2200.0023)" d="M0 0H612V792H0Z"/>
</clipPath>
<clipPath id="clip_282">
<path transform="matrix(2.7777777,0,0,2.7777777,1861.8065,1102.0857)" d="M-558-360V-17H-108V-360H-558Z" fill-rule="evenodd"/>
</clipPath>
<clipPath id="clip_283">
<path transform="matrix(2.7879079,0,0,2.7854496,-10.195414,-1045.3518)" d="M115.5 411.941H563V754.5H115.5Z"/>
</clipPath>
<clipPath id="clip_284">
<path transform="matrix(2.7879079,0,0,2.7854496,-10.195414,-1045.3518)" d="M115.5 411.941H563V754.5H115.5Z"/>
</clipPath>
<clipPath id="clip_285">
<path transform="matrix(2.7777777,0,0,-2.7777777,.0010172222,2200.0023)" d="M0 0H612V792H0Z"/>
</clipPath>
<clipPath id="clip_286">
<path transform="matrix(2.7777777,0,0,2.7777777,1861.8065,1102.0857)" d="M-558-360V-17H-108V-360H-558Z" fill-rule="evenodd"/>
</clipPath>
<clipPath id="clip_287">
<path transform="matrix(2.7879079,0,0,2.7854496,-10.195414,-1045.3518)" d="M115.5 411.941H563V754.5H115.5Z"/>
</clipPath>
<clipPath id="clip_288">
<path transform="matrix(2.7879079,0,0,2.7854496,-10.195414,-1045.3518)" d="M115.5 411.941H563V754.5H115.5Z"/>
</clipPath>
<clipPath id="clip_289">
<path transform="matrix(2.7777777,0,0,-2.7777777,.000975,2200.0023)" d="M0 0H612V792H0Z"/>
</clipPath>
<clipPath id="clip_290">
<path transform="matrix(2.7777777,0,0,2.7777777,1861.8065,1102.0857)" d="M-558-360V-17H-108V-360H-558Z" fill-rule="evenodd"/>
</clipPath>
<clipPath id="clip_291">
<path transform="matrix(2.7879079,0,0,2.7854496,-10.195414,-1045.3518)" d="M115.5 411.941H563V754.5H115.5Z"/>
</clipPath>
<clipPath id="clip_292">
<path transform="matrix(2.7879079,0,0,2.7854496,-10.195414,-1045.3518)" d="M115.5 411.941H563V754.5H115.5Z"/>
</clipPath>
<clipPath id="clip_293">
<path transform="matrix(2.7777777,0,0,-2.7777777,.000975,2200.0023)" d="M0 0H612V792H0Z"/>
</clipPath>
<clipPath id="clip_294">
<path transform="matrix(2.7777777,0,0,2.7777777,1861.8065,1102.0857)" d="M-558-360V-17H-108V-360H-558Z" fill-rule="evenodd"/>
</clipPath>
<clipPath id="clip_295">
<path transform="matrix(2.7879079,0,0,2.7854496,-10.195414,-1045.3518)" d="M115.5 411.941H563V754.5H115.5Z"/>
</clipPath>
<clipPath id="clip_296">
<path transform="matrix(2.7879079,0,0,2.7854496,-10.195414,-1045.3518)" d="M115.5 411.941H563V754.5H115.5Z"/>
</clipPath>
<clipPath id="clip_297">
<path transform="matrix(2.7777777,0,0,-2.7777777,.000975,2200.0023)" d="M0 0H612V792H0Z"/>
</clipPath>
<clipPath id="clip_298">
<path transform="matrix(2.7777777,0,0,2.7777777,1861.8065,1102.0857)" d="M-558-360V-17H-108V-360H-558Z" fill-rule="evenodd"/>
</clipPath>
<clipPath id="clip_299">
<path transform="matrix(2.7879079,0,0,2.7854496,-10.195414,-1045.3518)" d="M115.5 411.941H563V754.5H115.5Z"/>
</clipPath>
<clipPath id="clip_300">
<path transform="matrix(2.7879079,0,0,2.7854496,-10.195414,-1045.3518)" d="M115.5 411.941H563V754.5H115.5Z"/>
</clipPath>
<clipPath id="clip_301">
<path transform="matrix(2.7777777,0,0,-2.7777777,.000975,2200.0023)" d="M0 0H612V792H0Z"/>
</clipPath>
<clipPath id="clip_302">
<path transform="matrix(2.7777777,0,0,2.7777777,1861.8065,1102.0857)" d="M-558-360V-17H-108V-360H-558Z" fill-rule="evenodd"/>
</clipPath>
<clipPath id="clip_303">
<path transform="matrix(2.7879079,0,0,2.7854496,-10.195414,-1045.3518)" d="M115.5 411.941H563V754.5H115.5Z"/>
</clipPath>
<clipPath id="clip_304">
<path transform="matrix(2.7879079,0,0,2.7854496,-10.195414,-1045.3518)" d="M115.5 411.941H563V754.5H115.5Z"/>
</clipPath>
<clipPath id="clip_305">
<path transform="matrix(2.7777777,0,0,-2.7777777,.0010172222,2200.0032)" d="M0 0H612V792H0Z"/>
</clipPath>
<clipPath id="clip_306">
<path transform="matrix(2.7777777,0,0,2.7777777,1861.8065,1102.0866)" d="M-558-360V-17H-108V-360H-558Z" fill-rule="evenodd"/>
</clipPath>
<clipPath id="clip_307">
<path transform="matrix(2.7879079,0,0,2.7854496,-10.195414,-1045.351)" d="M115.5 411.941H563V754.5H115.5Z"/>
</clipPath>
<clipPath id="clip_308">
<path transform="matrix(2.7879079,0,0,2.7854496,-10.195414,-1045.351)" d="M115.5 411.941H563V754.5H115.5Z"/>
</clipPath>
<clipPath id="clip_309">
<path transform="matrix(2.7777777,0,0,-2.7777777,.000975,2200.003)" d="M0 0H612V792H0Z"/>
</clipPath>
<clipPath id="clip_310">
<path transform="matrix(2.7777777,0,0,2.7777777,1861.8065,1102.0863)" d="M-558-360V-17H-108V-360H-558Z" fill-rule="evenodd"/>
</clipPath>
<clipPath id="clip_311">
<path transform="matrix(2.7879079,0,0,2.7854496,-10.195414,-1045.3511)" d="M115.5 411.941H563V754.5H115.5Z"/>
</clipPath>
<clipPath id="clip_312">
<path transform="matrix(2.7879079,0,0,2.7854496,-10.195414,-1045.3511)" d="M115.5 411.941H563V754.5H115.5Z"/>
</clipPath>
<clipPath id="clip_313">
<path transform="matrix(2.7777777,0,0,-2.7777777,.0008052777,2200.0025)" d="M0 0H612V792H0Z"/>
</clipPath>
<clipPath id="clip_314">
<path transform="matrix(2.7777777,0,0,2.7777777,1861.8063,1102.0858)" d="M-558-360V-17H-108V-360H-558Z" fill-rule="evenodd"/>
</clipPath>
<clipPath id="clip_315">
<path transform="matrix(2.7879079,0,0,2.7854496,-10.195583,-1045.3517)" d="M115.5 411.941H563V754.5H115.5Z"/>
</clipPath>
<clipPath id="clip_316">
<path transform="matrix(2.7879079,0,0,2.7854496,-10.195583,-1045.3517)" d="M115.5 411.941H563V754.5H115.5Z"/>
</clipPath>
<clipPath id="clip_317">
<path transform="matrix(2.7777777,0,0,-2.7777777,.0010597222,2200.0023)" d="M0 0H612V792H0Z"/>
</clipPath>
<clipPath id="clip_318">
<path transform="matrix(2.7777777,0,0,2.7777777,1861.8065,1102.0857)" d="M-558-360V-17H-108V-360H-558Z" fill-rule="evenodd"/>
</clipPath>
<clipPath id="clip_319">
<path transform="matrix(2.7879079,0,0,2.7854496,-10.195414,-1045.3518)" d="M115.5 411.941H563V754.5H115.5Z"/>
</clipPath>
<clipPath id="clip_320">
<path transform="matrix(2.7879079,0,0,2.7854496,-10.195414,-1045.3518)" d="M115.5 411.941H563V754.5H115.5Z"/>
</clipPath>
<clipPath id="clip_321">
<path transform="matrix(2.7777777,0,0,-2.7777777,.00084777778,2200.0023)" d="M0 0H612V792H0Z"/>
</clipPath>
<clipPath id="clip_322">
<path transform="matrix(2.7777777,0,0,2.7777777,1861.8063,1102.0857)" d="M-558-360V-17H-108V-360H-558Z" fill-rule="evenodd"/>
</clipPath>
<clipPath id="clip_323">
<path transform="matrix(2.7879079,0,0,2.7854496,-10.195583,-1045.3518)" d="M115.5 411.941H563V754.5H115.5Z"/>
</clipPath>
<clipPath id="clip_324">
<path transform="matrix(2.7879079,0,0,2.7854496,-10.195583,-1045.3518)" d="M115.5 411.941H563V754.5H115.5Z"/>
</clipPath>
<clipPath id="clip_325">
<path transform="matrix(2.7777777,0,0,-2.7777777,.0010597222,2200.0023)" d="M0 0H612V792H0Z"/>
</clipPath>
<clipPath id="clip_326">
<path transform="matrix(2.7777777,0,0,2.7777777,1861.8065,1102.0857)" d="M-558-360V-17H-108V-360H-558Z" fill-rule="evenodd"/>
</clipPath>
<clipPath id="clip_327">
<path transform="matrix(2.7879079,0,0,2.7854496,-10.195414,-1045.3518)" d="M115.5 411.941H563V754.5H115.5Z"/>
</clipPath>
<clipPath id="clip_328">
<path transform="matrix(2.7879079,0,0,2.7854496,-10.195414,-1045.3518)" d="M115.5 411.941H563V754.5H115.5Z"/>
</clipPath>
</defs>
<g clip-path="url(#clip_1)">
<g clip-path="url(#clip_2)">
<g clip-path="url(#clip_3)">
<g clip-path="url(#clip_4)">
<path transform="matrix(2.7879503,0,0,2.785407,404.89704,1018.0164)" d="M0 0C-2.428 0-4.396-.455-4.396-1.015-4.396-1.575-2.428-2.029 0-2.029 2.428-2.029 4.396-1.575 4.396-1.015 4.396-.455 2.428 0 0 0Z" fill="#939393"/>
</g>
</g>
</g>
</g>
<g clip-path="url(#clip_5)">
<g clip-path="url(#clip_6)">
<g clip-path="url(#clip_7)">
<g clip-path="url(#clip_8)">
<path transform="matrix(2.7879503,0,0,2.785407,404.89704,1018.0164)" stroke-width=".2" stroke-linecap="butt" stroke-linejoin="round" fill="none" stroke="#000000" d="M0 0C-2.428 0-4.396-.455-4.396-1.015-4.396-1.575-2.428-2.029 0-2.029 2.428-2.029 4.396-1.575 4.396-1.015 4.396-.455 2.428 0 0 0Z"/>
</g>
</g>
</g>
</g>
<g clip-path="url(#clip_9)">
<g clip-path="url(#clip_10)">
<g clip-path="url(#clip_11)">
<g clip-path="url(#clip_12)">
<path transform="matrix(2.7879503,0,0,2.785407,404.89704,1033.864)" d="M0 0C-2.428 0-4.396-.455-4.396-1.015-4.396-1.575-2.428-2.029 0-2.029 2.428-2.029 4.396-1.575 4.396-1.015 4.396-.455 2.428 0 0 0Z" fill="#939393"/>
</g>
</g>
</g>
</g>
<g clip-path="url(#clip_13)">
<g clip-path="url(#clip_14)">
<g clip-path="url(#clip_15)">
<g clip-path="url(#clip_16)">
<path transform="matrix(2.7879503,0,0,2.785407,404.89704,1033.864)" stroke-width=".2" stroke-linecap="butt" stroke-linejoin="round" fill="none" stroke="#000000" d="M0 0C-2.428 0-4.396-.455-4.396-1.015-4.396-1.575-2.428-2.029 0-2.029 2.428-2.029 4.396-1.575 4.396-1.015 4.396-.455 2.428 0 0 0Z"/>
</g>
</g>
</g>
</g>
<g clip-path="url(#clip_17)">
<g clip-path="url(#clip_18)">
<g clip-path="url(#clip_19)">
<g clip-path="url(#clip_20)">
<path transform="matrix(2.7879503,0,0,2.785407,417.06309,1031.0377)" d="M0 0C0 .56-1.968 1.015-4.396 1.015-6.824 1.015-8.792 .56-8.792 0V-5.689C-8.792-5.129-6.824-4.675-4.396-4.675-1.968-4.675 0-5.129 0-5.689V0Z" fill="#939393"/>
</g>
</g>
</g>
</g>
<g clip-path="url(#clip_21)">
<g clip-path="url(#clip_22)">
<g clip-path="url(#clip_23)">
<g clip-path="url(#clip_24)">
<path transform="matrix(2.7879503,0,0,2.785407,417.06309,1031.0377)" stroke-width=".2" stroke-linecap="butt" stroke-linejoin="round" fill="none" stroke="#000000" d="M0 0C0 .56-1.968 1.015-4.396 1.015-6.824 1.015-8.792 .56-8.792 0V-5.689C-8.792-5.129-6.824-4.675-4.396-4.675-1.968-4.675 0-5.129 0-5.689V0Z"/>
</g>
</g>
</g>
</g>
<g clip-path="url(#clip_25)">
<g clip-path="url(#clip_26)">
<g clip-path="url(#clip_27)">
<g clip-path="url(#clip_28)">
<path transform="matrix(2.7879503,0,0,2.785407,865.5887,1018.0164)" d="M0 0C2.428 0 4.396-.455 4.396-1.015 4.396-1.575 2.428-2.029 0-2.029-2.429-2.029-4.396-1.575-4.396-1.015-4.396-.455-2.429 0 0 0Z" fill="#939393"/>
</g>
</g>
</g>
</g>
<g clip-path="url(#clip_29)">
<g clip-path="url(#clip_30)">
<g clip-path="url(#clip_31)">
<g clip-path="url(#clip_32)">
<path transform="matrix(2.7879503,0,0,2.785407,865.5887,1018.0164)" stroke-width=".2" stroke-linecap="butt" stroke-linejoin="round" fill="none" stroke="#000000" d="M0 0C2.428 0 4.396-.455 4.396-1.015 4.396-1.575 2.428-2.029 0-2.029-2.429-2.029-4.396-1.575-4.396-1.015-4.396-.455-2.429 0 0 0Z"/>
</g>
</g>
</g>
</g>
<g clip-path="url(#clip_33)">
<g clip-path="url(#clip_34)">
<g clip-path="url(#clip_35)">
<g clip-path="url(#clip_36)">
<path transform="matrix(2.7879503,0,0,2.785407,865.5887,1033.864)" stroke-width=".2" stroke-linecap="butt" stroke-linejoin="round" fill="none" stroke="#000000" d="M0 0C2.428 0 4.396-.455 4.396-1.015 4.396-1.575 2.428-2.029 0-2.029-2.429-2.029-4.396-1.575-4.396-1.015-4.396-.455-2.429 0 0 0Z"/>
</g>
</g>
</g>
</g>
<g clip-path="url(#clip_37)">
<g clip-path="url(#clip_38)">
<g clip-path="url(#clip_39)">
<g clip-path="url(#clip_40)">
<path transform="matrix(2.7879503,0,0,2.785407,853.4213,1031.0377)" stroke-width=".2" stroke-linecap="butt" stroke-linejoin="round" fill="none" stroke="#000000" d="M0 0C0 .56 1.968 1.015 4.396 1.015 6.824 1.015 8.793 .56 8.793 0V-5.689C8.793-5.129 6.824-4.675 4.396-4.675 1.968-4.675 0-5.129 0-5.689V0Z"/>
</g>
</g>
</g>
</g>
<g clip-path="url(#clip_41)">
<g clip-path="url(#clip_42)">
<g clip-path="url(#clip_43)">
<g clip-path="url(#clip_44)">
<path transform="matrix(2.7879503,0,0,2.785407,883.5876,1021.1854)" stroke-width=".2" stroke-linecap="butt" stroke-linejoin="round" fill="none" stroke="#000000" d="M0 0V-13.392H-178.157V0C-139.655-4.783-37.544-2.87 0 0Z"/>
</g>
</g>
</g>
</g>
<g clip-path="url(#clip_45)">
<g clip-path="url(#clip_46)">
<g clip-path="url(#clip_47)">
<g clip-path="url(#clip_48)">
<path transform="matrix(2.7879503,0,0,2.785407,863.58999,927.9315)" stroke-width=".2" stroke-linecap="butt" stroke-linejoin="round" fill="none" stroke="#000000" d="M0 0 7.173 20.087H-170.984L-163.81 0H0Z"/>
</g>
</g>
</g>
</g>
<g clip-path="url(#clip_49)">
<g clip-path="url(#clip_50)">
<g clip-path="url(#clip_51)">
<g clip-path="url(#clip_52)">
<path transform="matrix(2.7879503,0,0,2.785407,402.89585,832.0146)" stroke-width=".2" stroke-linecap="butt" stroke-linejoin="round" fill="none" stroke="#000000" d="M0 0V45.675H20.805V16.979L0 0Z"/>
</g>
</g>
</g>
</g>
<g clip-path="url(#clip_53)">
<g clip-path="url(#clip_54)">
<g clip-path="url(#clip_55)">
<g clip-path="url(#clip_56)">
<path transform="matrix(2.7879503,0,0,2.785407,399.1291,837.29849)" stroke-width=".2" stroke-linecap="butt" stroke-linejoin="round" fill="none" stroke="#000000" d="M0 0 .314 1.478-.593 .699-3.674 4.41 17.062 21.627 20.104 17.949 19.809 16.448 18.877 15.674 19.172 17.137 18.229 16.354 17.931 14.888 16.984 14.102 17.287 15.571 16.344 14.788 16.037 13.316 15.121 12.556 15.401 14.005 14.458 13.222 14.174 11.77 13.212 10.971 13.515 12.439 12.572 11.656 12.266 10.185 11.334 9.411 11.629 10.873 10.686 10.09 10.403 8.638 9.456 7.852 9.743 9.307 8.8 8.524 8.448 7.015 7.578 6.292 7.857 7.742 6.915 6.958 6.616 5.493 5.685 4.72 5.971 6.176 5.028 5.393 4.722 3.921 3.806 3.161 4.085 4.61 3.143 3.827 2.844 2.362 1.913 1.588 2.2 3.044 1.257 2.261 .966 .802 0 0Z"/>
</g>
</g>
</g>
</g>
<g clip-path="url(#clip_57)">
<g clip-path="url(#clip_58)">
<g clip-path="url(#clip_59)">
<g clip-path="url(#clip_60)">
<path transform="matrix(2.7879503,0,0,2.785407,872.0331,974.55868)" stroke-width=".2" stroke-linecap="butt" stroke-linejoin="round" fill="none" stroke="#000000" d="M0 0V-3.109H-30.609V0H0Z"/>
</g>
</g>
</g>
</g>
<g clip-path="url(#clip_61)">
<g clip-path="url(#clip_62)">
<g clip-path="url(#clip_63)">
<g clip-path="url(#clip_64)">
<path transform="matrix(2.7879503,0,0,2.785407,872.0331,965.8991)" stroke-width=".2" stroke-linecap="butt" stroke-linejoin="round" fill="none" stroke="#000000" d="M0 0V-5.251H-30.609V0H0Z"/>
</g>
</g>
</g>
</g>
<g clip-path="url(#clip_65)">
<g clip-path="url(#clip_66)">
<g clip-path="url(#clip_67)">
<g clip-path="url(#clip_68)">
<path transform="matrix(2.7879503,0,0,2.785407,928.2579,956.3514)" stroke-width=".2" stroke-linecap="butt" stroke-linejoin="round" fill="none" stroke="#000000" d="M0 0C2.87 3.348 4.703 6.218 5.102 8.769 5.5 11.319 6.059 12.515 7.732 12.754 9.406 12.993 10.044 12.595 10.603 11.638 11.181 10.645 11.16 9.486 11.239 7.652V0H0Z"/>
</g>
</g>
</g>
</g>
<g clip-path="url(#clip_69)">
<g clip-path="url(#clip_70)">
<g clip-path="url(#clip_71)">
<g clip-path="url(#clip_72)">
<path transform="matrix(2.7879503,0,0,2.785407,1034.0421,919.4951)" stroke-width=".2" stroke-linecap="butt" stroke-linejoin="round" fill="none" stroke="#000000" d="M0 0V-11H-23.276V0H0Z"/>
</g>
</g>
</g>
</g>
<g clip-path="url(#clip_73)">
<g clip-path="url(#clip_74)">
<g clip-path="url(#clip_75)">
<g clip-path="url(#clip_76)">
<path transform="matrix(2.7879503,0,0,2.785407,1043.1548,923.491)" stroke-width=".2" stroke-linecap="butt" stroke-linejoin="round" fill="none" stroke="#000000" d="M0 0V-13.87H-3.349V0H0Z"/>
</g>
</g>
</g>
</g>
<g clip-path="url(#clip_77)">
<g clip-path="url(#clip_78)">
<g clip-path="url(#clip_79)">
<g clip-path="url(#clip_80)">
<path transform="matrix(2.7879503,0,0,2.785407,1117.9337,908.4487)" d="M0 0V-3.029H-26.783V0H0Z" fill="#ffffff"/>
</g>
</g>
</g>
</g>
<g clip-path="url(#clip_81)">
<g clip-path="url(#clip_82)">
<g clip-path="url(#clip_83)">
<g clip-path="url(#clip_84)">
<path transform="matrix(2.7879503,0,0,2.785407,1117.9337,908.4487)" stroke-width=".2" stroke-linecap="butt" stroke-linejoin="round" fill="none" stroke="#000000" d="M0 0V-3.029H-26.783V0H0Z"/>
</g>
</g>
</g>
</g>
<g clip-path="url(#clip_85)">
<g clip-path="url(#clip_86)">
<g clip-path="url(#clip_87)">
<g clip-path="url(#clip_88)">
<path transform="matrix(2.7879503,0,0,2.785407,969.12149,908.4487)" d="M0 0V-3.029H-13.302V0H0Z" fill="#ffffff"/>
</g>
</g>
</g>
</g>
<g clip-path="url(#clip_89)">
<g clip-path="url(#clip_90)">
<g clip-path="url(#clip_91)">
<g clip-path="url(#clip_92)">
<path transform="matrix(2.7879503,0,0,2.785407,969.12149,908.4487)" stroke-width=".2" stroke-linecap="butt" stroke-linejoin="round" fill="none" stroke="#000000" d="M0 0V-3.029H-13.302V0H0Z"/>
</g>
</g>
</g>
</g>
<g clip-path="url(#clip_93)">
<g clip-path="url(#clip_94)">
<g clip-path="url(#clip_95)">
<g clip-path="url(#clip_96)">
<path transform="matrix(2.7879503,0,0,2.785407,873.5331,909.115)" d="M0 0V-3.029H-20.087V0H0Z" fill="#ffffff"/>
</g>
</g>
</g>
</g>
<g clip-path="url(#clip_97)">
<g clip-path="url(#clip_98)">
<g clip-path="url(#clip_99)">
<g clip-path="url(#clip_100)">
<path transform="matrix(2.7879503,0,0,2.785407,873.5331,909.115)" stroke-width=".2" stroke-linecap="butt" stroke-linejoin="round" fill="none" stroke="#000000" d="M0 0V-3.029H-20.087V0H0Z"/>
</g>
</g>
</g>
</g>
<g clip-path="url(#clip_101)">
<g clip-path="url(#clip_102)">
<g clip-path="url(#clip_103)">
<g clip-path="url(#clip_104)">
<path transform="matrix(2.7879503,0,0,2.785407,788.2229,908.4487)" stroke-width=".2" stroke-linecap="butt" stroke-linejoin="round" fill="none" stroke="#000000" d="M0 0V-3.029H-1.594V0H0Z"/>
</g>
</g>
</g>
</g>
<g clip-path="url(#clip_105)">
<g clip-path="url(#clip_106)">
<g clip-path="url(#clip_107)">
<g clip-path="url(#clip_108)">
<path transform="matrix(2.7879503,0,0,2.785407,1058.9321,917.1083)" stroke-width=".2" stroke-linecap="butt" stroke-linejoin="round" fill="none" stroke="#000000" d="M0 0V-9.247H-2.87V0H0Z"/>
</g>
</g>
</g>
</g>
<g clip-path="url(#clip_109)">
<g clip-path="url(#clip_110)">
<g clip-path="url(#clip_111)">
<g clip-path="url(#clip_112)">
<path transform="matrix(2.7879503,0,0,2.785407,901.5626,910.89126)" stroke-width=".2" stroke-linecap="butt" stroke-linejoin="round" fill="none" stroke="#000000" d="M0 0V-4.624H10.95V0H0Z"/>
</g>
</g>
</g>
</g>
<g clip-path="url(#clip_113)">
<g clip-path="url(#clip_114)">
<g clip-path="url(#clip_115)">
<g clip-path="url(#clip_116)">
<path transform="matrix(2.7879503,0,0,2.785407,897.59048,914.4438)" d="M0 0V-7.174H1.364V0H0Z" fill="#eaeaea"/>
</g>
</g>
</g>
</g>
<g clip-path="url(#clip_117)">
<g clip-path="url(#clip_118)">
<g clip-path="url(#clip_119)">
<g clip-path="url(#clip_120)">
<path transform="matrix(2.7879503,0,0,2.785407,897.59048,914.4438)" stroke-width=".2" stroke-linecap="butt" stroke-linejoin="round" fill="none" stroke="#000000" d="M0 0V-7.174H1.364V0H0Z"/>
</g>
</g>
</g>
</g>
<g clip-path="url(#clip_121)">
<g clip-path="url(#clip_122)">
<g clip-path="url(#clip_123)">
<g clip-path="url(#clip_124)">
<path transform="matrix(2.7879503,0,0,2.785407,881.6712,918.5511)" d="M0 0V-10.213H1.017V0H0Z" fill="#eaeaea"/>
</g>
</g>
</g>
</g>
<g clip-path="url(#clip_125)">
<g clip-path="url(#clip_126)">
<g clip-path="url(#clip_127)">
<g clip-path="url(#clip_128)">
<path transform="matrix(2.7879503,0,0,2.785407,881.6712,918.5511)" stroke-width=".2" stroke-linecap="butt" stroke-linejoin="round" fill="none" stroke="#000000" d="M0 0V-10.213H1.017V0H0Z"/>
</g>
</g>
</g>
</g>
<g clip-path="url(#clip_129)">
<g clip-path="url(#clip_130)">
<g clip-path="url(#clip_131)">
<g clip-path="url(#clip_132)">
<path transform="matrix(2.7879503,0,0,2.785407,884.50546,914.4438)" stroke-width=".2" stroke-linecap="butt" stroke-linejoin="round" fill="none" stroke="#000000" d="M0 0V-7.174H4.634V0H0Z"/>
</g>
</g>
</g>
</g>
<g clip-path="url(#clip_133)">
<g clip-path="url(#clip_134)">
<g clip-path="url(#clip_135)">
<g clip-path="url(#clip_136)">
<path transform="matrix(2.7879503,0,0,2.785407,881.42056,914.91586)" d="M0 0V-7.334H-2.859V0H0Z" fill="#939393"/>
</g>
</g>
</g>
</g>
<g clip-path="url(#clip_137)">
<g clip-path="url(#clip_138)">
<g clip-path="url(#clip_139)">
<g clip-path="url(#clip_140)">
<path transform="matrix(2.7879503,0,0,2.785407,881.42056,914.91586)" stroke-width=".2" stroke-linecap="butt" stroke-linejoin="round" fill="none" stroke="#000000" d="M0 0V-7.334H-2.859V0H0Z"/>
</g>
</g>
</g>
</g>
<g clip-path="url(#clip_141)">
<g clip-path="url(#clip_142)">
<g clip-path="url(#clip_143)">
<g clip-path="url(#clip_144)">
<path transform="matrix(2.7879503,0,0,2.785407,771.0269,917.71359)" d="M0 0C2.74 0 4.96-2.221 4.96-4.96 4.96-7.7 2.74-9.92 0-9.92-2.739-9.92-4.96-7.7-4.96-4.96-4.96-2.221-2.739 0 0 0Z" fill="#eaeaea"/>
</g>
</g>
</g>
</g>
<g clip-path="url(#clip_145)">
<g clip-path="url(#clip_146)">
<g clip-path="url(#clip_147)">
<g clip-path="url(#clip_148)">
<path transform="matrix(2.7879503,0,0,2.785407,771.0269,917.71359)" stroke-width=".2" stroke-linecap="butt" stroke-linejoin="round" fill="none" stroke="#000000" d="M0 0C2.74 0 4.96-2.221 4.96-4.96 4.96-7.7 2.74-9.92 0-9.92-2.739-9.92-4.96-7.7-4.96-4.96-4.96-2.221-2.739 0 0 0Z"/>
</g>
</g>
</g>
</g>
<g clip-path="url(#clip_149)">
<g clip-path="url(#clip_150)">
<g clip-path="url(#clip_151)">
<g clip-path="url(#clip_152)">
<path transform="matrix(2.7879503,0,0,2.785407,817.19699,914.8872)" stroke-width=".2" stroke-linecap="butt" stroke-linejoin="round" fill="none" stroke="#000000" d="M0 0V-7.892H-10.462V0H0Z"/>
</g>
</g>
</g>
</g>
<g clip-path="url(#clip_153)">
<g clip-path="url(#clip_154)">
<g clip-path="url(#clip_155)">
<g clip-path="url(#clip_156)">
<path transform="matrix(2.7879503,0,0,2.785407,1033.8759,930.1526)" stroke-width=".2" stroke-linecap="butt" stroke-linejoin="round" fill="none" stroke="#000000" d="M0 0V-3.826H-13.811V0H0Z"/>
</g>
</g>
</g>
</g>
<g clip-path="url(#clip_157)">
<g clip-path="url(#clip_158)">
<g clip-path="url(#clip_159)">
<g clip-path="url(#clip_160)">
<path transform="matrix(2.7879503,0,0,2.785407,1024.2654,934.59317)" d="M0 0V-1.594H-3.189V0H0Z" fill="#cbcbcb"/>
</g>
</g>
</g>
</g>
<g clip-path="url(#clip_161)">
<g clip-path="url(#clip_162)">
<g clip-path="url(#clip_163)">
<g clip-path="url(#clip_164)">
<path transform="matrix(2.7879503,0,0,2.785407,1024.2654,934.59317)" stroke-width=".2" stroke-linecap="butt" stroke-linejoin="round" fill="none" stroke="#000000" d="M0 0V-1.594H-3.189V0H0Z"/>
</g>
</g>
</g>
</g>
<g clip-path="url(#clip_165)">
<g clip-path="url(#clip_166)">
<g clip-path="url(#clip_167)">
<g clip-path="url(#clip_168)">
<path transform="matrix(2.7879503,0,0,2.785407,969.1485,919.4951)" stroke-width=".2" stroke-linecap="butt" stroke-linejoin="round" fill="none" stroke="#000000" d="M0 0C0 0 0-1.435 0 0 0 1.435 .16 2.391-2.55 2.391H-15.623C-17.855 2.391-17.696 2.072-18.652 1.275-19.609 .478-19.609-.957-21.521-.957-23.436-.957-22.957-.319-23.595 .478-24.232 1.275-24.392 1.913-26.305 1.913H-52.769C-54.364 1.913-55.161 1.913-55.161 .318V-1.594H-64.407V13.71H-6.217C-4.305 13.71-2.231 13.232-1.594 16.42L1.436 28.537C2.392 31.406 2.711 31.088 5.262 30.769L11.319 29.334C14.029 28.696 14.189 27.899 13.87 25.349L10.682 8.609C10.204 7.174 10.522 5.739 11.638 5.102L17.059 0H0Z"/>
</g>
</g>
</g>
</g>
<g clip-path="url(#clip_169)">
<g clip-path="url(#clip_170)">
<g clip-path="url(#clip_171)">
<g clip-path="url(#clip_172)">
<path transform="matrix(2.7879503,0,0,2.785407,802.47317,958.27328)" d="M0 0C1.059 0 1.917-.202 1.917-.451 1.917-.7 1.059-.901 0-.901-1.058-.901-1.916-.7-1.916-.451-1.916-.202-1.058 0 0 0Z" fill="#939393"/>
</g>
</g>
</g>
</g>
<g clip-path="url(#clip_173)">
<g clip-path="url(#clip_174)">
<g clip-path="url(#clip_175)">
<g clip-path="url(#clip_176)">
<path transform="matrix(2.7879503,0,0,2.785407,802.47317,958.27328)" stroke-width=".2" stroke-linecap="butt" stroke-linejoin="round" fill="none" stroke="#000000" d="M0 0C1.059 0 1.917-.202 1.917-.451 1.917-.7 1.059-.901 0-.901-1.058-.901-1.916-.7-1.916-.451-1.916-.202-1.058 0 0 0Z"/>
</g>
</g>
</g>
</g>
<g clip-path="url(#clip_177)">
<g clip-path="url(#clip_178)">
<g clip-path="url(#clip_179)">
<g clip-path="url(#clip_180)">
<path transform="matrix(2.7879503,0,0,2.785407,797.03866,957.0178)" stroke-width=".2" stroke-linecap="butt" stroke-linejoin="round" fill="none" stroke="#000000" d="M0 0C0 .249 .858 .451 1.916 .451 2.975 .451 3.833 .249 3.833 0V2.122C3.833 2.372 2.975 2.573 1.916 2.573 .858 2.573 0 2.372 0 2.122V0Z"/>
</g>
</g>
</g>
</g>
<g clip-path="url(#clip_181)">
<g clip-path="url(#clip_182)">
<g clip-path="url(#clip_183)">
<g clip-path="url(#clip_184)">
<path transform="matrix(2.7879503,0,0,2.785407,910.923,929.0931)" stroke-width=".2" stroke-linecap="butt" stroke-linejoin="round" fill="none" stroke="#000000" d="M0 0C.561 0 1.016-.455 1.016-1.015 1.016-1.575 .561-2.029 0-2.029-.561-2.029-1.015-1.575-1.015-1.015-1.015-.455-.561 0 0 0Z"/>
</g>
</g>
</g>
</g>
<g clip-path="url(#clip_185)">
<g clip-path="url(#clip_186)">
<g clip-path="url(#clip_187)">
<g clip-path="url(#clip_188)">
<path transform="matrix(2.7879503,0,0,2.785407,989.5954,974.55868)" stroke-width=".2" stroke-linecap="butt" stroke-linejoin="round" fill="none" stroke="#000000" d="M0 0C.561 0 1.015-.455 1.015-1.015 1.015-1.575 .561-2.029 0-2.029-.561-2.029-1.015-1.575-1.015-1.015-1.015-.455-.561 0 0 0Z"/>
</g>
</g>
</g>
</g>
<g clip-path="url(#clip_189)">
<g clip-path="url(#clip_190)">
<g clip-path="url(#clip_191)">
<g clip-path="url(#clip_192)">
<path transform="matrix(2.7879503,0,0,2.785407,932.77468,909.20077)" stroke-width=".2" stroke-linecap="butt" stroke-linejoin="round" fill="none" stroke="#000000" d="M0 0-.002-.3"/>
</g>
</g>
</g>
</g>
<g clip-path="url(#clip_193)">
<g clip-path="url(#clip_194)">
<g clip-path="url(#clip_195)">
<g clip-path="url(#clip_196)">
<path transform="matrix(2.7879503,0,0,2.785407,932.74728,900.0354)" stroke-width=".2" stroke-linecap="butt" stroke-linejoin="round" fill="none" stroke="#000000" d="M0 0-.001-.263C-.001-.48 .228-.661 .525-.661 .82-.661 1.067-.48 1.067-.263L1.075 3.308C1.075 3.525 1.315 3.718 1.611 3.718 1.907 3.718 2.138 3.525 2.138 3.308L2.133 2.991"/>
</g>
</g>
</g>
</g>
<g clip-path="url(#clip_197)">
<g clip-path="url(#clip_198)">
<g clip-path="url(#clip_199)">
<g clip-path="url(#clip_200)">
<path transform="matrix(2.7879503,0,0,2.785407,938.64718,900.1033)" stroke-width=".2" stroke-linecap="butt" stroke-linejoin="round" fill="none" stroke="#000000" d="M0 0-.003-.287C-.003-.504 .221-.686 .517-.686 .812-.686 1.06-.504 1.06-.287L1.067 3.283C1.067 3.5 1.308 3.693 1.604 3.693 1.899 3.693 2.13 3.5 2.13 3.283L2.125 2.966"/>
</g>
</g>
</g>
</g>
<g clip-path="url(#clip_201)">
<g clip-path="url(#clip_202)">
<g clip-path="url(#clip_203)">
<g clip-path="url(#clip_204)">
<path transform="matrix(2.7879503,0,0,2.785407,944.52249,900.1033)" stroke-width=".2" stroke-linecap="butt" stroke-linejoin="round" fill="none" stroke="#000000" d="M0 0-.003-.287C-.003-.504 .221-.686 .517-.686 .813-.686 1.06-.504 1.06-.287L1.067 3.283C1.067 3.5 1.308 3.693 1.604 3.693 1.899 3.693 2.13 3.5 2.13 3.283L2.126 2.99"/>
</g>
</g>
</g>
</g>
<g clip-path="url(#clip_205)">
<g clip-path="url(#clip_206)">
<g clip-path="url(#clip_207)">
<g clip-path="url(#clip_208)">
<path transform="matrix(2.7879503,0,0,2.785407,950.4006,900.0354)" stroke-width=".2" stroke-linecap="butt" stroke-linejoin="round" fill="none" stroke="#000000" d="M0 0-.004-.263C-.004-.48 .221-.661 .517-.661 .813-.661 1.059-.48 1.059-.263L1.066 3.308C1.066 3.525 1.308 3.718 1.604 3.718 1.899 3.718 2.129 3.525 2.129 3.308L2.125 2.991"/>
</g>
</g>
</g>
</g>
<g clip-path="url(#clip_209)">
<g clip-path="url(#clip_210)">
<g clip-path="url(#clip_211)">
<g clip-path="url(#clip_212)">
<path transform="matrix(2.7879503,0,0,2.785407,956.2762,900.0354)" stroke-width=".2" stroke-linecap="butt" stroke-linejoin="round" fill="none" stroke="#000000" d="M0 0-.003-.263C-.003-.48 .221-.661 .517-.661 .812-.661 1.06-.48 1.06-.263L1.067 3.308C1.067 3.525 1.309 3.718 1.604 3.718 1.9 3.718 2.13 3.525 2.13 3.308L2.125 2.991"/>
</g>
</g>
</g>
</g>
<g clip-path="url(#clip_213)">
<g clip-path="url(#clip_214)">
<g clip-path="url(#clip_215)">
<g clip-path="url(#clip_216)">
<path transform="matrix(2.7879503,0,0,2.785407,962.1543,900.0354)" stroke-width=".2" stroke-linecap="butt" stroke-linejoin="round" fill="none" stroke="#000000" d="M0 0-.004-.263C-.004-.48 .221-.661 .517-.661 .812-.661 1.059-.48 1.059-.263L1.066 3.308C1.066 3.525 1.308 3.718 1.604 3.718 1.899 3.718 2.14 3.525 2.14 3.308L2.141 2.991"/>
</g>
</g>
</g>
</g>
<g clip-path="url(#clip_217)">
<g clip-path="url(#clip_218)">
<g clip-path="url(#clip_219)">
<g clip-path="url(#clip_220)">
<path transform="matrix(2.7879503,0,0,2.785407,968.1251,900.0354)" stroke-width=".2" stroke-linecap="butt" stroke-linejoin="round" fill="none" stroke="#000000" d="M0 0V-.258"/>
</g>
</g>
</g>
</g>
<g clip-path="url(#clip_221)">
<g clip-path="url(#clip_222)">
<g clip-path="url(#clip_223)">
<g clip-path="url(#clip_224)">
<path transform="matrix(2.7879503,0,0,2.785407,682.43716,557.5734)" stroke-width=".2" stroke-linecap="butt" stroke-dasharray="2,2" stroke-linejoin="round" fill="none" stroke="#000000" d="M0 0-2.288-1.985-76.92 84.042-74.632 86.027 0 0Z"/>
</g>
</g>
</g>
</g>
<g clip-path="url(#clip_225)">
<g clip-path="url(#clip_226)">
<g clip-path="url(#clip_227)">
<g clip-path="url(#clip_228)">
<path transform="matrix(2.7879503,0,0,2.785407,453.4057,842.5512)" stroke-width=".2" stroke-linecap="butt" stroke-dasharray="2,2" stroke-linejoin="round" fill="none" stroke="#000000" d="M0 0 8.697-10.025-1.328-18.722-10.025-8.697 0 0Z"/>
</g>
</g>
</g>
</g>
<g clip-path="url(#clip_229)">
<g clip-path="url(#clip_230)">
<g clip-path="url(#clip_231)">
<g clip-path="url(#clip_232)">
<path transform="matrix(2.7879503,0,0,2.785407,468.08457,806.33389)" stroke-width=".2" stroke-linecap="butt" stroke-dasharray="2,2" stroke-linejoin="round" fill="none" stroke="#000000" d="M0 0 2.664-3.071-.497-5.813-3.161-2.742 0 0Z"/>
</g>
</g>
</g>
</g>
<g clip-path="url(#clip_233)">
<g clip-path="url(#clip_234)">
<g clip-path="url(#clip_235)">
<g clip-path="url(#clip_236)">
<path transform="matrix(2.7879503,0,0,2.785407,426.57978,854.132)" stroke-width=".2" stroke-linecap="butt" stroke-dasharray="2,2" stroke-linejoin="round" fill="none" stroke="#000000" d="M0 0 6.19-7.135 3.029-9.877-3.161-2.742 0 0Z"/>
</g>
</g>
</g>
</g>
<g clip-path="url(#clip_237)">
<g clip-path="url(#clip_238)">
<g clip-path="url(#clip_239)">
<g clip-path="url(#clip_240)">
<path transform="matrix(2.7879503,0,0,2.785407,443.83717,834.2587)" stroke-width=".2" stroke-linecap="butt" stroke-dasharray="2,2" stroke-linejoin="round" fill="none" stroke="#000000" d="M0 0 8.697-10.025 5.536-12.768-3.161-2.743 0 0Z"/>
</g>
</g>
</g>
</g>
<g clip-path="url(#clip_241)">
<g clip-path="url(#clip_242)">
<g clip-path="url(#clip_243)">
<g clip-path="url(#clip_244)">
<path transform="matrix(2.7879503,0,0,2.785407,441.2901,873.2396)" d="M0 0 1.049-3.604-5.89-12.972-8.292-11.192 0 0Z" fill="#ffffff"/>
</g>
</g>
</g>
</g>
<g clip-path="url(#clip_245)">
<g clip-path="url(#clip_246)">
<g clip-path="url(#clip_247)">
<g clip-path="url(#clip_248)">
<path transform="matrix(2.7879503,0,0,2.785407,441.2901,873.2396)" stroke-width=".2" stroke-linecap="butt" stroke-dasharray="2,2" stroke-linejoin="round" fill="none" stroke="#000000" d="M0 0 1.049-3.604-5.89-12.972-8.292-11.192 0 0Z"/>
</g>
</g>
</g>
</g>
<g clip-path="url(#clip_249)">
<g clip-path="url(#clip_250)">
<g clip-path="url(#clip_251)">
<g clip-path="url(#clip_252)">
<path transform="matrix(2.7879503,0,0,2.785407,424.26829,846.92788)" d="M0 0C.317 .275 .798 .241 1.073-.076 1.349-.394 1.314-.875 .997-1.15 .68-1.425 .199-1.391-.076-1.074-.352-.756-.317-.275 0 0Z" fill="#cbcbcb"/>
</g>
</g>
</g>
</g>
<g clip-path="url(#clip_253)">
<g clip-path="url(#clip_254)">
<g clip-path="url(#clip_255)">
<g clip-path="url(#clip_256)">
<path transform="matrix(2.7879503,0,0,2.785407,424.26829,846.92788)" stroke-width=".2" stroke-linecap="butt" stroke-dasharray="2,2" stroke-linejoin="round" fill="none" stroke="#000000" d="M0 0C.317 .275 .798 .241 1.073-.076 1.349-.394 1.314-.875 .997-1.15 .68-1.425 .199-1.391-.076-1.074-.352-.756-.317-.275 0 0Z"/>
</g>
</g>
</g>
</g>
<g clip-path="url(#clip_257)">
<g clip-path="url(#clip_258)">
<g clip-path="url(#clip_259)">
<g clip-path="url(#clip_260)">
<path transform="matrix(2.7879503,0,0,2.785407,694.24508,933.2608)" stroke-width=".2" stroke-linecap="butt" stroke-linejoin="round" fill="none" stroke="#000000" d="M0 0V-166.2H-6.457V0H0Z"/>
</g>
</g>
</g>
</g>
<g clip-path="url(#clip_261)">
<g clip-path="url(#clip_262)">
<g clip-path="url(#clip_263)">
<g clip-path="url(#clip_264)">
<path transform="matrix(2.7879503,0,0,2.785407,702.91256,547.5923)" stroke-width=".2" stroke-linecap="butt" stroke-linejoin="round" fill="none" stroke="#000000" d="M0 0V-22.718H-12.196V0H0Z"/>
</g>
</g>
</g>
</g>
<g clip-path="url(#clip_265)">
<g clip-path="url(#clip_266)">
<g clip-path="url(#clip_267)">
<g clip-path="url(#clip_268)">
<path transform="matrix(2.7879503,0,0,2.785407,691.19729,527.4578)" stroke-width=".2" stroke-linecap="butt" stroke-linejoin="round" fill="none" stroke="#000000" d="M0 0-1.856-12.859-3.747 0-1.856-4.34 0 0Z"/>
</g>
</g>
</g>
</g>
<g clip-path="url(#clip_269)">
<g clip-path="url(#clip_270)">
<g clip-path="url(#clip_271)">
<g clip-path="url(#clip_272)">
<path transform="matrix(2.7879503,0,0,2.785407,689.6617,557.0568)" stroke-width=".2" stroke-linecap="butt" stroke-linejoin="round" fill="none" stroke="#000000" d="M0 0H-3.029V113.889H0V0Z"/>
</g>
</g>
</g>
</g>
<g clip-path="url(#clip_273)">
<g clip-path="url(#clip_274)">
<g clip-path="url(#clip_275)">
<g clip-path="url(#clip_276)">
<path transform="matrix(2.7879503,0,0,2.785407,703.5798,922.26968)" stroke-width=".2" stroke-linecap="butt" stroke-linejoin="round" fill="none" stroke="#000000" d="M0 0V-13.272H-13.272V0H0Z"/>
</g>
</g>
</g>
</g>
<g clip-path="url(#clip_277)">
<g clip-path="url(#clip_278)">
<g clip-path="url(#clip_279)">
<g clip-path="url(#clip_280)">
<path transform="matrix(2.7879503,0,0,2.785407,690.91128,885.3017)" stroke-width=".2" stroke-linecap="butt" stroke-linejoin="round" fill="none" stroke="#000000" d="M0 0V-4.065H-4.185V0H0Z"/>
</g>
</g>
</g>
</g>
<g clip-path="url(#clip_281)">
<g clip-path="url(#clip_282)">
<g clip-path="url(#clip_283)">
<g clip-path="url(#clip_284)">
<path transform="matrix(2.7879503,0,0,2.785407,690.91128,948.5801)" stroke-width=".2" stroke-linecap="butt" stroke-linejoin="round" fill="none" stroke="#000000" d="M0 0V-9.446H-4.185V0H0Z"/>
</g>
</g>
</g>
</g>
<g clip-path="url(#clip_285)">
<g clip-path="url(#clip_286)">
<g clip-path="url(#clip_287)">
<g clip-path="url(#clip_288)">
<path transform="matrix(2.7879503,0,0,2.785407,690.91128,922.26968)" stroke-width=".2" stroke-linecap="butt" stroke-linejoin="round" fill="none" stroke="#000000" d="M0 0V-13.272H-4.185V0H0Z"/>
</g>
</g>
</g>
</g>
<g clip-path="url(#clip_289)">
<g clip-path="url(#clip_290)">
<g clip-path="url(#clip_291)">
<g clip-path="url(#clip_292)">
<path transform="matrix(2.7879503,0,0,2.785407,703.7782,968.5567)" d="M0 0 .64-3.7-7.306-12.231-9.493-10.193 0 0Z" fill="#ffffff"/>
</g>
</g>
</g>
</g>
<g clip-path="url(#clip_293)">
<g clip-path="url(#clip_294)">
<g clip-path="url(#clip_295)">
<g clip-path="url(#clip_296)">
<path transform="matrix(2.7879503,0,0,2.785407,703.7782,968.5567)" stroke-width=".2" stroke-linecap="butt" stroke-linejoin="round" fill="none" stroke="#000000" d="M0 0 .64-3.7-7.306-12.231-9.493-10.193 0 0Z"/>
</g>
</g>
</g>
</g>
<g clip-path="url(#clip_297)">
<g clip-path="url(#clip_298)">
<g clip-path="url(#clip_299)">
<g clip-path="url(#clip_300)">
<path transform="matrix(2.7879503,0,0,2.785407,684.57839,943.53958)" d="M0 0C.42 0 .761-.341 .761-.761 .761-1.181 .42-1.522 0-1.522-.42-1.522-.761-1.181-.761-.761-.761-.341-.42 0 0 0Z" fill="#cbcbcb"/>
</g>
</g>
</g>
</g>
<g clip-path="url(#clip_301)">
<g clip-path="url(#clip_302)">
<g clip-path="url(#clip_303)">
<g clip-path="url(#clip_304)">
<path transform="matrix(2.7879503,0,0,2.785407,684.57839,943.53958)" stroke-width=".2" stroke-linecap="butt" stroke-linejoin="round" fill="none" stroke="#000000" d="M0 0C.42 0 .761-.341 .761-.761 .761-1.181 .42-1.522 0-1.522-.42-1.522-.761-1.181-.761-.761-.761-.341-.42 0 0 0Z"/>
</g>
</g>
</g>
</g>
<g clip-path="url(#clip_305)">
<g clip-path="url(#clip_306)">
<g clip-path="url(#clip_307)">
<g clip-path="url(#clip_308)">
<path transform="matrix(2.7879503,0,0,2.785407,672.28189,547.6617)" stroke-width=".2" stroke-linecap="butt" stroke-linejoin="round" fill="none" stroke="#000000" d="M0 0C0 2.6 2.09 4.702 4.689 4.702 7.289 4.702 9.37 2.6 9.37 0L9.343-7.169 6.727-7.149 4.929-11.593 3.061-7.149 .017-7.169 0 0Z"/>
</g>
</g>
</g>
</g>
<g clip-path="url(#clip_309)">
<g clip-path="url(#clip_310)">
<g clip-path="url(#clip_311)">
<g clip-path="url(#clip_312)">
<path transform="matrix(2.7879503,0,0,2.785407,685.3557,555.8124)" stroke-width=".2" stroke-linecap="butt" stroke-linejoin="round" fill="none" stroke="#000000" d="M0 0C1.619 0 2.931-1.312 2.931-2.931 2.931-4.55 1.619-5.862 0-5.862-1.619-5.862-2.931-4.55-2.931-2.931-2.931-1.312-1.619 0 0 0Z"/>
</g>
</g>
</g>
</g>
<g clip-path="url(#clip_313)">
<g clip-path="url(#clip_314)">
<g clip-path="url(#clip_315)">
<g clip-path="url(#clip_316)">
<path transform="matrix(2.7879503,0,0,2.785407,470.40849,822.63168)" stroke-width=".1" stroke-linecap="butt" stroke-dasharray="2,2" stroke-linejoin="round" fill="none" stroke="#000000" d="M0 0C19.656 15.372 44.02 25.002 70.567 26.366"/>
</g>
</g>
</g>
</g>
<g clip-path="url(#clip_317)">
<g clip-path="url(#clip_318)">
<g clip-path="url(#clip_319)">
<g clip-path="url(#clip_320)">
<path transform="matrix(2.7879503,0,0,2.785407,757.19869,903.89657)" stroke-width=".1" stroke-linecap="butt" stroke-dasharray="2,2" stroke-linejoin="round" fill="none" stroke="#000000" d="M0 0H-19.004"/>
</g>
</g>
</g>
</g>
<g clip-path="url(#clip_321)">
<g clip-path="url(#clip_322)">
<g clip-path="url(#clip_323)">
<g clip-path="url(#clip_324)">
<path transform="matrix(2.7879503,0,0,2.785407,570.84017,872.11727)" stroke-width=".1" stroke-linecap="butt" stroke-linejoin="round" fill="none" stroke="#000000" d="M0 0-5.201-.236-1.868 3.764"/>
</g>
</g>
</g>
</g>
<g clip-path="url(#clip_325)">
<g clip-path="url(#clip_326)">
<g clip-path="url(#clip_327)">
<g clip-path="url(#clip_328)">
<path transform="matrix(2.7879503,0,0,2.785407,731.2755,898.5229)" stroke-width=".1" stroke-linecap="butt" stroke-linejoin="round" fill="none" stroke="#000000" d="M0 0-4.814 1.982-.104 4.2"/>
</g>
</g>
</g>
</g>
</svg>
