<svg id="SVG-graph-0" viewBox="0 0 600 300" title="average velocity paths">
				<path stroke="#f3f3f3" stroke-width="1" fill="none" d="M 70.5 0  v 300M 120.5 0  v 300M 170.5 0  v 300M 220.5 0  v 300M 270.5 0  v 300M 320.5 0  v 300M 370.5 0  v 300M 420.5 0  v 300M 470.5 0  v 300M 520.5 0  v 300M 570.5 0  v 300M 0 230.5  h 600M 0 180.5  h 600M 0 130.5  h 600M 0 80.5  h 600M 0 30.5  h 600"></path>
				<g stroke-width="4" fill="none" opacity="0.5">
					<path d="M70 230 C70 -100, 520 30, 520 30" stroke="#fc0"></path>
					<path d="M70 230 C100 -70, 420 200, 520 30" stroke="#f92"></path>
					<path d="M70 230 C100 50, 520 -20, 520 30" stroke="#f66"></path>
					<path d="M70 230 Q 400 100, 520 30" stroke="#e0a"></path>
					<path d="M70 230 C300 250, 320 0, 520 30" stroke="#a0f"></path>
					<path d="M70 230 Q 480 300, 520 30" stroke="#33f"></path>
					<path d="M70 230 C 300 350, 450 130, 490 30 C498 8, 520 8, 520 30" stroke="#07e"></path>
					<path d="M70 230 Q 150 415, 520 30" stroke="#0bb"></path>
				</g>
				<g fill="#000" stroke="none">
					<circle cx="70" cy="230" r="6"></circle>
					<circle cx="520" cy="30" r="6"></circle>
				</g>
				<g font-size="20px" fill="#222" stroke="none">
					<text x="47" y="237">A</text>
					<text x="530" y="35">B</text>
				</g>
				<path d="M 20.5 0 L 20.5 300 M 0 280.5 L 600 280.5" style="stroke: rgb(0, 0, 0); fill: none; stroke-width: 1;"></path>
				<text x="70.5" y="294.5" style="fill: rgb(0, 0, 0); font-size: 12px; text-anchor: middle; font-family: monospace;">5</text>
				<text x="120.5" y="294.5" style="fill: rgb(0, 0, 0); font-size: 12px; text-anchor: middle; font-family: monospace;">10</text>
				<text x="170.5" y="294.5" style="fill: rgb(0, 0, 0); font-size: 12px; text-anchor: middle; font-family: monospace;">15</text><text x="220.5" y="294.5" style="fill: rgb(0, 0, 0); font-size: 12px; text-anchor: middle; font-family: monospace;">20</text><text x="270.5" y="294.5" style="fill: rgb(0, 0, 0); font-size: 12px; text-anchor: middle; font-family: monospace;">25</text><text x="320.5" y="294.5" style="fill: rgb(0, 0, 0); font-size: 12px; text-anchor: middle; font-family: monospace;">30</text><text x="370.5" y="294.5" style="fill: rgb(0, 0, 0); font-size: 12px; text-anchor: middle; font-family: monospace;">35</text><text x="420.5" y="294.5" style="fill: rgb(0, 0, 0); font-size: 12px; text-anchor: middle; font-family: monospace;">40</text><text x="470.5" y="294.5" style="fill: rgb(0, 0, 0); font-size: 12px; text-anchor: middle; font-family: monospace;">45</text><text x="520.5" y="294.5" style="fill: rgb(0, 0, 0); font-size: 12px; text-anchor: middle; font-family: monospace;">50</text><text x="570.5" y="294.5" style="fill: rgb(0, 0, 0); font-size: 12px; text-anchor: middle; font-family: monospace;">55</text><text x="15.5" y="234.5" style="fill: rgb(0, 0, 0); font-size: 12px; text-anchor: end; font-family: monospace;">5</text><text x="15.5" y="184.5" style="fill: rgb(0, 0, 0); font-size: 12px; text-anchor: end; font-family: monospace;">10</text><text x="15.5" y="134.5" style="fill: rgb(0, 0, 0); font-size: 12px; text-anchor: end; font-family: monospace;">15</text><text x="15.5" y="84.5" style="fill: rgb(0, 0, 0); font-size: 12px; text-anchor: end; font-family: monospace;">20</text><text x="15.5" y="34.5" style="fill: rgb(0, 0, 0); font-size: 12px; text-anchor: end; font-family: monospace;">25</text>
				<path d="M 70.5 280.5  v 3M 120.5 280.5  v 3M 170.5 280.5  v 3M 220.5 280.5  v 3M 270.5 280.5  v 3M 320.5 280.5  v 3M 370.5 280.5  v 3M 420.5 280.5  v 3M 470.5 280.5  v 3M 520.5 280.5  v 3M 570.5 280.5  v 3M 20.5 230.5  h -3M 20.5 180.5  h -3M 20.5 130.5  h -3M 20.5 80.5  h -3M 20.5 30.5  h -3" style="stroke: rgb(0, 0, 0); fill: none; stroke-width: 1;"></path>
				<text x="598" y="274" style="fill: rgb(0, 0, 0); font-size: 16px; text-anchor: end; font-family: monospace;">время (с)</text>
				<text x="33" y="6" transform="rotate(-90, 33, 3)" style="fill: rgb(0, 0, 0); font-size: 16px; text-anchor: end; font-family: monospace;">позиция (м)</text>
			</svg>