<?xml version="1.0" encoding="UTF-8" standalone="no"?>
<svg
   width="190"
   height="56"
   viewBox="0 0 190 56"
   fill="none"
   version="1.1"
   id="svg12"
   sodipodi:docname="reveal-white-text.svg"
   inkscape:version="1.3.2 (091e20e, 2023-11-25, custom)"
   xmlns:inkscape="http://www.inkscape.org/namespaces/inkscape"
   xmlns:sodipodi="http://sodipodi.sourceforge.net/DTD/sodipodi-0.dtd"
   xmlns="http://www.w3.org/2000/svg"
   xmlns:svg="http://www.w3.org/2000/svg">
  <defs
     id="defs12" />
  <sodipodi:namedview
     id="namedview12"
     pagecolor="#ffffff"
     bordercolor="#000000"
     borderopacity="0.25"
     inkscape:showpageshadow="2"
     inkscape:pageopacity="0.0"
     inkscape:pagecheckerboard="0"
     inkscape:deskcolor="#d1d1d1"
     inkscape:zoom="6.1332209"
     inkscape:cx="116.90432"
     inkscape:cy="46.223673"
     inkscape:window-width="2560"
     inkscape:window-height="1417"
     inkscape:window-x="-8"
     inkscape:window-y="-8"
     inkscape:window-maximized="1"
     inkscape:current-layer="svg12" />
  <path
     fill-rule="evenodd"
     clip-rule="evenodd"
     d="M59 42.5845L59 14.1384L12 3.73655L12 52.3153L59 42.5845ZM60.4055 45.3572C61.3341 45.1649 62 44.347 62 43.3987L62 13.3355C62 12.3975 61.3481 11.5855 60.4322 11.3828L11.4322 0.538289C10.1836 0.261959 9 1.21225 9 2.49104L8.99999 53.5435C8.99999 54.8111 10.1642 55.759 11.4055 55.502L60.4055 45.3572Z"
     fill="#D53F8C"
     id="path1" />
  <path
     d="M0 12.6013C0 11.653 0.665933 10.8351 1.59452 10.6428L50.5945 0.498019C51.8358 0.241027 53 1.18887 53 2.45649V53.509C53 54.7878 51.8164 55.738 50.5678 55.4617L1.56783 44.6173C0.651943 44.4146 0 43.6025 0 42.6645V12.6013Z"
     fill="#F2E142"
     id="path2" />
  <path
     d="M12 3.02932L12 53.0252L9.00001 53.0252L9.00001 3.02932L12 3.02932Z"
     fill="#D53F8C"
     id="path3" />
  <text
     xml:space="preserve"
     style="font-style:italic;font-size:26.6667px;font-family:'Comic Sans MS';-inkscape-font-specification:'Comic Sans MS Italic';fill:#000000;stroke:#0c0707;stroke-width:0;stroke-linecap:round;stroke-miterlimit:4.5;paint-order:markers stroke fill"
     x="80.218864"
     y="37.826778"
     id="text12"><tspan
       sodipodi:role="line"
       id="tspan12"
       x="80.218864"
       y="37.826778"
       style="font-style:normal;font-variant:normal;font-weight:normal;font-stretch:normal;font-size:26.6667px;font-family:'Elite Math';-inkscape-font-specification:'Elite Math'">fiZik</tspan></text>
</svg>
