<svg xmlns="http://www.w3.org/2000/svg" viewBox="0 0 1920 1080" overflow="hidden" preserveAspectRatio="xMidYMid meet" id="eaf-b7ac-0"><defs><clipPath id="eaf-b7ac-1"><rect x="0" y="0" width="1920" height="1080"></rect></clipPath></defs><g clip-path="url('#eaf-b7ac-1')" style="isolation: isolate;"><g><g transform="matrix(0.0483 0 0 0.0439 1.9795 167.0208)"><path fill="#17a09a" d="m569.6 844.8c0 0 -6.4 0 -6.4 -6.4l-121.5999 -223.9999c0 -6.4 0 -6.4 6.4 -12.8l108.8 -57.6c6.4 0 6.4 0 12.8 6.4l121.6 224l0 6.4c0 0 0 6.4 -6.4 6.4l-115.2 57.6c6.4 0 6.4 0 0 0l0.0001 -0.0001zm-108.8 -230.4l115.2 204.8l96 -51.2l-115.2 -204.8l-96 51.2z"></path><path fill="#17a09a" d="m531.2 774.4c0 0 -6.4 0 -6.4 -6.4c0 -6.4 0 -6.4 6.4 -12.8l108.8 -57.6c6.4 0 6.4 0 12.8 6.4c0 6.4 0 6.4 -6.4 12.8l-115.2 57.6c6.4 -6.4 6.4 0 0 0l0.0001 0zm-38.4 -83.2c0 0 -6.4 0 -6.4 -6.4c0 -6.4 0 -6.4 6.4 -12.8l108.8 -57.6c6.4 0 6.4 0 12.8 6.4c0 6.4 0 6.4 -6.4 12.8l-115.2 57.6l0.0001 0z"></path><path fill="#17a09a" d="m627.2 812.8c0 0 -6.4 0 -6.4 -6.4l-121.6 -217.6c0 -6.4 0 -6.4 6.4 -12.8c0 0 6.4 0 6.4 6.4l115.2 217.6c6.4 0 6.4 6.4 0 12.8z"></path><path fill="#17a09a" d="m377.6 480c-6.4 0 -6.4 0 -6.4 -6.4l-121.6 -224l0 -6.4c0 0 0 -6.4 6.4 -6.4l108.8 -57.6c6.4 0 6.4 0 12.8 6.4l121.6 224c0 6.4 0 6.4 -6.4 12.8l-115.2 57.6l0 0zm-108.8 -230.4l115.2 211.2l96 -51.2l-121.6 -204.8l-89.6 44.8l0 0z"></path><path fill="#17a09a" d="m339.2 409.6c0 0 -6.4 0 -6.4 -6.4c0 -6.4 0 -6.4 6.4 -12.8l108.8 -57.6c6.4 0 6.4 0 12.8 6.4c0 6.4 0 6.4 -6.4 12.8l-115.2 57.6l0 0zm-44.8 -76.8c0 0 -6.4 0 -6.4 -6.4c0 -6.4 0 -6.4 6.4 -12.8l108.8 -57.6c6.4 0 6.4 0 12.8 6.4c0 6.4 0 6.4 -6.4 12.8l-115.2 57.6c6.4 0 6.4 0 0 0l0 0z"></path><path fill="#17a09a" d="m428.8 448c0 0 -6.4 0 -6.4 -6.4l-115.2 -217.6c0 -6.4 0 -6.4 6.4 -12.8c6.4 0 6.4 0 12.8 6.4l115.2 217.6c0 6.4 -6.4 12.8 -12.8 12.8c6.4 0 0 0 0 0z"></path><path fill="#17a09a" d="m467.2 588.8c-25.6 0 -51.2 -12.8 -64 -38.4c-6.4 -19.2 -6.4 -38.4 0 -57.6c6.4 -19.2 19.2 -32 32 -44.8l32 0c25.6 0 51.2 12.8 64 38.4c6.4 19.2 12.8 38.4 6.4 51.2c-6.4 19.2 -19.2 32 -32 38.4c-12.8 6.4 -25.6 12.8 -38.4 12.8l0 0zm0 -128c-6.4 0 -19.2 0 -25.6 6.4c-6.4 6.4 -19.2 19.2 -25.6 32c0 12.8 0 32 6.4 38.4c12.8 19.2 25.6 32 44.8 32c6.4 0 19.2 0 25.6 -6.4c12.8 -6.4 19.2 -19.2 25.6 -32c6.4 -12.8 0 -25.6 -6.4 -38.4c-6.4 -19.2 -25.6 -32 -44.8 -32l0 0z"></path><path fill="#fdd000" d="m684.8 505.6c-6.4 0 -12.8 -6.4 -6.4 -12.8c12.8 -25.6 12.8 -57.6 -6.4 -83.2c-12.8 -25.6 -38.4 -44.8 -70.4 -51.2c-6.4 0 -6.4 -6.4 -6.4 -12.8c0 -6.4 6.4 -6.4 12.8 -6.4c38.4 6.4 64 25.6 83.2 57.6c19.2 32 19.2 64 6.4 96c-6.4 6.4 -6.4 12.8 -12.8 12.8l0.0001 0z"></path><path fill="#fdd000" d="m736 550.4c0 0 -6.4 0 0 0c-6.4 -6.4 -12.8 -12.8 -6.4 -12.8c38.4 -44.8 38.4 -115.2 12.8 -166.4c-32 -57.6 -89.6 -89.6 -153.6 -83.2c-6.4 0 -6.4 0 -6.4 -6.4c0 -6.4 0 -6.4 6.4 -6.4c70.4 -6.4 134.4 25.6 166.4 89.6c32 57.6 25.6 128 -12.8 185.6l-6.4 0l0.0001 -0.0001z"></path><path fill="#17a09a" d="m576 512c-19.2 0 -38.4 -12.8 -44.8 -25.6c-6.4 -12.8 -6.4 -32 -6.4 -44.8c6.4 -12.8 12.8 -25.6 25.6 -32l6.4 0c19.2 0 44.8 32 51.2 57.6c6.4 25.6 0 32 -6.4 32c-6.4 6.4 -19.2 12.8 -25.6 12.8zm-12.8 -83.2c-12.8 6.4 -19.2 12.8 -19.2 19.2l0 25.6c12.8 19.2 32 25.6 51.2 12.8l0 -12.8c-6.4 -19.2 -25.6 -44.8 -32 -44.8l0 0z"></path><path fill="#17a09a" d="m595.2 460.8c0 0 -6.4 0 -6.4 -6.4c0 -6.4 0 -6.4 6.4 -12.8l32 -19.2c6.4 0 6.4 0 12.8 6.4c0 6.4 0 6.4 -6.4 12.8l-38.4 19.2l0.0001 0z"></path><animateTransform attributeName="transform" type="translate" from="0 0" to="0 0" calcMode="discrete" dur="5000ms" repeatCount="indefinite"></animateTransform><animateMotion keyTimes="0;0.24;0.47;0.74;1" calcMode="linear" dur="5000ms" repeatCount="indefinite" attributeName="transform" keyPoints="0;0.2514;0.5021;0.7458;1" path="m26.7279 189.5217q80.2477 62.0174 160.4825 -0.8438q61.288 -73.7118 -4.9746 -159.3411q-79.7354 -61.0852 -155.508 -0.8438q-65.8868 88.9316 0.2779 160.8031" additive="sum"></animateMotion><animateTransform attributeName="transform" type="scale" from="0.0483 0.0439" to="0.0483 0.0439" calcMode="discrete" dur="5000ms" repeatCount="indefinite" additive="sum"></animateTransform><animateTransform attributeName="transform" type="translate" from="-512.6444 -512.0001" to="-512.6444 -512.0001" calcMode="discrete" dur="5000ms" repeatCount="indefinite" additive="sum"></animateTransform></g><path fill="#000" d="m50 0c-27.596 0 -50 22.404 -50 50c0 27.596 22.404 50 50 50c27.546 0 49.911 -22.324 49.992 -49.852q0.0077 -0.0738 0.008 -0.148q0 -0.0666 -0.006 -0.133c-0.072 -27.535 -22.442 -49.867 -49.994 -49.867zm-1.24 3.238c1.317 -0.098 1.77 0.243 -1.053 0.899c-3.886 1.145 2.065 2.421 2.576 0.195c2.55 -0.085 2.411 -0.18 3.06 -0.748c1.26 0.05 1.675 -0.1 1.663 -0.316c12.374 1.307 23.303 7.41 30.91 16.416c0.88 2.14 1.49 4.31 3.088 5.964c0.032 0.247 1.264 2.094 0.621 0.157q0.0627 -0.5498 -0.012 -1.098q1.1242 1.7571 2.088 3.607q-0.0604 0.3441 -0.203 0.663c1.88 6.248 -2.697 -4.65 -2.037 -0.041c-1.523 -2.784 -3.294 -5.467 -4.861 -4.899c-1.733 0.548 3.468 1.264 1.818 3.445c3.044 3.05 4.62 7.417 3.41 11.694c-1.854 2.38 -2.744 3.865 -3.117 6.633c-1.548 -0.614 -0.352 -5.383 -2.4 -1.121c3.012 2.95 4.997 9.495 0.037 11.714c0.207 -1.894 -4.42 -5.448 -3.739 -0.613c1.509 2.507 4.6 5.1 4.141 8.982c-0.887 1.78 4.527 1.167 0.814 2.881c-0.532 0.634 -0.435 2.565 0.78 1.506c1.406 0.19 2.762 -1.642 4.408 -0.996c-2.219 1.806 4.159 -0.758 1.781 -2.598c0.143 -2.733 1.137 -7.026 -0.617 -2.113c0.63 3.992 -4.078 3.01 -4.707 2.078c0.816 -1.342 -1.149 -8.521 0.467 -4.783c2.963 0.533 4.427 -6.972 5.156 -10.133c0.895 -2.422 -1.636 -7.717 -0.05 -8.492c0.954 3.63 2.83 4.912 3.22 8.973c0.544 2.5 -0.283 3.565 -1.238 3.045c-1.298 1.729 -3.221 7.93 0.236 4.34c2.2 -3.902 -0.808 2.373 0.023 1.667c0.963 1.336 0.992 -3.92 1.565 -4.005q-0.4207 3.2379 -1.287 6.386c-0.021 0.03 -0.037 0.045 -0.059 0.077c-1.041 -2.905 -0.295 3.813 -2.015 2.904c-0.246 1.288 0.324 1.064 0.941 0.607q-0.5973 1.6213 -1.313 3.194c-1.993 1.348 -5.057 1.234 -7.214 1.953c-2.379 0.131 -4.05 -3.147 -5.625 -2.873c-1.656 -2.371 -1.002 -4.627 -3.407 -6.907c1.102 -3.563 6.97 4.754 4.418 -1.123c-3.159 -2.524 -1.856 -7.003 -2.976 -10.423c-2.15 1.458 -3.423 0.573 -3.237 -2.022c-1.405 -2.619 -3.791 -4.646 -6.392 -1.967c-1.579 2.77 -4.48 4.847 -6.352 7.04c-1.003 3.656 2.302 6.157 1.631 9.529c-3.267 2.78 -1.582 -5.566 -4.506 -1.584c-3.096 -1.863 -3.5 -6.615 -5.226 -9.713c-1.187 -2.207 0.538 -5.486 -2.764 -4.23c-3.034 -0.288 -0.966 -5.479 -2.756 -3.456c-2.702 -2.627 -8.368 -0.883 -10.99 -2.201c2.446 1.5 4.267 4.481 1.164 6.397c-2.107 2.87 -5.965 4.06 -9.307 5.017c-1.435 1.107 -8.658 1.899 -3.375 3.143c2.144 -0.081 3.19 -0.691 5.057 -0.387c0.546 2.996 -2.19 5.479 -3.574 8.127c-2.144 2.136 -4.935 3.37 -6.51 5.871c-0.741 2.535 0.805 5.57 1.777 8.057c2.667 3.726 -4.654 3.133 -1.394 6.322c0.663 1.592 -0.652 1.28 -0.326 3.082c-10.941 -8.602 -17.971 -21.951 -17.971 -36.961c0 -9.59 2.872 -18.5 7.795 -25.932c0.71 0.872 2.423 1.982 0.637 2.512c-1.329 1.584 0.252 7.323 2.232 3.25c1.808 1.571 4.378 3.644 7.086 2.416c1.714 -2.108 2.398 -5.107 0.318 -2.246c-1.535 0.046 0.601 -2.722 -2.066 -1.66c-2.782 1.433 -4.43 -0.52 -2.986 -3.608c-0.048 -3.169 -5.455 5.659 -3.096 -0.168c2.863 -0.32 1.9 -5.538 -0.043 -1.128c-2.023 0.43 2.942 -3.687 2.02 -3.557c-0.205 0.029 -0.723 0.282 -1.647 0.824c5.895 -7.387 13.967 -12.954 23.254 -15.73c1.739 0.066 3.323 0.672 4.04 1.41c1.183 -1.135 7.699 0.147 4.077 -1.41c0.638 -1.099 2.821 -1.636 4.139 -1.735zm-24.291 16.657c-2.674 1.167 -4.311 4.556 0 3.064c1.428 0.151 2.643 2.027 4.19 0.902c0.28 -2.873 -4.301 -2.355 -4.19 -3.966zm12.511 0.318c-1.594 -0.057 -5.271 3.037 -2.236 5.293c-3.272 1.98 -0.178 4.172 2.295 3.289c0.278 -2.717 -2.885 -6.961 0.604 -7.99c-0.038 -0.398 -0.295 -0.579 -0.663 -0.592zm-24.888 1.996c0.009 0.156 -0.092 0.338 -0.406 0.572c0.135 -0.19 0.268 -0.384 0.406 -0.572zm19.693 14.338c-2.963 -0.06 1.922 3.833 1.596 5.267c0.629 0.154 1.241 -0.083 1.818 -0.29c2.171 -1.622 -3.849 -2.362 -3.414 -4.977zm-12.517 0.71c-0.314 0.067 -0.498 0.735 -0.08 2.155c0.778 3.914 0.359 8.243 2.644 11.358c0.265 0.498 1.092 2.057 1.033 0.318c-0.625 -3.819 -2.063 -7.405 -2.763 -11.414c0.183 -1.59 -0.431 -2.5 -0.834 -2.416l0 -0.001zm74.402 12.66c-0.202 0.061 -0.402 0.69 -0.51 2.225c-1.084 0.508 -0.54 4.734 0.518 2.968c1.029 -1.432 0.584 -4.95 0.078 -5.185q-0.0414 -0.0211 -0.086 -0.008zm-5.541 27.563q-1.7281 2.3972 -3.742 4.56c1.09 -1.642 2.26 -3.219 3.742 -4.56zm-58.404 1.397c1.62 -0.194 2.479 5.094 1.146 6.947c0.383 2.269 -1.766 3.022 -3.035 1.242c-1.723 -2.168 -3.27 -6.71 0.662 -7.068c0.437 -0.738 0.853 -1.076 1.227 -1.121z" transform="matrix(1.605 0 0 1.6718 28.1571 29.3369)"></path></g></g></svg>