<?xml version="1.0" encoding="UTF-8" standalone="no"?>
<svg
   width="760"
   height="550"
   stroke-linecap="round"
   version="1.1"
   id="svg36"
   sodipodi:docname="so.svg"
   inkscape:version="1.4 (86a8ad7, 2024-10-11)"
   inkscape:export-filename="..\Desktop\mobile-navigation-animation\dist\proj\introSVG\so.svg"
   inkscape:export-xdpi="96"
   inkscape:export-ydpi="96"
   xmlns:inkscape="http://www.inkscape.org/namespaces/inkscape"
   xmlns:sodipodi="http://sodipodi.sourceforge.net/DTD/sodipodi-0.dtd"
   xmlns="http://www.w3.org/2000/svg"
   xmlns:svg="http://www.w3.org/2000/svg">
  <defs
     id="defs36" />
  <sodipodi:namedview
     id="namedview36"
     pagecolor="#ffffff"
     bordercolor="#000000"
     borderopacity="0.25"
     inkscape:showpageshadow="2"
     inkscape:pageopacity="0.0"
     inkscape:pagecheckerboard="0"
     inkscape:deskcolor="#d1d1d1"
     inkscape:zoom="0.95390628"
     inkscape:cx="-17.297297"
     inkscape:cy="79.148237"
     inkscape:window-width="2560"
     inkscape:window-height="1417"
     inkscape:window-x="-8"
     inkscape:window-y="-8"
     inkscape:window-maximized="1"
     inkscape:current-layer="svg36" />
  <g
     id="g2"
     transform="matrix(2.0153182,0,0,2.0147687,31.724315,-25.123965)">
    <path
       d="m 153.096,189.757 c 0,0 0,0 0,0 m 0,0 c 0,0 0,0 0,0 m -0.4,4.454 c 1.217,-2.607 3.465,-4.47 3.678,-5.956 m -3.678,5.956 c 1.161,-1.914 2.965,-4.649 3.678,-5.956 m -1.977,7.007 c 0.618,-2.243 2.673,-5.188 4.204,-6.807 m -4.204,6.807 c 1.388,-1.74 2.756,-3.989 4.204,-6.807 m -2.502,7.858 c 1.874,-2.168 3.744,-4.896 4.204,-6.807 m -4.204,6.807 c 1.833,-2.266 3.15,-4.877 4.204,-6.807 m -1.977,7.007 c 0.854,-2.27 2.314,-2.883 3.153,-5.105 m -3.153,5.105 c 0.767,-1.431 1.707,-3.16 3.153,-5.105"
       stroke="#000000"
       stroke-width="1.364"
       fill="none"
       id="path1" />
    <path
       d="m 161.199,192.386 c 1.143,-5.469 -3.453,-6.104 -6.537,-4.123 m 0,0 c -2.245,1.074 -1.766,2.037 -2.301,4.126 m 0,0 c 0.131,2.5 5.704,6.139 6.723,3.791 m 0,0 c 3.262,-0.01 2.859,-3.825 2.115,-3.794 m 0,0 c 0,0 0,0 0,0"
       stroke="#000000"
       stroke-width="1"
       fill="none"
       id="path2" />
  </g>
  <g
     id="g3"
     transform="matrix(2.0153182,0,0,2.0147687,31.724315,-25.123965)">
    <path
       d="m 161.199,192.386 c -1.062,-2.423 -4.95,-6.985 -6.537,-4.123 m 0,0 c -3.28,2.633 -1.656,3.991 -2.301,4.126 m 0,0 c -0.164,2.869 5.285,7.346 6.723,3.791 m 0,0 c 0.469,-0.664 1.662,-2.085 2.115,-3.794 m 0,0 c 0,0 0,0 0,0"
       stroke="#000000"
       stroke-width="1.051"
       fill="none"
       id="path3" />
  </g>
  <g
     id="g4"
     transform="matrix(2.0153182,0,0,2.0147687,-38.522991,-27.76412)">
    <path
       d="m 157.583,193.817 c 44.084,-0.042 85.094,-0.888 166.017,-3.236"
       stroke="#000000"
       stroke-width="2.105"
       fill="none"
       id="path4" />
  </g>
  <g
     id="g9"
     transform="matrix(2.0153182,0,0,2.0147687,41.203054,-37.307324)">
    <path
       d="m 137.514,170.36 c 0,0 0,0 0,0 m 0,0 c 0,0 0,0 0,0"
       stroke="#000000"
       stroke-width="0.993"
       fill="none"
       id="path8" />
    <path
       d="m 137.667,170.196 c -0.237,0.405 -0.38,1.098 -0.938,1.864 m 0.876,-1.915 c -0.09,0.464 -0.341,0.73 -0.79,2.019 m 0.088,0.068 c 0.279,-0.246 0.507,-0.539 0.816,-0.835 m -0.832,0.743 c 0.27,-0.218 0.529,-0.399 0.752,-0.701 m -0.065,-0.045 c 0.346,0.327 0.665,0.612 0.729,0.71 m -0.706,-0.624 c 0.219,0.14 0.347,0.294 0.832,0.701 m -0.243,0.135 c -0.055,-0.811 -0.325,-1.17 -0.588,-2.156 m 0.86,1.899 c -0.407,-0.485 -0.495,-1.223 -0.792,-1.966"
       stroke="#000000"
       stroke-width="1"
       fill="none"
       id="path9" />
  </g>
  <g
     id="g10"
     transform="matrix(2.0153182,0,0,2.0147687,67.112061,-61.558112)">
    <path
       d="m 157.1385,192.70604 c -24.842,24.336 -49.382,51.207 -80.570004,84.518"
       style="fill:none;stroke:#000000;stroke-width:2.105"
       id="path1-4" />
  </g>
  <g
     id="g15"
     transform="matrix(2.0153182,0,0,2.0147687,41.203054,-37.307324)">
    <path
       d="m 129.546,162.062 c 0,0 0,0 0,0 m 0,0 c 0,0 0,0 0,0 m -14.504,15.318 c 2.118,-4.111 5.793,-6.569 15.82,-13.811 m -15.82,13.811 c 5.064,-3.783 9.638,-6.942 15.82,-13.811 m -16.011,16.633 c 2.233,-5.425 9.235,-6.426 17.326,-15.127 m -17.326,15.127 c 6.761,-6.35 13.27,-11.281 17.326,-15.127 m -16.764,17.291 c 6.334,-5.075 11.173,-10.517 18.079,-15.784 m -18.079,15.784 c 3.972,-3.049 9.422,-7.08 18.079,-15.784 m -18.27,18.606 c 3.804,-3.432 10.559,-10.603 20.339,-17.757 m -20.339,17.757 c 3.394,-2.718 7.492,-6.911 20.339,-17.757 m -20.53,20.579 c 9.659,-7.802 16.742,-13.997 21.845,-19.073 m -21.845,19.073 c 6.813,-5.98 13.037,-12.097 21.845,-19.073 m -21.283,21.238 c 6.039,-7.11 15.612,-14.345 22.599,-19.731 m -22.599,19.731 c 6.814,-6.769 14.793,-12.725 22.599,-19.731 m -22.79,22.553 c 3.857,-6.479 9.758,-9.462 24.105,-21.046 m -24.105,21.046 c 9.083,-6.46 16.388,-14.266 24.105,-21.046 m -21.283,21.237 c 1.677,-1.382 3.581,-3.428 8.286,-7.235 m -8.286,7.235 c 2.955,-2.141 6.219,-5.686 8.286,-7.235 m 1.507,-1.315 c 4.4,-4.569 9.19,-5.767 12.805,-11.181 m -12.805,11.181 c 4.236,-3.251 7.692,-7.262 12.805,-11.181 m -19.776,19.922 c 1.282,-1.504 1.911,-2.306 5.273,-4.604 m -5.273,4.604 c 1.823,-1.589 4.112,-2.843 5.273,-4.604 m 4.519,-3.946 c 1.619,-1.55 4.719,-3.567 12.053,-10.523 m -12.053,10.523 c 3.357,-2.628 5.081,-4.164 12.053,-10.523 m -19.023,19.264 c 0.716,-0.537 1.491,-1.178 2.26,-1.973 m -2.26,1.973 c 0.566,-0.569 1.24,-0.937 2.26,-1.973 m 7.532,-6.577 c 2.682,-3.153 7.82,-7.628 10.547,-9.207 m -10.547,9.207 c 2.176,-3.136 5.539,-4.515 10.547,-9.207 m -10.738,12.029 c 3.517,-2.316 4.575,-4.469 10.546,-9.207 m -10.546,9.207 c 1.976,-2.461 5.632,-4.697 10.546,-9.207 m -10.737,12.029 c 2.348,-1.706 4.62,-5.514 10.546,-9.207 m -10.546,9.207 c 2.339,-2.304 6.258,-4.576 10.546,-9.207 m -10.737,12.029 c 1.253,-3.411 5.656,-2.668 10.546,-9.207 m -10.546,9.207 c 2.985,-1.757 5.272,-4.041 10.546,-9.207 m -7.724,9.398 c 1.853,-1.514 6.098,-4.997 8.286,-7.234 m -8.286,7.234 c 2.322,-1.892 5.665,-4.926 8.286,-7.234 m -4.711,6.768 c 1.78,-1.984 3.494,-2.548 4.52,-3.946 m -4.52,3.946 c 1.891,-1.303 3.15,-2.958 4.52,-3.946 m -1.698,4.137 c 0.311,-0.293 1.142,-0.847 1.507,-1.315 m -1.507,1.315 c 0.367,-0.354 0.715,-0.678 1.507,-1.315"
       stroke="#f9ebb2"
       stroke-width="1.39"
       fill="none"
       id="path14" />
    <path
       d="m 143.942,192.294 c 1.896,1.39 0.021,0.559 -1.211,1.145 m 0,0 c -2.667,0.664 -3.871,-0.326 -9.688,0 m 0,0 c 0.176,-1.05 0.795,-4.158 0,-8.589 m 0,0 c -1.577,-0.873 0.06,-1.219 -0.606,-0.572 m 0,0 c -2.602,-0.631 -4.194,-0.56 -6.055,0 m 0,0 c 0.438,-0.122 -1.93,0.539 -0.605,0.572 m 0,0 c -0.163,2.231 0.623,4.707 0,8.589 m 0,0 c -2.156,0.628 -5.161,-0.862 -9.689,0 m 0,0 c 0.029,1.783 -0.517,-0.188 -1.211,-1.145 m 0,0 c -0.722,-4.678 0.014,-7.006 0,-16.37 m 0,0 c 1.864,-2.136 8.169,-7.178 14.538,-13.747 m 0,0 c 3.839,2.468 6.289,6.341 14.527,13.737 m 0,0 c 0.396,4.955 -0.501,10.422 0,16.38"
       stroke="#f9ebb2"
       stroke-width="1"
       fill="none"
       id="path15" />
  </g>
  <g
     id="g17"
     transform="matrix(2.0153182,0,0,2.0147687,41.203054,-37.307324)">
    <path
       d="m 118.419,161.511 c 0,0 0,0 0,0 m 0,0 c 0,0 0,0 0,0 m 0.035,5.035 c 0.933,-2.193 2.924,-3.83 3.001,-5.548 m -2.633,5.428 c 0.958,-0.871 1.749,-2.161 3.054,-5.057"
       stroke="#f76d57"
       stroke-width="0.75"
       fill="none"
       id="path16" />
    <path
       d="m 118.432,161.501 c 0.963,-0.183 1.243,0.048 2.716,-0.116 m -2.564,-0.072 c 0.529,0.065 1.423,0.026 2.344,-0.034 m 0.321,-0.202 c -0.628,1.311 -0.722,2.392 0.034,3.866 m -0.191,-3.581 c -0.149,1.088 -0.104,1.911 -0.039,3.629 m -0.003,0.459 c -1.053,0.285 -1.591,1.285 -2.333,2.124 m 2.29,-2.558 c -0.48,0.687 -1.329,1.17 -2.609,2.47 m -0.275,-0.133 c 0.072,-1.943 0.311,-3.522 0.82,-6.559 m -0.143,6.607 c -0.552,-1.15 -0.282,-3.175 -0.234,-5.781"
       stroke="#f76d57"
       stroke-width="1"
       fill="none"
       id="path17" />
  </g>
  <g
     id="g19"
     transform="matrix(2.0153182,0,0,2.0147687,41.203054,-37.307324)">
    <path
       d="m 127.361,185.096 c 0,0 0,0 0,0 m 0,0 c 0,0 0,0 0,0 m -0.172,2.5 c 1.143,0.102 1.672,-0.605 3.004,-2.016 m -3.152,2.439 c 0.843,-0.779 1.374,-1.202 3.109,-2.57 m -3.245,4.706 c 1.235,-0.843 3.623,-1.787 5.204,-3.853 m -5.27,4.61 c 1.858,-1.09 2.813,-2.38 5.121,-4.906 m -5.623,8.123 c 2.553,-1.931 3.241,-2.426 5.382,-5.544 m -4.681,4.847 c 0.775,-1.342 2.446,-2.23 4.689,-4.158 m -3.417,6.278 c 0.703,-1.356 2.55,-3.492 4.353,-4.532 m -4.558,4.049 c 1.955,-1.756 3.365,-2.944 4.269,-3.987"
       stroke="#f9ebb2"
       stroke-width="1.458"
       fill="none"
       id="path18" />
    <path
       d="m 127.162,185.441 c 0.443,-0.284 1.647,-0.027 4.414,-0.31 m 0.472,0.913 c -0.063,0.762 -0.72,3.603 -0.22,7.66 m 0.01,-0.491 c -1.693,0.52 -2.118,0.191 -4.503,-0.227 m -0.062,0.335 c 0.564,-2.404 -0.157,-5.012 -0.671,-7.755"
       stroke="#f9ebb2"
       stroke-width="1"
       fill="none"
       id="path19" />
  </g>
  <g
     id="g21"
     transform="matrix(2.0153182,0,0,2.0147687,41.203054,-37.307324)">
    <path
       d="m 111.343,176.136 c 0,0 0,0 0,0 m 0,0 c 0,0 0,0 0,0 m 1.574,1.233 c 2.231,-2.827 5.644,-6.96 8.017,-10.234 m -8.017,10.234 c 2.874,-2.333 4.395,-5.426 8.017,-10.234 m 1.574,1.233 c 2.151,-3.064 4.603,-4.213 7.4,-9.446 m -7.4,9.446 c 1.937,-1.93 3.56,-4.458 7.4,-9.446 m 0.341,2.807 c 0.158,-0.312 0.325,-0.532 0.617,-0.787 m -0.617,0.787 c 0.229,-0.197 0.388,-0.461 0.617,-0.787 m 0.958,2.021 c 0.123,-0.285 0.344,-0.583 0.616,-0.788 m -0.616,0.788 c 0.165,-0.221 0.328,-0.391 0.616,-0.788 m 0.958,2.021 c 0.183,-0.333 0.347,-0.47 0.617,-0.787 m -0.617,0.787 c 0.241,-0.294 0.409,-0.553 0.617,-0.787 m 0.957,2.02 c 0.234,-0.319 0.367,-0.53 0.617,-0.787 m -0.617,0.787 c 0.107,-0.211 0.253,-0.33 0.617,-0.787 m 0.958,2.021 c 0.045,-0.135 0.35,-0.264 0.617,-0.788 m -0.617,0.788 c 0.211,-0.232 0.33,-0.381 0.617,-0.788 m 0.341,2.808 c 0.48,-0.428 0.976,-1.308 1.233,-1.574 m -1.233,1.574 c 0.505,-0.519 0.912,-1.121 1.233,-1.574 m 0.341,2.807 c 0.2,-0.216 0.458,-0.681 0.617,-0.787 m -0.617,0.787 c 0.224,-0.324 0.444,-0.605 0.617,-0.787 m 0.958,2.021 c 0.243,-0.287 0.217,-0.391 0.616,-0.787 m -0.616,0.787 c 0.191,-0.217 0.275,-0.357 0.616,-0.787 m 0.958,2.02 c 0.215,-0.357 0.503,-0.465 0.617,-0.787 m -0.617,0.787 c 0.19,-0.252 0.447,-0.555 0.617,-0.787 m 0.958,2.02 c 0.209,-0.218 0.383,-0.66 0.616,-0.787 m -0.616,0.787 c 0.191,-0.239 0.288,-0.422 0.616,-0.787 m 0.958,2.021 c 0.133,-0.231 0.451,-0.665 0.617,-0.788 m -0.617,0.788 c 0.105,-0.161 0.307,-0.361 0.617,-0.788 m 0.341,2.808 c 0.412,-0.441 0.569,-0.629 1.233,-1.574 m -1.233,1.574 c 0.223,-0.418 0.465,-0.635 1.233,-1.574"
       stroke="#f76d57"
       stroke-width="1.355"
       fill="none"
       id="path20" />
    <path
       d="m 146.97,176.834 c -1.868,-1.866 1.557,0.07 -0.474,-0.124 m 0,0 c -5.352,-4.115 -10.255,-8.87 -16.653,-15.748 m 0,0 c -0.987,1.641 1.256,1.722 -0.428,-0.168 m 0,0 c -1.259,0.425 -1.367,1.35 -0.428,0.168 m 0,0 c -7.225,5.876 -11.804,10.327 -16.658,15.753 m 0,0 c 0.321,-1.805 -2.09,1.782 -0.479,0.119 m 0,0 c 0.663,1.935 -1.128,0.882 -0.606,-0.573 m 0,0 c 1.91,0.954 -1.151,0.496 0.12,-0.46 m 0,0 c 2.825,-3.986 8.5,-7.702 17.461,-16.483 m 0,0 c -0.173,-1.11 -0.393,-2.229 0.59,-0.235 m 0,0 c -1.426,-1.449 -0.051,0.222 0.595,0.228 m 0,0 c 6.53,7.562 10.619,11.625 17.442,16.494 m 0,0 c -0.229,0.064 -0.326,-1.429 0.123,0.456 m 0,0 c 1.935,1.488 -0.896,1.393 -0.605,0.573 m 0,0 c 0,0 0,0 0,0"
       stroke="#f76d57"
       stroke-width="1"
       fill="none"
       id="path21" />
  </g>
  <g
     id="g23"
     transform="matrix(2.0153182,0,0,2.0147687,41.203054,-37.307324)">
    <path
       d="m 119.149,176.216 c 0,0 0,0 0,0 m 0,0 c 0,0 0,0 0,0 m -0.745,4.41 c 0.474,-1.096 1.34,-1.86 1.77,-2.422 m -1.77,2.422 c 0.708,-0.832 1.316,-1.801 1.77,-2.422 m 0,0 c 0.11,-0.294 0.482,-0.81 1.18,-1.615 m -1.18,1.615 c 0.337,-0.577 0.729,-1.135 1.18,-1.615 m -1.335,5.217 c 0.177,-0.313 0.393,-0.502 0.59,-0.808 m -0.59,0.808 c 0.198,-0.248 0.436,-0.542 0.59,-0.808 m 2.36,-3.23 c 0.224,-0.41 0.812,-1.154 1.179,-1.615 m -1.179,1.615 c 0.361,-0.459 0.64,-0.85 1.179,-1.615 m -1.924,6.025 c 0.256,-0.225 0.391,-0.507 0.59,-0.807 m -0.59,0.807 c 0.179,-0.284 0.409,-0.576 0.59,-0.807 m 1.18,-1.615 c 0,0 0,0 0,0 m 0,0 c 0,0 0,0 0,0"
       stroke="#394240"
       stroke-width="0.75"
       fill="none"
       id="path22" />
    <path
       d="m 123.96,176.261 c -0.927,0.115 -2.902,0.321 -4.844,0 m 0,0 c -1.605,0.688 -1.923,1.313 -0.605,0.573 m 0,0 c -0.284,0.653 0.197,2.568 0,4.581 m 0,0 c -0.8,1.119 -1.595,1.697 0.605,0.572 m 0,0 c 2.08,0.213 3.633,0.358 4.844,0 m 0,0 c -0.848,1.186 1.646,1.399 0.606,-0.572 m 0,0 c 0.089,-1.397 0.229,-2.637 0,-4.581 m 0,0 c -1.509,-0.723 1.381,-1.733 -0.606,-0.573 m 0,0 c 0,0 0,0 0,0 m -0.605,4.581 c -1.118,0.172 -1.91,0.009 -3.633,0 m 0,0 c -0.293,-0.653 0.249,-1.108 0,-3.436 m 0,0 c 0.808,0.277 1.849,0.026 3.633,0 m 0,0 c 0.139,1.185 -0.121,1.653 0,3.436"
       stroke="#394240"
       stroke-width="1"
       fill="none"
       id="path23" />
  </g>
  <g
     id="g25"
     transform="matrix(2.0153182,0,0,2.0147687,41.203054,-37.307324)">
    <path
       d="m 134.399,176.639 c 0,0 0,0 0,0 m 0,0 c 0,0 0,0 0,0 m 0.405,2.8 c 0.485,-0.441 0.827,-1.334 1.197,-1.602 m -1.197,1.602 c 0.46,-0.483 0.813,-1.199 1.197,-1.602 m 0,0 c 0.142,-0.24 0.323,-0.437 0.599,-0.801 m -0.599,0.801 c 0.084,-0.206 0.29,-0.363 0.599,-0.801 m -1.392,5.202 c 0.275,-0.356 0.434,-0.671 0.599,-0.801 m -0.599,0.801 c 0.203,-0.255 0.333,-0.477 0.599,-0.801 m 2.994,-4.005 c 0.066,-0.161 0.358,-0.276 0.598,-0.801 m -0.598,0.801 c 0.116,-0.17 0.33,-0.416 0.598,-0.801 m -1.99,6.004 c 0.283,-0.461 0.508,-0.864 1.197,-1.602 m -1.197,1.602 c 0.351,-0.389 0.576,-0.582 1.197,-1.602 m 1.796,-2.403 c 0.215,-0.239 0.541,-0.505 0.599,-0.801 m -0.599,0.801 c 0.199,-0.33 0.439,-0.567 0.599,-0.801"
       stroke="#394240"
       stroke-width="1.308"
       fill="none"
       id="path24" />
    <path
       d="m 134.859,181.987 c 1.625,-0.083 2.872,0.034 4.844,0 m -4.844,0 c 1.281,-0.264 2.361,-0.162 4.844,0 m 0,0 c 0.113,-0.525 0.982,-1.001 0.606,-0.572 m -0.606,0.572 c 2.376,-0.514 -1.332,-0.417 0.606,-0.572 m 0,0 c 0.105,-2.063 -0.35,-3.549 0,-4.581 m 0,4.581 c 0.134,-1.135 0.092,-2.522 0,-4.581 m 0,0 c 1.508,-0.592 1.207,-0.821 -0.606,-0.573 m 0.606,0.573 c 0.709,-2.428 -0.407,-1.554 -0.606,-0.573 m 0,0 c -1.478,0.248 -3.541,0.126 -4.844,0 m 4.844,0 c -1.591,-0.12 -2.742,0.206 -4.844,0 m 0,0 c -1.139,-1.891 -2.171,0.167 -0.605,0.573 m 0.605,-0.573 c -0.18,-0.691 -0.593,0.623 -0.605,0.573 m 0,0 c 0.246,1.437 -0.458,2.041 0,4.581 m 0,-4.581 c 0.019,1.385 -0.041,3.126 0,4.581 m 0,0 c -0.991,0.246 1.655,0.056 0.605,0.572 m -0.605,-0.572 c -1.646,-0.891 0.824,0.438 0.605,0.572 m 0,0 c 0,0 0,0 0,0 m 0,0 c 0,0 0,0 0,0 m 0.606,-4.581 c 0.747,0.24 1.374,0.329 3.633,0 m -3.633,0 c 1.173,0.111 2.285,-0.151 3.633,0 m 0,0 c 0.195,0.796 -0.097,2.193 0,3.436 m 0,-3.436 c -0.188,0.767 -0.173,1.636 0,3.436 m 0,0 c -1.479,0.15 -2.617,0.271 -3.633,0 m 3.633,0 c -1.039,0.21 -1.587,0.197 -3.633,0 m 0,0 c -0.017,-0.48 0.327,-1.691 0,-3.436 m 0,3.436 c -0.051,-1.069 -0.093,-2.308 0,-3.436"
       stroke="#394240"
       stroke-width="1"
       fill="none"
       id="path25" />
  </g>
  <g
     id="g27"
     transform="matrix(2.0153182,0,0,2.0147687,41.203054,-37.307324)">
    <path
       d="m 126.95,185.477 c 0,0 0,0 0,0 m 0,0 c 0,0 0,0 0,0 m 0.558,4.741 c 0.405,-1.278 1.966,-3.965 3.269,-4.31 m -3.565,4.858 c 0.823,-1.838 2.044,-3.17 3.228,-5.045 m -2.996,9.547 c 2.263,-1.491 2.518,-3.322 6.417,-8.614 m -5.87,7.52 c 1.538,-1.675 2.867,-4.031 5.15,-7.433"
       stroke="#506c7f"
       stroke-width="0.838"
       fill="none"
       id="path26" />
    <path
       d="m 127.417,185.246 c 0.941,0.321 1.57,0.063 4.541,0.441 m -0.874,0.087 c 0.112,2.223 0.889,4.604 0.248,8.14 m 0.13,-0.437 c -0.892,0.239 -2.262,-0.029 -4.342,-0.174 m -0.227,0.423 c 0.783,-2.545 -0.5,-3.586 0.751,-7.764"
       stroke="#506c7f"
       stroke-width="1"
       fill="none"
       id="path27" />
  </g>
  <g
     id="g29"
     transform="matrix(2.0153182,0,0,2.0147687,41.203054,-37.307324)">
    <path
       d="m 119.684,177.445 c 0,0 0,0 0,0 m 0,0 c 0,0 0,0 0,0 m 0.561,3.039 c 1.317,0.031 1.535,-1.122 3.893,-2.998 m -3.915,3.62 c 0.841,-0.615 1.69,-1.666 3.945,-3.667"
       stroke="#45aab8"
       stroke-width="0.764"
       fill="none"
       id="path28" />
    <path
       d="m 119.941,177.073 c 1.307,0.055 2.681,0.165 3.47,0.599 m -3.568,-0.386 c 0.796,0.038 1.895,0.276 3.691,-0.045 m -0.305,0.299 c -0.132,0.705 -0.248,1.811 -0.077,3.131 m 0.362,-3.253 c -0.154,0.877 -0.133,1.54 0.008,3.487 m -0.006,0.021 c -1.101,-0.462 -2.396,0.092 -3.661,-0.01 m 3.628,-0.06 c -1.285,-0.118 -2.585,0.064 -3.764,-0.092 m -0.028,0.292 c -0.026,-1.111 -0.07,-2.077 -0.16,-3.765 m 0.208,3.639 c -0.193,-1.547 -0.072,-2.665 -0.012,-3.596"
       stroke="#45aab8"
       stroke-width="1"
       fill="none"
       id="path29" />
  </g>
  <g
     id="g31"
     transform="matrix(2.0153182,0,0,2.0147687,41.203054,-37.307324)">
    <path
       d="m 135.488,177.372 c 0,0 0,0 0,0 m 0,0 c 0,0 0,0 0,0 m 1.351,3.615 c 0.568,-1.436 1.439,-1.922 1.955,-3.332 m -1.819,2.992 c 0.862,-1.39 1.506,-2.382 2.086,-3.369"
       stroke="#45aab8"
       stroke-width="1.166"
       fill="none"
       id="path30" />
    <path
       d="m 135.14,177.16 c 1.444,-0.03 2.251,0.217 3.605,0.208 m -3.285,-0.025 c 1.38,0.25 2.499,0.188 3.694,0.189 m -0.16,0.097 c 0.377,0.509 0.36,1.492 -0.093,3.053 m 0.283,-3.327 c 0.119,1.359 0.028,2.757 -0.115,3.391 m 0.183,0.306 c -1.62,0.03 -2.304,-0.33 -3.805,0.112 m 3.684,-0.147 c -0.897,-0.158 -1.69,-0.258 -3.545,0.001 m -0.295,0.009 c -0.087,-1.181 0.191,-1.648 0.479,-3.89 m -0.346,3.845 c 0.113,-1.536 0.054,-2.825 0.168,-3.672"
       stroke="#45aab8"
       stroke-width="1"
       fill="none"
       id="path31" />
  </g>
  <g
     id="g33"
     transform="matrix(0.79104734,0,0,0.70349698,298.50347,188.54029)">
    <path
       d="m 216.477,40.729 c 0,0 0,0 0,0 m 0,0 c 0,0 0,0 0,0 M 208.44,52.87 c 10.209,-6.855 17.947,-13.35 31.152,-26.656 M 208.44,52.87 c 10.496,-8.704 18.959,-17.447 31.152,-26.656 m -38.429,38.148 c 16.923,-15.547 33.513,-29.738 47.868,-40.96 m -47.868,40.96 c 14.18,-12.329 28.15,-25.199 47.868,-40.96 m -49.826,47.9 C 221.409,53.663 243.368,35.681 254.671,23.841 M 199.205,71.302 C 216.398,54.955 233.882,39.717 254.671,23.841 M 197.247,78.242 C 218.859,58.168 239.97,42.139 261.83,22.979 M 197.247,78.242 C 219.818,60.718 240.402,44.1 261.83,22.979 m -65.022,60.903 c 20.769,-21.293 43.448,-41.331 72.181,-61.765 m -72.181,61.765 c 26.59,-23.838 53.807,-47.079 72.181,-61.765 m -72.62,67.405 c 21.931,-19.01 42.086,-36.342 77.5,-66.316 m -77.5,66.316 c 27.209,-21.885 54.055,-45.808 77.5,-66.316 M 196.691,94.511 C 229.659,64.101 263.674,38.58 281.029,22.345 M 196.691,94.511 C 216.249,76.95 235.457,60.532 281.029,22.345 m -83.258,76.506 c 21.244,-16.5 37.146,-31.734 88.138,-75.418 M 197.771,98.851 C 228.82,72.665 261.684,44.398 285.909,23.433 m -87.816,80.407 c 28.903,-27.443 55.578,-49.814 91.936,-78.668 m -91.936,78.668 c 38.04,-30.539 74.099,-60.849 91.936,-78.668 m -91.615,83.658 c 22.792,-17.826 43.681,-36.745 96.495,-82.569 m -96.495,82.569 c 21.221,-15.598 39.844,-32.332 96.495,-82.569 m -95.414,86.909 c 20.387,-18.828 43.13,-36.432 98.775,-84.52 m -98.775,84.52 C 228.693,88.065 259.661,61.642 298.27,28.65 m -97.694,88.859 c 21.015,-17.243 44.756,-35.892 101.814,-87.12 m -101.814,87.12 C 236.758,87.874 271.129,57.504 302.39,30.389 m -100.733,91.46 c 32.56,-25.86 62.33,-51.272 104.093,-89.071 M 201.657,121.849 C 233.721,93.527 264.527,68.271 305.75,32.778 m -102.252,92.76 C 225.244,104.65 245.307,86.582 309.111,35.167 m -105.613,90.371 c 24.343,-21.564 49.147,-42.151 105.613,-90.371 m -103.773,94.06 c 31.406,-25.457 64.528,-54.14 107.133,-91.671 m -107.133,91.671 c 28.768,-26.709 57.406,-52.503 107.133,-91.671 m -105.292,95.361 c 31.692,-27.509 64.942,-56.04 107.893,-92.322 M 207.179,132.917 C 245.481,99.882 285.262,66.306 315.072,40.595 M 209.78,135.956 C 250.797,100.413 293.041,65.708 318.432,42.985 M 209.78,135.956 C 238.851,110.349 266.034,87.261 318.432,42.985 M 212.38,138.995 C 232.287,120.468 253.717,99.572 320.273,46.674 M 212.38,138.995 c 31.016,-28.57 62.316,-55.677 107.893,-92.321 m -105.292,95.36 C 243.576,118.586 270.63,96.256 322.873,49.713 m -107.892,92.321 c 23.163,-19.892 47.009,-41.368 107.892,-92.321 m -106.051,96.011 c 38.752,-31.306 76.485,-64.763 108.652,-92.972 m -108.652,92.972 c 24.363,-20.326 46.054,-39.332 108.652,-92.972 m -105.292,95.361 c 37.919,-32.988 78.701,-68.647 107.133,-91.671 m -107.133,91.671 c 30.462,-27.288 61.039,-54.274 107.133,-91.671 m -103.772,94.06 C 259.149,124.9 291.709,94.06 329.156,60.131 m -105.613,90.371 c 24.175,-20.567 48.834,-42.6 105.613,-90.371 m -103.013,93.41 c 29.061,-26.259 59.834,-49.045 104.853,-89.721 m -104.853,89.721 c 41.579,-36.209 83.05,-71.787 104.853,-89.721 m -101.492,92.11 c 24.697,-19.134 48.09,-38.91 104.093,-89.07 m -104.093,89.07 c 35.9,-27.688 68.47,-57.664 104.093,-89.07 m -100.733,91.459 c 32.362,-30.098 66.174,-60.382 101.814,-87.12 m -101.814,87.12 c 30.874,-27.226 61.922,-54.346 101.814,-87.12 m -97.694,88.859 c 37.258,-31.179 78.666,-66.533 98.775,-84.519 m -98.775,84.519 c 27.743,-25.122 54.667,-48.378 98.775,-84.519 m -95.414,86.908 c 23.666,-22.34 47.713,-45.167 96.495,-82.569 m -96.495,82.569 c 24.481,-22.613 48.712,-43.905 96.495,-82.569 m -91.615,83.658 c 20.931,-19.022 39.665,-36.181 91.936,-78.668 m -91.936,78.668 c 36.15,-28.518 69.15,-57.864 91.936,-78.668 m -87.816,80.407 c 29.951,-27.761 62.85,-53.377 88.897,-76.068 m -88.897,76.068 c 24.067,-19.598 48.576,-40.289 88.897,-76.068 m -84.017,77.157 c 22.932,-19.126 46.15,-34.543 84.338,-72.167 m -84.338,72.167 c 20.546,-18.534 42.284,-35.812 84.338,-72.167 m -79.458,73.256 c 21.621,-20.695 44.919,-42.356 79.02,-67.616 m -79.02,67.616 c 29.015,-21.774 54.011,-45.591 79.02,-67.616 m -71.861,66.754 c 16.134,-13.947 31.83,-26.251 69.143,-59.164 m -69.143,59.164 c 16.453,-15.898 34.344,-28.795 69.143,-59.164 m -61.983,58.302 c 15.653,-11.43 28.494,-25.308 60.024,-51.362 m -60.024,51.362 c 15.224,-12.838 30.65,-26.886 60.024,-51.362 m -52.865,50.501 c 13.024,-14.982 29.632,-24.454 50.907,-43.561 m -50.907,43.561 c 12.229,-11.985 26.987,-24.105 50.907,-43.561 m -40.708,40.098 c 8.964,-7.992 16.651,-13.562 35.711,-30.557 m -35.711,30.557 c 7.539,-7.589 16.602,-14.599 35.711,-30.557"
       stroke="#ffffff"
       stroke-width="1.535"
       fill="none"
       id="path32" />
    <path
       d="M 336.889,92.643 C 335.862,53.458 306.576,18.856 266.208,19.526 m 70.681,73.117 C 335.241,49.994 305.499,19.616 266.208,19.526 m 0,0 C 226.625,20.06 194.901,52.35 195.526,92.643 m 70.682,-73.117 c -37.154,1.928 -70.867,32.693 -70.682,73.117 m 0,0 c -1.776,39.818 29.749,71.175 70.682,73.117 M 195.526,92.643 c -1.141,40.2 30.396,72.798 70.682,73.117 m 0,0 c 37.18,-1.909 71.885,-34.66 70.681,-73.117 m -70.681,73.117 c 38.48,-0.05 70.702,-31.481 70.681,-73.117 m 0,0 c 0,0 0,0 0,0 m 0,0 c 0,0 0,0 0,0"
       stroke="#ffffff"
       stroke-width="1"
       fill="none"
       id="path33" />
  </g>
  <g
     id="g34"
     transform="matrix(0.79104734,0,0,0.70349698,298.50347,188.54029)">
    <path
       d="M 336.889,92.643 C 335.182,51.607 305.18,20.412 266.208,19.526 m 0,0 C 226.995,21.491 195.4,53.497 195.526,92.643 m 0,0 c -0.002,38.732 30.817,74.234 70.682,73.117 m 0,0 c 40.226,0.038 71.353,-31.029 70.681,-73.117 m 0,0 c 0,0 0,0 0,0 m -17.669,0 c 5.585,1.532 13.873,0.235 17.669,0 M 312.118,65.224 c 3.611,-1.259 7.793,-3.089 15.304,-9.141 m -34.708,-10.93 c 2.166,-4.075 4.964,-9 8.836,-15.831 m -35.342,8.482 c -0.176,-6.893 -0.951,-11.137 0,-18.278 m -26.506,25.627 c -1.978,-4.345 -5.141,-10.955 -8.837,-15.831 m -10.566,35.902 c -4.845,-3.401 -6.513,-2.47 -15.303,-9.141 m 8.2,36.56 c -6.204,0.21 -10.417,1.237 -17.67,0 m 24.773,27.419 c -5.807,1.773 -11.678,6.229 -15.303,9.141 m 34.706,10.933 c -1.638,4.181 -5.059,5.354 -8.837,15.831 m 35.343,-8.485 c -0.034,6.645 -2.052,10.396 0,18.278 m 26.506,-25.624 c 4.041,3.698 5.608,12.575 8.836,15.831 m 10.568,-35.905 c 4.246,2.444 8.816,5.95 15.304,9.141"
       stroke="#000000"
       stroke-width="1.051"
       fill="none"
       id="path34" />
  </g>
  <g
     id="g35"
     transform="matrix(0.79104734,0,0,0.70349698,298.50347,188.54029)">
    <path
       d="m 266.958,92.192 c 10.653,-9.285 18.726,-21.07 25.561,-30"
       stroke="#000000"
       stroke-width="2.105"
       fill="none"
       id="path35" />
  </g>
  <g
     id="g36"
     transform="matrix(0.79104734,0,0,0.70349698,298.50347,188.54029)">
    <path
       d="m 265.749,91.286 c 6.718,10.254 10.061,17.64 12.895,23.51 M 266.268,92.024 c 5.79,7.582 9.517,17.001 13.443,20.763"
       stroke="#000000"
       stroke-width="3.744"
       fill="none"
       id="path36" />
  </g>
  <g
     id="g7"
     transform="matrix(2.0153182,0,0,2.0147687,33.316577,67.378006)">
    <path
       d="m 155.317,190.712 c -0.383,-57.051 0.961,-117.466 1.775,-169.594"
       stroke="#000000"
       stroke-width="2.105"
       fill="none"
       id="path7"
       sodipodi:nodetypes="cc" />
  </g>
</svg>
