<?xml version="1.0" encoding="UTF-8" standalone="no"?>
<!-- Generator: Adobe Illustrator 17.0.0, SVG Export Plug-In . SVG Version: 6.00 Build 0)  -->

<svg
   version="1.1"
   id="Layer_1"
   x="0px"
   y="0px"
   width="205"
   height="250"
   viewBox="0 0 205 250"
   enable-background="new 0 0 800 600"
   xml:space="preserve"
   sodipodi:docname="49.svg"
   inkscape:version="1.3.2 (091e20e, 2023-11-25, custom)"
   xmlns:inkscape="http://www.inkscape.org/namespaces/inkscape"
   xmlns:sodipodi="http://sodipodi.sourceforge.net/DTD/sodipodi-0.dtd"
   xmlns="http://www.w3.org/2000/svg"
   xmlns:svg="http://www.w3.org/2000/svg"><defs
   id="defs72" /><sodipodi:namedview
   id="namedview72"
   pagecolor="#ffffff"
   bordercolor="#000000"
   borderopacity="0.25"
   inkscape:showpageshadow="2"
   inkscape:pageopacity="0.0"
   inkscape:pagecheckerboard="0"
   inkscape:deskcolor="#d1d1d1"
   inkscape:zoom="2.035"
   inkscape:cx="400"
   inkscape:cy="300"
   inkscape:window-width="2560"
   inkscape:window-height="1417"
   inkscape:window-x="-8"
   inkscape:window-y="-8"
   inkscape:window-maximized="1"
   inkscape:current-layer="Layer_1" />
<g
   id="g72"
   transform="matrix(-1.0540991,0,0,1,517.43564,-181.81818)">
	<path
   d="m 482.82,362.674 c -0.078,-5.5 -1.142,-10.865 -6.296,-13.122 -1.147,-5.159 -4.476,-10.917 -7.04,-15.859 -1.804,-3.473 -4.162,-5.323 -7.882,-4.861 -0.322,-2.478 -0.654,-4.952 -0.926,-7.408 -0.95,-8.6 -1.114,-17.277 -2.333,-25.841 -0.537,-3.767 -1.48,-9.743 -2.771,-12.508 -1.384,-2.966 -4.505,-3.712 -6.288,-0.893 -2.497,3.952 -2.164,9.107 -2.007,13.579 0.252,7.221 1.736,14.366 2.692,21.512 0.723,5.399 0.816,11.216 1.171,17.016 -1.685,0.412 -2.597,2.075 -3.095,3.632 -0.501,0.111 -0.934,0.255 -1.395,0.535 -0.596,-1.786 -1.729,-3.306 -2.798,-4.858 -0.257,-0.372 -0.601,-0.547 -1.06,-0.087 -0.686,-0.982 -1.726,-1.457 -2.077,-0.996 -1.237,1.623 -2.254,3.639 -2.977,5.248 -4.738,-2.332 -11.308,-4.37 -15.092,-0.065 -2.057,-1.499 -8.693,-7.237 -9.852,-8.373 0.613,-1.33 1.124,-3.439 1.287,-4.474 -1.885,-2.527 -15.506,-11.086 -19.283,-11.555 -5.542,-5.157 -8.076,-5.484 -9.531,-4.561 0.079,-1.822 0.271,-3.93 0.271,-5.616 5.723,-1.414 12.747,-6.75 12.527,-7.855 -1.583,-8.008 -0.77,-19.418 -0.512,-23.49 0.497,-7.909 1.455,-16.207 2.054,-23.487 1.063,1.102 2.04,1.328 3.916,1.138 3.481,-0.353 6.618,-2.863 8.296,-5.85 1.564,-2.79 1.458,-7.135 -1.738,-8.819 -2.371,-1.249 -6.086,-0.359 -8.463,1.612 0.431,-4.396 1.672,-10.006 3.428,-16.001 1.833,-6.258 4.925,-13.36 7.923,-17.514 -1.243,-4.153 -4.325,-5.009 -7.197,-6.382 -3.193,-1.526 -6.464,-5.608 -7.191,-8.305 -1.756,0.514 -3.556,3.364 -3.507,5.342 -3.087,-2.002 -8.011,-6.37 -9.596,-9.025 -2.296,0.461 -3.109,6.416 -2.259,9.037 -1.817,-0.679 -3.736,-1.006 -5.742,-0.671 -3.738,0.624 -8.192,2.867 -9.127,6.928 1.455,0.249 3.8,0.43 5.651,0.763 -2.784,1.756 -3.939,5.567 -3.383,7.108 0.659,-0.164 2.282,-0.466 2.955,-0.556 -0.558,4.153 -2.228,12.889 -4.231,18.375 -1.589,-0.098 -3.023,0.738 -3.873,2.391 -0.262,0.507 0.436,0.901 0.805,0.523 0.602,-0.618 1.643,-1.055 2.688,-1.304 -0.228,1.093 -0.367,2.193 -0.371,3.302 -2.029,0.179 -3.787,2.442 -4.53,4.221 -0.92,2.198 -0.808,6.62 2.147,7.134 -2.312,6.937 -6.592,11.701 -10.888,16.93 -2.263,2.752 -4.753,5.304 -7.418,7.664 -2.989,2.646 -6.608,5.01 -10.229,6.326 -0.262,0.095 5.828,7.145 24.585,5.875 0.376,4.137 0.376,16.265 -1.692,23.222 -0.076,0.254 5.829,2.727 15.7,2.898 0.036,1.266 -0.078,2.415 -0.283,3.101 -5.16,-2.754 -13.931,3.448 -14.195,7.257 0.752,0.095 1.763,0.078 2.352,0.188 -1.496,0.766 -4.169,2.256 -5.272,3.291 -1.103,1.035 -1.993,1.84 -3.647,2.535 -0.545,-0.263 -1.064,-0.206 -1.493,0.134 -0.385,-0.228 -0.872,-0.299 -1.487,-0.129 -0.584,0.162 -1.15,0.639 -1.596,1.232 -2.298,0.45 -6.099,0.924 -8.024,0.636 0.038,1.725 -0.087,3.809 -0.274,5.352 -1.605,-0.087 -3.899,-0.024 -5.518,0.368 -2.844,0.69 -6.623,0.122 -8.119,-0.442 0.088,-1.705 0.19,-3.464 0.243,-5.172 0.054,-1.725 0.673,-3.329 1.119,-4.979 0.434,-1.604 0.872,-3.741 -0.593,-4.924 -1.371,-1.107 -3.815,-0.13 -5.226,0.351 -0.123,0.042 -0.241,0.082 -0.362,0.125 2.863,-1.418 5.846,-2.929 7.319,-5.886 1.997,-4.011 2.562,-10.884 0.633,-10.787 -0.142,1.551 -0.424,2.963 -1.329,4.437 -1.103,1.797 -2.801,3.292 -4.354,4.679 -2.161,1.932 -5.017,4.351 -5.362,7.428 -0.021,0.038 -0.043,0.074 -0.063,0.111 0.107,-3.706 0.859,-7.327 0.854,-11.056 -0.008,-4.378 -0.203,-8.192 -1.092,-12.05 1.435,-1.808 1.947,-4.136 2.397,-6.442 0.483,-2.474 -0.365,-7.206 -1.69,-10.081 1.601,0.706 2.993,3.41 3.899,5.109 0.932,1.747 1.909,3.26 3.892,3.803 3.377,0.925 5.384,-3.76 5.626,-6.255 0.379,-3.898 -0.406,-7.753 -3.566,-10.313 -1.954,-1.584 -4.892,-2.239 -7.453,-1.792 1.603,-2.319 7.252,-2.932 10.169,-9.051 1.646,-3.451 1.883,-8.331 -1.984,-10.118 -4.799,-2.216 -9.67,4.308 -11.752,10.524 -0.358,-1.323 -1.183,-2.425 -2.914,-3.051 -2.658,-0.961 -4.934,1.907 -5.961,3.866 -2.1,4.004 -3.576,10.425 -0.783,12.478 -2.354,1.036 -4.282,3.531 -5.225,5.272 -2.063,3.816 -2.762,8.873 0,12.567 3.625,4.849 5.319,-4.283 6.6,-5.776 -0.61,4.708 -0.179,13.45 4.829,11.896 0.591,-0.184 1.124,-0.435 1.615,-0.731 1.219,6.381 0.459,17.862 0.271,21.325 -0.501,-2.265 -0.988,-4.477 -2.178,-6.547 -0.794,-1.38 -2.084,-2.485 -3.31,-3.46 -1.868,-1.484 -3.31,-3.101 -3.859,-5.368 -1.474,0.902 -0.85,9.151 0.38,12.503 1.001,2.73 3.564,4.894 6.413,5.283 -0.984,0.225 -1.987,0.406 -3.028,0.513 -0.424,0.042 -0.713,0.433 -0.68,0.846 0.028,0.343 0.09,0.657 0.175,0.951 -2.361,0.602 -4.888,3.055 -3.244,4.845 -1.691,0.621 -1.811,2.853 -0.434,4.24 0.454,0.457 0.994,0.793 1.584,1.053 -0.626,0.738 -0.763,1.875 0.027,2.741 0.631,0.693 1.42,1.068 2.275,1.299 -0.436,0.894 0.317,2.013 0.742,2.592 1.047,1.431 2.868,3.453 5.002,3.207 -0.197,4.243 -0.796,9.189 -2.335,13.023 0.495,0.663 2.909,1.017 3.758,0.344 0.701,-2.848 1.643,-11.601 0.338,-15.677 1.795,0.813 4.189,1.466 6.309,0.813 1.975,-0.608 2.477,-1.938 2.865,-4.238 2.102,0.832 10.355,1.678 12.031,1.103 -0.237,1.121 -0.44,2.245 -0.495,3.371 2.504,-0.77 9.288,-1.843 14.273,-1.783 -3.645,9.338 -5.739,19.836 -9.616,29.078 -0.158,0.376 0.558,0.557 1.18,0.731 -6.974,8.795 -21.124,18.157 -30.672,20.662 -6.099,-3.52 -12.909,-5.032 -15.979,-4.054 1.055,8.976 10.581,15.772 18.139,19.071 2.456,1.073 4.878,2.024 7.545,2.738 -0.133,0.354 -0.267,1.379 -0.185,1.972 5.363,3.644 13.76,4.216 19.592,3.414 0.383,-0.596 0.711,-1.781 1.01,-2.879 0.725,0.076 1.943,0.102 2.327,0.076 7.345,-9.081 15.709,-19.593 24.3,-28.154 2.755,1.058 5.534,2.079 8.081,3.598 6.534,3.893 11.346,9.073 15.227,15.465 -2.564,1.081 -4.433,2.639 -6.317,4.435 -2.659,2.534 -5.629,6.478 -7.374,9.688 1.735,1.112 11.93,-0.032 17.304,-1.72 5.196,-1.632 9.856,-4.681 14.046,-8.088 1.638,-1.332 3.183,-2.772 4.659,-4.281 0.141,0.145 1.1,1.193 1.647,1.492 2.938,-1.291 11.172,-9.614 14.11,-18.393 -0.348,-0.626 -1.764,-1.977 -2.137,-2.349 0.452,-1.105 0.757,-3.072 0.87,-4.309 2.485,2.38 4.872,4.865 7.411,7.28 5.003,4.759 10.263,11.678 17.257,13.487 9.266,2.396 17.412,-8.008 23.02,-13.924 2.534,-2.673 5.102,-5.53 5.747,-9.254 0.521,-3.002 -1.585,-6.073 -3.448,-8.441 z m -65.475,4.859 c -3.604,-1.982 -7.213,-4.325 -11.24,-5.311 -0.411,-4.972 -1.696,-12.129 -3.55,-17.844 -1.41,-4.348 -2.962,-9.092 -5.178,-13.254 2.251,1.408 7.409,7.68 9.97,10.624 1.034,-1.112 2.261,-4.142 3.026,-6.132 1.727,1.534 8.048,6.784 9.017,7.86 -0.302,0.62 -2.133,4.971 -2.311,6.512 -0.048,0.416 3.136,2.37 4.248,3.536 1.961,2.059 1.999,3.134 2.458,4.245 -0.911,0.98 -2.09,3.393 -2.281,5.194 -0.191,1.8 8.931,8.285 10.953,10.202 -5.256,-0.898 -10.406,-3.043 -15.112,-5.632 z m 24.013,-27.713 c 0.439,-0.829 1.17,-1.507 1.398,-1.596 0.228,-0.089 0.919,1.188 1.303,1.948 -0.449,0.329 -0.86,0.686 -1.223,1.091 -0.352,-0.54 -0.892,-1.024 -1.478,-1.443 z m -14.314,10.891 c 0.88,0.282 1.698,0.711 2.467,1.241 -0.424,0.446 -0.87,0.985 -1.305,1.588 -0.175,-0.941 -0.565,-1.841 -1.051,-2.659 -0.037,-0.061 -0.074,-0.113 -0.111,-0.17 z"
   id="path1" />
	<path
   fill="#ffffff"
   d="m 329.073,305.257 c -1.503,2.447 -5.247,4.235 -7.363,6.931 1.456,-3.063 4.094,-5.244 6.726,-7.488 0.648,-0.553 2.419,-2.391 3.406,-4.979 0.472,2.683 -0.517,5.648 -2.164,8.237 -1.648,2.589 -5.862,4.227 -8.331,5.978 0.94,-1.742 2.106,-2.839 3.406,-3.985 1.301,-1.145 2.292,-1.676 3.544,-3.124 0.859,-0.996 0.843,-1.678 0.776,-1.57 z"
   id="path2" />
	<path
   fill="#ffffff"
   d="m 320.759,302.511 c -0.07,4.206 -0.992,8.307 -0.778,12.507 -0.329,0.283 -0.8,0.235 -1.082,0.141 0.308,-3.378 1.224,-15.675 0.078,-23.352 0.314,-0.252 0.602,-0.531 0.871,-0.825 0.745,3.654 0.979,7.373 0.911,11.529 z"
   id="path3" />
	<path
   fill="#ffffff"
   d="m 330.007,266.628 c 2.958,1.988 3.802,6.393 3.624,9.649 -0.123,2.284 -1.094,4.773 -3.577,5.272 -2.332,0.468 -3.808,-2.909 -4.659,-4.472 -1.084,-1.992 -2.359,-4.233 -4.754,-4.895 0.794,-1.738 1.097,-4.779 0.83,-6.274 2.276,-1.115 6.197,-0.853 8.536,0.72 z"
   id="path4" />
	<path
   fill="#ffffff"
   d="m 322.806,252.13 c 1.221,-2.179 3.362,-5.102 5.789,-5.931 1.931,-0.659 3.311,-0.326 4.537,1.759 2.01,3.415 -0.93,9.063 -3.736,11.14 -2.812,2.079 -6.003,3.451 -8.163,5.936 -0.169,-0.853 -0.779,-1.559 -1.287,-1.819 -0.53,-2.33 0.511,-6.892 2.86,-11.085 z"
   id="path5" />
	<path
   fill="#ffffff"
   d="m 320.264,268.652 c -0.471,2.496 -1.741,5.037 -2.541,6.731 -0.802,1.695 -2.072,3.342 -3.955,3.013 -1.883,-0.33 -1.997,-3.764 -1.836,-5.036 0.377,-2.965 1.921,-6.204 3.86,-8.238 0.683,-0.717 1.746,-1.44 2.824,-1.271 1.406,0.221 2.118,2.307 1.648,4.801 z"
   id="path6" />
	<path
   fill="#ffffff"
   d="m 311.507,258.099 c 0.943,-2.18 3.572,-6.462 6.559,-3.395 2.412,2.474 0.278,5.436 0.956,8.098 -2.947,-0.409 -6.006,3.733 -6.713,6.086 -3.871,-1.361 -1.938,-8.169 -0.802,-10.789 z"
   id="path7" />
	<path
   fill="#ffffff"
   d="m 308.669,285.365 c -2.432,4.246 -4.521,-2.125 -4.065,-5.865 0.455,-3.74 3.809,-9.237 7.139,-9.671 -1.553,3.907 -0.961,7.611 0.391,9.091 -1.571,1.292 -2.731,5.163 -3.465,6.445 z"
   id="path8" />
	<path
   fill="#ffffff"
   d="m 317.864,291.228 c -5.685,4.349 -5.233,-8.311 -5.096,-11.763 3.683,1.944 6.178,-2.198 7.354,-5.823 2.538,5.611 3.266,13.359 -2.258,17.586 z"
   id="path9" />
	<path
   fill="#ffffff"
   d="m 314.228,314.543 c -1.676,-0.695 -2.784,-2.215 -3.554,-3.792 -1.435,-2.934 -1.376,-6.142 -1.352,-9.323 0.721,1.178 1.899,2.146 3.018,3.007 2.295,1.765 3.614,3.913 4.403,6.677 0.294,1.027 0.419,2.029 0.727,2.974 -1.114,-0.057 -2.291,-1.422 -3.327,-2.976 -1.245,-1.867 -2.19,-3.574 -3.206,-5.567 -0.084,-0.163 -0.183,0.437 0.1,1.19 0.875,2.332 1.587,3.47 3.002,5.533 0.524,0.762 1.601,2.12 2.757,2.897 -0.87,-0.124 -1.73,-0.273 -2.568,-0.62 z"
   id="path10" />
	<path
   fill="#ffffff"
   d="m 312.815,319.538 c 1.009,1.238 3.013,2.108 4.77,2.447 1.317,0.255 2.608,0.092 3.75,-0.39 3.278,1.082 2.645,3.455 2.272,3.339 -1.568,-0.491 -5.256,-0.991 -6.596,-1.151 -1.308,-0.159 -2.615,-0.277 -3.918,-0.472 -0.854,-0.128 -1.707,-0.303 -2.509,-0.633 -1.808,-0.748 1.131,-2.661 2.231,-3.14 z"
   id="path11" />
	<path
   fill="#ffffff"
   d="m 310.02,323.83 c 1.864,0.785 4.698,1.092 5.98,1.23 4.787,0.512 7.289,1.003 8.393,1.788 2.036,1.448 1.275,3.728 0.123,3.581 -1.799,-0.23 -5.023,-1.049 -6.74,-1.601 -1.15,-0.371 -2.313,-0.505 -3.507,-0.669 -0.877,-0.122 -1.738,-0.298 -2.596,-0.516 -0.926,-0.239 -4.547,-2.209 -1.653,-3.813 z"
   id="path12" />
	<path
   fill="#ffffff"
   d="m 311.119,328.849 c 2.029,0.632 4.461,0.621 6.294,1.208 1.561,0.5 4.419,1.684 6.587,1.744 0.222,0.908 -0.321,1.719 -1.742,1.643 -1.26,-0.067 -3.014,-0.726 -4.23,-1.041 -1.537,-0.398 -8.84,-0.956 -6.909,-3.554 z"
   id="path13" />
	<path
   fill="#ffffff"
   d="m 318.285,337.27 c -0.766,0.732 -5.102,-2.502 -4.903,-4.561 1.142,0.188 2.501,0.305 3.584,0.565 0.975,0.661 2.374,2.99 1.319,3.996 z"
   id="path14" />
	<path
   fill="#ffffff"
   d="m 318.973,351.119 c -0.613,0.156 -1.472,-0.04 -1.718,-0.359 1.043,-3.744 1.816,-10.326 1.845,-12.671 0.22,-0.169 0.394,-0.391 0.519,-0.651 0.727,2.383 0.235,9.496 -0.646,13.681 z"
   id="path15" />
	<path
   fill="#ffffff"
   d="m 341.575,332.453 c -4.011,0.256 -9.211,0.035 -14.018,-1.044 -0.221,-0.049 0.073,0.515 0.98,0.907 -0.639,2.845 -1.84,3.335 -4.467,3.507 -1.425,0.093 -2.886,-0.046 -4.209,-0.573 -0.132,-0.425 -0.282,-0.845 -0.465,-1.258 1.368,0.4 2.768,0.697 4.149,0.346 1.256,-0.318 1.646,-1.531 1.479,-2.652 2.777,0.237 2.36,-4.668 -0.19,-6.091 1.323,-1.545 -0.39,-4.086 -2.135,-4.855 2.748,-1.496 2.246,-5.036 1.741,-4.096 -0.977,1.824 -2.455,3 -4.599,3.572 -3.888,1.038 -7.438,-2.421 -5.848,-2.567 4.022,-0.367 8.745,-2.723 13.429,-3.447 2.995,-0.462 0.781,5.806 0.54,6.97 -0.441,2.118 -0.293,5.342 0.133,7.514 4.881,1.889 9.124,-0.024 14.004,0.81 -0.065,0.763 -0.355,2.175 -0.524,2.957 z"
   id="path16" />
	<path
   fill="#ffffff"
   d="m 448.938,290.081 c 0.036,-1.875 0.647,-5.096 1.845,-7.237 1.2,-2.141 3.117,-0.962 3.811,0.557 2.27,4.967 2.958,16.49 3.966,22.68 1.011,6.214 0.823,12.6 1.372,18.868 0.4,4.573 1.428,11.038 1.898,18.062 -0.559,1.373 -3.667,9.931 -5.023,12.786 -3.124,-10.281 -3.764,-20.316 -4.43,-31.057 -0.721,-11.627 -3.655,-22.965 -3.439,-34.659 z"
   id="path17" />
	<path
   fill="#ffffff"
   d="m 448.642,340.91 c 0.6,-2.912 1.157,-4.882 2.585,-5.308 0.513,7.442 1.997,16.314 4.866,21.752 -0.838,1.566 -2.098,3.297 -4.104,4.223 -3.545,-2.613 -3.989,-7.263 -4.202,-11.331 -0.098,-1.831 0.256,-6.425 0.855,-9.336 z"
   id="path18" />
	<path
   fill="#ffffff"
   d="m 450.686,362.31 c -1.065,0.526 -2.183,0.899 -3.325,1.162 -1.138,-1.156 -2.023,-2.251 -3.027,-3.698 -0.639,-2.643 -3.295,-2.799 -4.699,-1.751 3.515,-6.831 5.703,-10.557 6.949,-10.267 -0.324,5.307 0.204,11.317 4.102,14.554 z"
   id="path19" />
	<path
   fill="#ffffff"
   d="m 426.2,363.02 c 0.504,0.357 1.733,0.921 3.05,1.427 -0.739,-0.127 -1.475,-0.283 -2.186,-0.553 -1.044,-0.397 -2.11,-0.828 -2.551,-1.908 -0.349,-0.856 -0.195,-2.156 0.307,-3.028 0.114,0.153 0.477,0.228 0.764,0.159 -0.417,2.082 -0.304,3.25 0.616,3.903 z"
   id="path20" />
	<path
   fill="#ffffff"
   d="m 424.404,363.278 c 1.043,0.787 2.368,1.335 3.626,1.712 -2.25,-0.396 -4.281,-0.982 -4.934,-1.472 -1.03,-0.773 -0.048,-3.662 1.119,-4.84 -0.862,1.577 -0.966,3.728 0.189,4.6 z"
   id="path21" />
	<path
   fill="#ffffff"
   d="m 434.233,365.278 c -1.609,-0.46 -4.769,-1.495 -6.652,-2.54 -1.406,-0.78 -1.347,-2.361 -0.717,-4.117 0.704,-0.629 1.122,-1.75 1.314,-2.785 0.719,-1.296 1.492,-2.515 1.975,-3.413 0.355,0.286 0.699,0.591 1.027,0.925 -1.587,1.841 -2.69,4.468 -3.228,6.706 -0.07,0.292 0.038,0.57 0.29,0.735 2.685,1.754 6.265,3.366 9.374,4.222 -0.425,0.879 -1.772,0.726 -3.383,0.267 z"
   id="path22" />
	<path
   fill="#ffffff"
   d="m 436.675,363.605 c 0.517,-1.234 1.419,-2.883 2.254,-3.895 0.829,-1.007 2.874,-1.864 3.964,-0.597 1.299,1.509 0.335,3.411 -0.759,5.079 -1.889,0.163 -4.716,-0.208 -5.459,-0.587 z"
   id="path23" />
	<path
   fill="#ffffff"
   d="m 443.951,362.335 c 0.133,-0.361 0.244,-0.755 0.318,-1.158 0.628,0.861 1.308,1.69 1.971,2.519 -1.007,0.166 -2.03,0.255 -3.058,0.28 0.313,-0.519 0.562,-1.084 0.769,-1.641 z"
   id="path24" />
	<path
   fill="#ffffff"
   d="m 447.737,339.489 c -0.209,1.101 -0.558,2.738 -0.659,3.479 -0.144,1.051 -0.252,2.068 -0.359,3.272 -2.544,-0.556 -6.904,8.78 -8.381,12.7 -0.973,1.161 -1.775,2.765 -2.163,4.375 -2.124,-1.232 -4.246,-2.447 -6.508,-3.438 -0.523,-0.227 -0.147,-1.468 0.474,-2.863 2.228,1.059 4.538,1.24 6.108,0.524 1.533,-0.701 1.788,-2.204 1.367,-3.65 1.23,0.046 2.195,-0.634 2.571,-1.295 0.805,-1.418 0.225,-2.729 -0.038,-3.334 -0.263,-0.605 1.188,-0.191 2.046,-1.594 0.409,-0.668 0.287,-2.088 -0.311,-2.75 0.752,-0.53 1.102,-1.174 1.351,-2.514 1.284,-1.188 3.009,-2.491 4.502,-2.912 z"
   id="path25" />
	<path
   fill="#ffffff"
   d="m 443.215,334.43 c 0.384,-0.039 2.179,2.915 2.684,4.521 -0.345,0.231 -0.805,0.5 -1.149,0.729 -0.485,-0.863 -0.922,-1.791 -1.605,-2.462 -0.221,-0.218 -0.564,-0.1 -0.746,0.091 -0.618,0.649 -1.329,1.261 -1.699,2.073 -0.374,-0.233 -0.724,-0.43 -1.045,-0.607 1.569,-2.467 3.178,-4.306 3.56,-4.345 z"
   id="path26" />
	<path
   fill="#ffffff"
   d="m 441.107,333.356 c 0.292,-0.242 0.844,0.191 1.087,0.658 -1.258,1.239 -2.16,2.864 -3.036,4.372 -0.02,0.034 -0.015,0.067 -0.021,0.102 -0.267,-0.148 -0.545,-0.295 -0.828,-0.443 0.857,-1.567 2.506,-4.447 2.798,-4.689 z"
   id="path27" />
	<path
   fill="#ffffff"
   d="m 424.234,340.332 c 0.243,0.165 -0.115,-1.271 -0.563,-1.688 0.997,-1.074 2.359,-1.711 4.177,-1.993 2.673,-0.414 6.251,1.024 8.599,2.048 1.004,0.437 1.975,0.915 2.929,1.453 2.531,1.429 1.951,3.325 0.927,5.276 -0.167,0.316 0.307,0.345 0.996,-0.153 0.195,0.885 0.576,2.223 -0.842,2.606 -1.036,0.28 -1.923,0.704 -2.376,1.571 -0.123,0.235 0.76,-0.056 1.188,-0.153 0.116,0.728 0.384,1.571 0,2.414 -0.335,0.739 -1.034,1.15 -1.993,1.073 -0.957,-0.077 -1.686,0.192 -2.031,0.537 -0.344,0.345 0.537,0.537 1.111,0.575 0.575,0.038 0.499,1.878 -1.303,2.452 -0.999,0.319 -2.798,0.383 -4.34,-0.539 0.342,-0.687 0.697,-1.355 0.991,-1.901 0.552,0.485 0.895,0.868 1.248,1.211 0.46,0.448 0.53,-0.726 -0.121,-1.722 -1.958,-2.994 -4.967,-5.342 -9.083,-4.024 -0.957,0.307 -1.23,1.057 -0.811,1.001 0.525,-0.07 1.616,-0.091 2.115,-0.081 0.889,1.217 1.493,2.184 1.686,3.985 0.139,1.304 -0.461,2.759 -1.188,3.373 -0.729,0.612 -0.921,-2.3 -2.989,-4.792 -1.527,-1.838 -3.939,-2.505 -4.115,-3.322 -0.177,-0.816 2.506,-6.449 3.023,-7.855 0.098,-0.264 -0.986,0.124 -1.186,0.361 -0.804,-0.847 -7.417,-6.544 -9.447,-8.001 0.289,-0.71 1.149,-2.877 1.452,-3.456 1.582,1.886 9.103,7.823 11.946,9.744 z"
   id="path28" />
	<path
   fill="#ffffff"
   d="m 386.192,309.633 c 1.609,-0.498 4.791,1.916 5.682,2.956 -6.219,2.256 -12.049,8.351 -13.882,11.607 -0.295,-1.988 1.763,-8.009 4.866,-11.88 1.364,-1.7 2.658,-2.473 3.334,-2.683 z"
   id="path29" />
	<path
   fill="#ffffff"
   d="m 371.862,206.491 c 0.257,-2.312 1.97,-4.924 3.324,-5.691 1.591,0.33 3.17,0.762 4.744,1.155 0.363,0.09 -3.914,-3.257 -9.609,-3 0.898,-1.841 3.275,-3.66 6.209,-4.454 3.737,-1.011 8.307,0.942 12.118,2.912 0.409,0.211 -2.34,-2.456 -3.681,-3.13 -1.072,-2.094 -0.943,-6.205 0.181,-8.022 3.584,4.829 7.611,7.77 11.936,10.167 1.727,0.957 3.157,0.973 2.846,0.748 -1.301,-0.944 -2.594,-1.906 -3.874,-2.888 0.086,-1.843 1.071,-3.812 2.074,-4.393 0.45,2.485 1.951,3.92 4.82,6.276 2.869,2.355 6.895,2.997 8.153,6.581 -4.757,4.65 -10.593,22.495 -11.211,35.564 -1.1,-0.323 -3.45,-0.265 -3.964,-0.308 -0.515,-0.043 -0.172,-3.382 0.295,-7.769 0.563,-5.291 1.651,-10.514 2.439,-15.771 0.338,0.193 1.775,0.912 2.104,1.101 0.398,0.231 -0.855,-1.584 -4.024,-3.726 -2.277,-1.538 -5.888,-3.311 -8.993,-4.368 -4.9,-1.666 -10.998,-3.252 -15.887,-0.984 z"
   id="path30" />
	<path
   fill="#ffffff"
   d="m 366.852,240.92 c -1.128,-0.105 -1.923,-0.924 -2.165,-1.865 -0.447,-1.732 -0.232,-3.574 0.796,-5.244 1.513,-2.458 4.366,-3.683 5.542,-0.476 -0.606,-0.119 -1.646,0.434 -2.074,1.375 -0.643,1.413 0.126,3.956 2.439,2.698 -0.257,2.029 -2.226,3.726 -4.538,3.512 z"
   id="path31" />
	<path
   fill="#ffffff"
   d="m 363.013,300.576 c 1.692,-5.029 1.57,-18.339 0.527,-22.088 6.878,-0.674 14.93,-3.103 17.712,-9.359 0.376,-0.846 0.021,-6.675 -0.863,-9.91 -0.075,-0.279 -0.461,-0.146 -0.46,0.105 0.022,3.123 0.166,7.114 -0.219,9.282 -0.386,2.168 -7.748,6.91 -18.295,7.527 -8.038,0.47 -18.286,-1.175 -20.261,-3.525 10.389,-4.419 25.241,-23.693 25.784,-30.574 6.765,0.428 7.065,-10.448 2.629,-11.578 0.256,-1.189 0.316,-2.493 0.667,-3.709 0.177,-0.009 1.171,0.2 1.328,0.215 0.827,0.08 -0.085,-0.942 -0.772,-1.144 1.862,-6.202 3.515,-13.501 3.905,-18.889 7.94,-0.691 16.465,3.321 23.313,7.171 -1.762,8.115 -3.577,16.167 -3.622,24.506 -0.003,0.428 0.335,0.772 0.814,0.731 1.542,-0.13 3.176,-0.076 4.325,0.257 -0.251,0.738 0.002,1.628 0.172,1.413 2.76,-3.511 6.847,-6.015 9.548,-4.325 2.474,1.547 1.346,4.758 0.037,6.679 -1.26,1.85 -3.329,3.269 -5.512,3.737 -3.022,0.649 -5.059,-2.28 -5.472,-4.492 -0.069,-0.371 -1.515,1.227 0.292,4.729 -1.535,8.569 -2.243,17.46 -2.945,26.132 -0.511,6.324 -1.104,14.412 0.413,20.715 -2.914,3.901 -8.837,6.628 -16.299,8.04 -6.588,1.249 -13.221,-0.188 -16.746,-1.646 z"
   id="path32" />
	<path
   fill="#ffffff"
   d="m 376.305,311.817 c 0.231,-1.341 1.38,-3.947 1.496,-7.357 2.036,-0.15 6.036,-0.798 6.395,-0.883 -0.251,0.941 -0.464,4.948 -0.468,5.961 -1.986,1.083 -3.329,4.088 -4.171,5.843 -0.91,1.901 -1.986,4.164 -2.616,6.47 -0.126,-0.699 -0.266,-1.398 -0.398,-2.096 -0.468,-2.45 -0.468,-6.597 -0.238,-7.938 z"
   id="path33" />
	<path
   fill="#ffffff"
   d="m 363.341,313.926 c 1.036,-2.069 3.902,-4.567 7.868,-5.559 1.993,-0.498 3.583,0.055 4.56,0.5 -0.231,0.842 -0.849,2.071 -0.958,2.989 -0.188,1.568 -0.219,2.946 0.04,4.517 -0.959,-1.369 -2.644,-2.015 -4.503,-2.414 -1.331,-0.285 -5.137,-0.165 -7.007,-0.033 z"
   id="path34" />
	<path
   fill="#ffffff"
   d="m 342.467,335.729 c 1.128,-3.759 1.398,-8.191 1.074,-11.839 2.098,0.403 4.522,0.039 6.53,-0.635 -0.224,0.541 0.157,1.976 0.215,1.759 0.305,-1.163 1.071,-2.772 2.221,-2.925 1.151,-0.153 1.572,0.882 1.787,1.925 0.064,0.311 0.589,-0.815 0.051,-2.241 0.784,0.149 1.577,1.079 1.899,1.631 0.134,0.231 0.479,-0.856 -0.433,-1.969 2.789,-0.918 3.9,-3.025 6.966,-3.792 -0.592,1.254 -5.355,11.994 -6.981,15.913 -1.875,-0.428 -11.148,0.934 -13.329,2.173 z"
   id="path35" />
	<path
   fill="#ffffff"
   d="m 356.668,335.507 c 2.124,-5.142 5.58,-14.15 8.658,-20.384 3.607,0.026 7.645,0.642 9.976,3.577 0.082,0.389 1.142,7.542 1.234,7.987 0.23,1.111 0.826,1.639 0.919,1.226 0.805,-3.564 8.489,-12.939 16.62,-13.723 3.845,1.536 13.195,7.132 18.405,11.309 -0.366,1.129 -4.1,11.726 -5.397,13.632 -0.813,-2.16 -11.891,-13.564 -16.387,-16.329 -0.33,-0.203 1.636,2.917 2.704,4.106 -1.276,-0.494 -2.417,-1.103 -3.68,-1.821 -0.217,-0.123 0.879,2.941 5.555,3.976 1.392,4.924 3.735,9.432 5.322,14.307 1.165,3.582 2.247,7.685 2.908,11.403 -3.586,-0.715 -7.552,0.846 -10.997,1.815 -4.835,1.361 -10.193,1.109 -15.119,0.861 -9.22,-0.466 -19.297,-0.983 -28.397,1.369 2.355,-7.883 5.551,-18.169 7.676,-23.311 z"
   id="path36" />
	<path
   fill="#ffffff"
   d="m 348.852,359.338 c 4.599,-0.851 8.938,-1.274 13.498,-1.474 5.027,-0.221 10.023,-0.049 15.046,0.251 4.612,0.276 9.239,0.423 13.792,-0.517 4.388,-0.905 7.893,-2.791 12.355,-2.299 0.035,0.215 0.136,0.804 0.17,1.02 -3.515,-0.276 -6.665,1.486 -10.978,2.25 -5.394,0.955 -10.445,1.321 -15.93,1.341 -5.498,0.02 -8.541,-0.351 -14.381,-0.372 -3.541,-0.012 -10.009,0.145 -14.009,1.25 0.145,-0.483 0.292,-0.966 0.437,-1.45 z"
   id="path37" />
	<path
   fill="#ffffff"
   d="m 348.229,361.396 c 8.356,-1.629 19.095,-1.069 28.421,-0.944 4.935,0.065 9.832,-0.307 14.706,-1.077 2.047,-0.324 4.08,-0.658 6.061,-1.276 2.002,-0.625 4.232,-1.527 6.381,-1.268 0.213,1.529 0.371,3.066 0.465,4.606 -3.835,-0.053 -7.756,0.831 -11.549,1.222 -5.215,0.538 -10.418,1.188 -15.644,1.599 -9.512,0.749 -29.008,0.09 -29.674,-0.008 0.294,-1.007 0.537,-1.849 0.833,-2.854 z"
   id="path38" />
	<path
   fill="#ffffff"
   d="m 319.809,399.808 c -4.089,-1.574 -7.873,-3.825 -11.192,-6.68 -3.282,-2.823 -6.666,-7.419 -6.851,-10.06 2.588,-1.008 11.534,2.528 14.562,4.066 3.027,1.537 6.035,2.943 8.865,4.742 3.339,2.12 6.283,4.693 9.178,7.369 1.426,1.316 3.279,3.058 5.316,4.455 -1.556,-0.048 -3.116,-0.093 -4.666,-0.246 -5.207,-0.512 -10.333,-1.77 -15.212,-3.646 z"
   id="path39" />
	<path
   fill="#ffffff"
   d="m 344.19,407.475 c -6.237,0.782 -12.686,-0.401 -17.467,-2.658 0.029,-0.352 0.106,-0.695 0.152,-1.043 5.07,1.25 10.372,1.794 15.464,1.441 0.751,0.337 1.511,0.589 2.271,0.729 -0.063,0.507 -0.197,1.13 -0.42,1.531 z"
   id="path40" />
	<path
   fill="#ffffff"
   d="m 364.387,373.274 c -0.268,-0.067 -0.402,0.331 -0.198,0.48 2.055,1.502 4.333,2.557 6.671,3.5 -4.28,4.091 -19.014,21.628 -23.733,27.206 -5.607,-0.904 -11.927,-6.646 -14.865,-9.404 -3.865,-3.631 -8.861,-6.949 -14.189,-8.569 11.278,-3.404 23.895,-12.143 30.479,-21.183 9.416,0.81 19.158,1.303 28.545,0.838 5.273,-0.264 10.523,-0.92 15.771,-1.48 3.956,-0.422 9.629,-1.451 12.836,-1.807 4.197,2.868 8.874,5.271 13.31,7.73 3.473,1.928 7.622,4.209 11.713,4.533 -1.605,2.102 -3.128,4.206 -5.04,6.158 -3.173,3.245 -6.802,5.993 -10.603,8.456 -5.216,3.38 -12.025,8.036 -18.486,7.268 -3.652,-14.664 -19.1,-20.429 -32.211,-23.726 z"
   id="path41" />
	<path
   fill="#ffffff"
   d="m 411.436,400.637 c -4.161,3.399 -15.169,9.064 -26.208,9.153 0.489,-2.448 6.365,-8.635 11.083,-11.528 5.568,2.166 13.902,-3.589 18.307,-6.132 4.106,-2.373 10.67,-7.977 13.117,-10.248 -1.533,2.346 -3.503,5.335 -5.232,7.497 -3.3,4.118 -6.979,7.919 -11.067,11.258 z"
   id="path42" />
	<path
   fill="#ffffff"
   d="m 420.079,397.147 c -0.356,-0.133 -0.712,-0.579 -0.912,-0.928 2.011,-2.125 8.043,-9.105 12.396,-16.875 0.137,0.213 0.85,1.142 1.023,1.335 -2.67,6.543 -9.658,14.777 -12.507,16.468 z"
   id="path43" />
	<path
   fill="#ffffff"
   d="m 482.907,374.834 c -2.268,3.293 -5.307,6.172 -8.117,9 -3.795,3.817 -8.883,9.243 -14.316,9.724 -3.602,0.319 -7.118,-2.346 -9.763,-4.424 -4.498,-3.536 -8.516,-7.858 -12.67,-11.795 -2.423,-2.296 -8.97,-8.811 -12.619,-11.883 2.52,1.023 6.239,0.931 6.838,0.482 0.665,0.128 3.714,0.725 4.352,0.651 1.156,-0.133 1.94,-0.644 1.94,-1.611 4.194,1.57 9.77,0.238 13.605,-1.396 6.153,-2.619 7.463,-10.134 9.75,-15.66 0.729,-1.763 6.585,-19.543 0.006,-16.666 -0.069,-0.564 -0.145,-1.125 -0.217,-1.688 2.035,-0.39 3.364,0.209 5.106,2.045 1.992,2.099 3.199,5.357 4.416,7.968 1.436,3.083 2.907,6.376 3.902,9.458 -1.125,-0.165 -2.895,0.392 -2.037,0.643 7.935,2.326 7.869,11.27 8.823,17.762 0.14,0.946 0.872,-1.845 0.898,-2.742 1.515,3.393 2.748,6.291 0.103,10.132 z"
   id="path44" />
	<path
   fill="#ffffff"
   d="m 462.022,332.15 c 2.907,-1.045 2.031,4.66 0.656,8.71 -0.052,-2.9 -0.317,-5.808 -0.656,-8.71 z"
   id="path45" />
	<path
   d="m 390.318,258.734 c -0.161,-0.808 -0.708,-1.232 -0.685,-0.984 0.514,5.676 0.541,10.896 -1.476,16.271 -0.983,2.622 -2.434,5.551 -4.307,7.581 -1.989,2.157 -5.267,4.154 -8.517,2.704 -1.782,-0.795 -3.002,-2.49 -3.987,-4.332 -0.093,-0.175 -0.268,0.524 0.042,1.328 1.157,2.998 3.773,4.867 6.684,4.943 2.333,0.061 4.883,-0.981 6.905,-3.397 5.598,-6.685 7.011,-15.763 5.341,-24.114 z"
   id="path46" />
	<path
   d="m 384.188,287.167 c -1.536,1.202 -3.561,2.479 -5.531,2.647 -1.613,0.137 -3.455,-0.624 -4.795,-1.462 -0.93,-0.582 0.568,3.486 4.714,3.791 2.955,0.217 4.762,-2.232 5.575,-3.73 0.366,-0.675 0.404,-1.534 0.037,-1.246 z"
   id="path47" />
	<path
   d="m 395.281,223.785 c -5.348,-2.691 -12.942,-6.478 -18.452,-9.457 -0.244,-0.132 -0.515,2.055 5.749,6.15 -3.964,0.554 -6.471,5.786 -7.339,9.136 -1.234,4.759 0.657,10.445 5.788,11.237 8.477,1.311 12.213,-10.937 8.256,-17.083 4.418,1.308 6.552,0.295 5.998,0.017 z"
   id="path48" />
	<path
   fill="#ffffff"
   d="m 389.548,230.728 c -0.137,2.766 -1.244,5.625 -3.426,7.323 -2.014,1.565 -4.24,1.756 -6.209,1.028 -2.352,-0.869 -4.346,-4.334 -3.734,-8.213 0.549,-3.5 2.936,-8.373 6.79,-9.113 2.768,-0.531 4.267,0.882 4.866,1.91 1.593,2.729 1.841,4.467 1.713,7.065 z"
   id="path49" />
	<path
   d="m 387.273,241.594 c -1.579,1.038 -2.896,1.729 -4.491,2.023 -1.627,0.3 -3.254,0.3 -4.496,-0.085 -0.143,-0.044 -0.198,0.438 0.483,0.783 3.027,1.53 5.941,0.245 7.653,-1.296 0.811,-0.731 1.09,-1.581 0.851,-1.425 z"
   id="path50" />
	<path
   d="m 387.235,229.572 c -0.253,-0.976 -0.984,-1.841 -2.267,-2.024 -1.413,-0.202 -2.646,0.688 -3.3,1.768 -0.776,1.277 -1.127,2.985 -0.545,4.388 0.605,1.459 2.056,2.149 3.622,1.737 2.447,-0.645 3.133,-3.386 2.49,-5.869 z"
   id="path51" />
	<path
   d="m 456.546,300.608 c -0.028,-0.123 -0.201,-0.082 -0.223,0.021 -0.067,0.294 -0.145,0.572 -0.228,0.84 -2.202,1.162 -3.914,3.231 -3.914,5.751 -0.17,0.34 -0.376,0.728 -0.281,1.071 0.036,0.13 1.878,-1.701 3.311,-3.473 0.995,-1.228 1.71,-2.589 1.335,-4.21 z"
   id="path52" />
	<path
   fill="#ffffff"
   d="m 452.658,306.668 c 0.261,-1.85 1.649,-3.641 3.23,-4.533 -0.446,1.038 -1.223,2.527 -3.23,4.533 z"
   id="path53" />
	<path
   d="m 458.116,312.858 c -0.028,-0.12 -0.202,-0.168 -0.253,-0.034 -0.115,0.301 -0.214,0.604 -0.311,0.907 -1.159,-0.006 -2.367,1.342 -2.972,2.164 -0.656,0.894 -1.234,2.065 -1.457,3.215 -0.185,0.043 -0.362,0.107 -0.523,0.228 -0.126,0.094 -0.178,0.32 -0.03,0.359 2.068,0.544 3.471,-0.927 4.031,-1.647 1.014,-1.307 1.894,-3.517 1.515,-5.192 z"
   id="path54" />
	<path
   fill="#ffffff"
   d="m 456.202,317.323 c -0.436,0.723 -1.381,1.615 -2.502,1.772 0.938,-2.866 2.684,-4.402 3.578,-4.517 -0.268,0.843 -0.601,1.955 -1.076,2.745 z"
   id="path55" />
	<path
   d="m 459.097,328.769 c -0.046,-0.181 -0.316,-0.193 -0.365,-0.006 -0.082,0.307 -0.141,0.618 -0.199,0.93 -1.063,0.152 -2.094,1.544 -2.643,2.305 -0.77,1.069 -1.375,2.525 -1.266,3.876 -0.244,0.008 -0.484,0.026 -0.716,0.085 -0.257,0.067 -0.301,0.35 -0.116,0.52 1.479,1.349 3.684,-0.11 4.447,-1.543 0.922,-1.736 1.35,-4.239 0.858,-6.167 z"
   id="path56" />
	<path
   fill="#ffffff"
   d="m 457.751,333.473 c -0.794,1.645 -1.472,2.505 -2.527,2.379 0.014,-2.532 2.229,-5.267 3.297,-5.345 -0.143,0.929 -0.355,2.105 -0.77,2.966 z"
   id="path57" />
	<path
   d="m 427.182,356.22 c -0.241,-0.692 -0.561,-1.369 -1.031,-1.95 -0.88,-1.088 -2.011,-0.57 -2.727,0.345 -0.165,0.212 0.214,0.444 0.382,0.232 0.283,-0.359 0.771,-0.997 1.391,-0.828 0.436,0.118 0.715,0.586 0.904,0.899 0.365,0.602 0.593,1.256 0.803,1.91 0.092,-0.203 0.183,-0.406 0.278,-0.608 z"
   id="path58" />
	<path
   d="m 316.841,316.596 c -0.203,-0.096 -0.351,0.309 -0.146,0.415 0.817,0.424 0.482,1.415 -0.132,1.853 -0.422,0.301 -0.935,0.386 -1.401,0.47 -0.488,0.088 -0.98,0.104 -1.474,0.119 0.303,0.144 0.593,0.326 0.87,0.529 0.749,-0.071 1.49,-0.236 2.161,-0.637 0.946,-0.562 1.222,-2.227 0.122,-2.749 z"
   id="path59" />
	<path
   d="m 324.92,323.041 c -1.714,-0.513 -4.43,-0.986 -4.987,1.294 -0.07,0.286 0.379,0.408 0.44,0.121 0.456,-2.17 2.96,-1.277 4.484,-1.099 0.206,0.025 0.262,-0.256 0.063,-0.316 z"
   id="path60" />
	<path
   d="m 325.778,329.997 c -0.948,-0.248 -1.956,-0.17 -2.865,-0.663 -0.958,-0.521 -0.242,-1.672 0.382,-2.023 0.771,-0.434 1.575,-0.074 2.377,0.076 -0.012,-0.029 -0.023,-0.057 -0.036,-0.085 -0.067,-0.163 -0.163,-0.31 -0.261,-0.457 -0.764,-0.201 -1.56,-0.236 -2.267,0.093 -0.605,0.282 -1.189,1.085 -1.054,1.907 0.259,1.56 2.792,1.292 3.688,1.42 0.148,0.021 0.187,-0.23 0.036,-0.268 z"
   id="path61" />
	<path
   d="m 323.993,333.531 c 0.061,-0.063 0.122,-0.126 0.184,-0.189 -1.327,-0.156 -3.744,-0.648 -2.749,-2.327 -0.1,-0.043 -0.193,-0.093 -0.28,-0.155 -1.204,1.748 1.046,2.615 2.588,2.878 0.086,-0.069 0.17,-0.142 0.257,-0.207 z"
   id="path62" />
	<path
   d="m 315.052,335.936 c -0.052,0.208 0.188,0.328 0.271,0.135 0.76,-1.781 2.868,-0.331 3.534,0.918 0.097,0.182 0.304,0.005 0.251,-0.171 -0.488,-1.588 -3.54,-2.97 -4.056,-0.882 z"
   id="path63" />
	<circle
   fill="#ffffff"
   cx="385.586"
   cy="230.394"
   r="1.143"
   id="circle63" />
	<circle
   fill="#ffffff"
   cx="384.48999"
   cy="228.95599"
   r="0.42199999"
   id="circle64" />
	<circle
   fill="#ffffff"
   cx="370.918"
   cy="234.812"
   r="0.60500002"
   id="circle65" />
	<circle
   fill="#ffffff"
   cx="370.366"
   cy="234.02"
   r="0.24600001"
   id="circle66" />
	<path
   d="m 382.762,197.63 c -2.596,-1.171 -6.009,-1.428 -8.794,-1.039 -0.843,0.118 -2.14,0.686 -3.018,1.461 2.257,-3.139 7.608,-2.789 10.901,-1.989 0.145,0.036 0.224,-0.185 0.075,-0.222 -2.359,-0.606 -4.864,-1.072 -7.266,-0.374 -1.805,0.523 -3.921,1.485 -4.602,3.393 -0.036,0.103 0.016,0.187 0.09,0.227 -0.057,0.13 -0.102,0.262 -0.121,0.395 -0.03,0.192 0.224,0.266 0.315,0.102 1.208,-2.144 3.716,-2.677 5.975,-2.699 2.032,-0.019 4.464,0.21 6.367,0.949 0.135,0.053 0.205,-0.147 0.078,-0.204 z"
   id="path66" />
	<path
   d="m 393.76,195.785 c -1.969,-1.02 -3.79,-2.628 -5.401,-4.138 -1.677,-1.573 -2.676,-3.433 -2.84,-5.671 10e-4,-0.002 0.002,-0.002 0.003,-0.003 0.058,-0.088 0.036,-0.182 -0.02,-0.249 -0.004,-0.07 -0.014,-0.137 -0.015,-0.209 -0.007,-0.369 -0.554,-0.429 -0.582,-0.046 -0.016,0.183 -0.007,0.359 -0.005,0.537 -2.96,3.39 1.751,8.223 5.017,9.162 0.159,0.045 0.229,-0.189 0.075,-0.246 -1.786,-0.646 -3.162,-2.083 -4.373,-3.495 -1.279,-1.49 -1.365,-2.965 -0.637,-4.506 0.282,1.608 1.212,2.994 2.336,4.262 1.643,1.855 4.084,3.76 6.34,4.806 0.116,0.055 0.217,-0.144 0.102,-0.204 z"
   id="path67" />
	<path
   d="m 378.152,202.254 c -2.323,-0.285 -4.301,0.473 -6.185,1.794 -0.2,0.14 0.032,0.441 0.23,0.299 1.819,-1.311 3.693,-2.014 5.945,-1.837 0.169,0.013 0.173,-0.236 0.01,-0.256 z"
   id="path68" />
	<path
   d="m 399.404,194.584 c -1.235,-1.764 -1.454,-3.355 -0.864,-5.392 0.044,-0.151 -0.189,-0.271 -0.281,-0.14 -1.18,1.677 -0.351,4.354 1.006,5.674 0.084,0.083 0.202,-0.054 0.139,-0.142 z"
   id="path69" />
	<path
   d="m 406.377,239.006 c -1.025,-0.158 -1.893,0.273 -2.741,0.793 -1.082,0.665 -1.923,1.701 -2.056,2.993 -0.099,0.955 0.642,1.892 1.648,1.655 0.303,-0.071 0.441,-0.457 0.166,-0.661 -0.274,-0.205 -0.705,-0.345 -0.775,-0.745 -0.088,-0.495 0.204,-1.078 0.436,-1.481 0.297,-0.514 0.784,-0.922 1.244,-1.284 0.652,-0.513 2.555,-1.618 2.544,-0.004 -0.001,0.089 0.123,0.086 0.147,0.009 0.169,-0.574 0.099,-1.165 -0.613,-1.275 z"
   id="path70" />
	<path
   d="m 469.013,383.448 c -3.396,1.982 -9.304,1.595 -9.78,-3.383 -0.022,-0.24 -0.411,-0.201 -0.418,0.034 -0.027,1.062 0.186,1.984 0.602,2.774 -5.314,-0.121 -13.307,0.337 -15.093,-5.913 -0.045,-0.158 -0.282,-0.107 -0.25,0.056 1.384,6.845 10.307,7.421 15.98,6.788 0.563,0.633 1.306,1.144 2.236,1.515 2.286,0.909 5.383,0.589 7.122,-1.241 0.268,-0.283 0,-0.863 -0.399,-0.63 z"
   id="path71" />
	<path
   d="m 478.413,367.813 c -0.086,-0.443 -0.811,-0.582 -0.862,-0.048 -0.294,3.052 -2.478,4.55 -5.185,5.531 -2.352,0.853 -5.402,1.446 -7.839,0.673 -0.155,-0.049 -0.227,0.185 -0.074,0.241 2.951,1.097 6.372,0.66 9.258,-0.431 2.354,-0.89 5.267,-3.085 4.702,-5.966 z"
   id="path72" />
</g>
</svg>
