<?xml version="1.0" encoding="utf-8"?>
<!-- Generator: Adobe Illustrator 26.2.1, SVG Export Plug-In . SVG Version: 6.00 Build 0)  -->
<svg version="1.1" id="Слой_1" xmlns="http://www.w3.org/2000/svg" xmlns:xlink="http://www.w3.org/1999/xlink" x="0px" y="0px"
	 viewBox="0 0 1080 650" style="enable-background:new 0 0 1080 650;" xml:space="preserve">
<style type="text/css">
	.st0{display:none;fill:#FFFFFF;}
	.st1{fill:none;stroke:#F3F3F3;stroke-width:1.72;stroke-miterlimit:6.88;}
	.st2{opacity:0.5;fill:none;stroke:#FFCC00;stroke-width:6.88;stroke-miterlimit:6.88;enable-background:new    ;}
	.st3{opacity:0.5;fill:none;stroke:#EE00AA;stroke-width:6.88;stroke-miterlimit:6.88;enable-background:new    ;}
	.st4{opacity:0.5;fill:none;stroke:#AA00FF;stroke-width:6.88;stroke-miterlimit:6.88;enable-background:new    ;}
	.st5{fill:#222222;}
	.st6{font-family:'TimesNewRomanPSMT';}
	.st7{font-size:34.4px;}
</style>
<desc>Created with Fabric.js 5.2.4</desc>
<g id="e5a7de9c-97a1-4407-a903-cacba1af09e5" transform="matrix(1 0 0 1 540 325)">
	<rect x="-540" y="-325" vector-effect="non-scaling-stroke" class="st0" width="1080" height="650"/>
</g>
<g id="bbc1ecdd-2e87-4d08-b0eb-22e5cf2e2cf0" transform="matrix(Infinity NaN NaN Infinity 0 0)">
</g>
<g>
	<g id="SVG-graph-0" transform="matrix(1 0 0 1 -50 -25)">
		<path vector-effect="non-scaling-stroke" class="st1" d="M180.4,88.1v516 M266.4,88.1v516 M352.4,88.1v516 M438.4,88.1v516
			 M524.4,88.1v516 M610.4,88.1v516 M696.4,88.1v516 M782.4,88.1v516 M868.4,88.1v516 M954.4,88.1v516 M1040.4,88.1v516 M59.1,484.6
			h1032 M59.1,398.6h1032 M59.1,312.6h1032 M59.1,226.6h1032 M59.1,140.6h1032"/>
	</g>
	<g id="SVG-graph-0_00000124128495851858398820000000808888365151408315_" transform="matrix(1 0 0 1 -55 -57.62)">
		<path vector-effect="non-scaling-stroke" class="st2" d="M181.3,519c0-565.2,777.2-342.5,777.2-342.5"/>
	</g>
	<g id="SVG-graph-0_00000058588307893907081990000010531697809032785042_" transform="matrix(1 0 0 1 -55 -45)">
		<path vector-effect="non-scaling-stroke" class="st3" d="M184.5,503.7c378.4-149.1,636.4-263.7,774-344"/>
	</g>
	<g id="SVG-graph-0_00000106827687792304476780000008279299927300322465_" transform="matrix(1 0 0 1 -55 -45.68)">
		<path vector-effect="non-scaling-stroke" class="st4" d="M184.5,507c396.7,34.8,431.2-399.8,776.2-347.7"/>
	</g>
	<g id="SVG-graph-0_00000179616371980823197140000011582507493669842818_" transform="matrix(1 0 0 1 -280 55)">
		<circle vector-effect="non-scaling-stroke" cx="409.5" cy="403.7" r="10.3"/>
	</g>
	<g id="SVG-graph-0_00000024000951030805633570000016272731412002798465_" transform="matrix(1 0 0 1 170 -145)">
		<circle vector-effect="non-scaling-stroke" cx="733.5" cy="259.7" r="10.3"/>
	</g>
	<g id="SVG-graph-0_00000121249183153391551570000017111842667696155009_" transform="matrix(1 0 0 1 -295.78 55.73)">
		<text transform="matrix(1 0 0 1 385.7195 415.0473)" class="st5 st6 st7">A</text>
	</g>
	<g id="SVG-graph-0_00000114032379883240138700000010293165908887449778_" transform="matrix(1 0 0 1 186.67 -146.27)">
		<text transform="matrix(1 0 0 1 734.0292 269.6069)" class="st5 st6 st7">B</text>
	</g>
	<g id="SVG-graph-0_00000042695246284758508100000011240380081855697079_" transform="matrix(1 0 0 1 -341.1 -44.26)">
	</g>
</g>
</svg>
