<?xml version="1.0" encoding="utf-8"?>
<!-- Generator: Adobe Illustrator 26.2.1, SVG Export Plug-In . SVG Version: 6.00 Build 0)  -->
<svg version="1.1" id="Слой_1" xmlns="http://www.w3.org/2000/svg" xmlns:xlink="http://www.w3.org/1999/xlink" x="0px" y="0px"
	 viewBox="0 0 1080 650" style="enable-background:new 0 0 1080 650;" xml:space="preserve">
<style type="text/css">
	.st0{display:none;fill:#FFFFFF;}
	.st1{fill:none;stroke:#F3F3F3;stroke-width:1.72;stroke-miterlimit:6.88;}
	.st2{fill:#222222;}
	.st3{font-family:'TimesNewRomanPSMT';}
	.st4{font-size:34.4px;}
	.st5{fill:none;stroke:#FFCC00;stroke-width:6.88;stroke-miterlimit:6.88;}
	.st6{fill:#000094;stroke:#00BBBB;stroke-width:5;stroke-miterlimit:6.88;}
	.st7{fill:none;stroke:#00BBBB;stroke-width:6.88;stroke-miterlimit:6.88;}
	.st8{font-family:'MyriadPro-Regular';}
	.st9{font-size:36px;}
	.st10{font-size:24px;}
</style>
<desc>Created with Fabric.js 5.2.4</desc>
<g id="e5a7de9c-97a1-4407-a903-cacba1af09e5" transform="matrix(1 0 0 1 540 325)">
	<rect x="-540" y="-325" vector-effect="non-scaling-stroke" class="st0" width="1080" height="650"/>
</g>
<g id="bbc1ecdd-2e87-4d08-b0eb-22e5cf2e2cf0" transform="matrix(Infinity NaN NaN Infinity 0 0)">
</g>
<g>
	<g id="SVG-graph-0" transform="matrix(1 0 0 1 -50 -25)">
		<path vector-effect="non-scaling-stroke" class="st1" d="M180.4,88.1v516 M266.4,88.1v516 M352.4,88.1v516 M438.4,88.1v516
			 M524.4,88.1v516 M610.4,88.1v516 M696.4,88.1v516 M782.4,88.1v516 M868.4,88.1v516 M954.4,88.1v516 M1040.4,88.1v516 M59.1,484.6
			h1032 M59.1,398.6h1032 M59.1,312.6h1032 M59.1,226.6h1032 M59.1,140.6h1032"/>
	</g>
	<g id="SVG-graph-0_00000179616371980823197140000011582507493669842818_" transform="matrix(1 0 0 1 -280 55)">
		<circle vector-effect="non-scaling-stroke" cx="409.5" cy="403.7" r="10.3"/>
	</g>
	<g id="SVG-graph-0_00000024000951030805633570000016272731412002798465_" transform="matrix(1 0 0 1 170 -145)">
		<circle vector-effect="non-scaling-stroke" cx="733.5" cy="259.7" r="10.3"/>
	</g>
	<g id="SVG-graph-0_00000121249183153391551570000017111842667696155009_" transform="matrix(1 0 0 1 -295.78 55.73)">
		<text transform="matrix(0.9886 -0.1508 0.1508 0.9886 387.2192 416.7876)" class="st2 st3 st4">A</text>
	</g>
	<g id="SVG-graph-0_00000114032379883240138700000010293165908887449778_" transform="matrix(1 0 0 1 186.67 -146.27)">
		<text transform="matrix(1 0 0 1 734.0292 269.6069)" class="st2 st3 st4">B</text>
	</g>
	<g id="SVG-graph-0_00000042695246284758508100000011240380081855697079_" transform="matrix(1 0 0 1 -341.1 -44.26)">
	</g>
	<path class="st5" d="M122.6,448.4c-27.5-315.6-2.8-390.9,26.2-398.7c12.5-3.4,36.7,2.8,50.7,18c23,24.9,3,57.4,28,89.3
		c2.2,2.8,20,24.8,46,26c39.7,1.8,67-46.4,68.7-49.3c23-41.8,1.2-69.4,23.3-92c19.5-19.8,59.1-21.8,86-8
		c47.9,24.6,39.2,91.4,68,97.3c33,6.8,42.7-81,112-108C726-13.9,868,87.3,890.5,103.3c1.1,0.8,2.1,1.5,2.7,1.9"/>
	<line class="st6" x1="891.7" y1="117.6" x2="139.8" y2="451.4"/>
	<line class="st7" x1="848.5" y1="125.3" x2="893.2" y2="121.4"/>
	<line class="st7" x1="865.6" y1="151.3" x2="891" y2="117.3"/>
	<text transform="matrix(0.9205 -0.3907 0.3907 0.9205 199.6597 219.3015)"><tspan x="0" y="0" class="st8 st9">             </tspan><tspan x="0" y="43.2" class="st8 st9">                </tspan><tspan x="122.1" y="43.2" class="st8 st10">Траектория</tspan></text>
	<text transform="matrix(0.9135 -0.4067 0.4067 0.9135 462.7242 373.5799)" class="st8 st10">Перемещение</text>
</g>
<path d="M302.3,622.7"/>
</svg>
