<?xml version="1.0" encoding="UTF-8" standalone="no"?>
<svg
   id="SVG-graph-0"
   viewBox="0 0 600 300"
   title="average velocity paths"
   version="1.1"
   sodipodi:docname="ssv_g.svg"
   inkscape:version="1.3 (0e150ed6c4, 2023-07-21)"
   xmlns:inkscape="http://www.inkscape.org/namespaces/inkscape"
   xmlns:sodipodi="http://sodipodi.sourceforge.net/DTD/sodipodi-0.dtd"
   xmlns="http://www.w3.org/2000/svg"
   xmlns:svg="http://www.w3.org/2000/svg">
  <defs
     id="defs29" />
  <sodipodi:namedview
     id="namedview29"
     pagecolor="#ffffff"
     bordercolor="#000000"
     borderopacity="0.25"
     inkscape:showpageshadow="2"
     inkscape:pageopacity="0.0"
     inkscape:pagecheckerboard="0"
     inkscape:deskcolor="#d1d1d1"
     inkscape:zoom="3.2133333"
     inkscape:cx="300"
     inkscape:cy="149.8444"
     inkscape:window-width="2560"
     inkscape:window-height="1377"
     inkscape:window-x="-8"
     inkscape:window-y="-8"
     inkscape:window-maximized="1"
     inkscape:current-layer="SVG-graph-0" />
  <path
     stroke="#f3f3f3"
     stroke-width="1"
     fill="none"
     d="M 70.5 0  v 300M 120.5 0  v 300M 170.5 0  v 300M 220.5 0  v 300M 270.5 0  v 300M 320.5 0  v 300M 370.5 0  v 300M 420.5 0  v 300M 470.5 0  v 300M 520.5 0  v 300M 570.5 0  v 300M 0 230.5  h 600M 0 180.5  h 600M 0 130.5  h 600M 0 80.5  h 600M 0 30.5  h 600"
     id="path1" />
  <g
     stroke-width="4"
     fill="none"
     opacity="0.5"
     id="g9">
    <path
       d="M70 230 C70 -100, 520 30, 520 30"
       stroke="#fc0"
       id="path2" />
    <path
       d="M70 230 C100 -70, 420 200, 520 30"
       stroke="#f92"
       id="path3" />
    <path
       d="M70 230 C100 50, 520 -20, 520 30"
       stroke="#f66"
       id="path4" />
    <path
       d="M70 230 Q 400 100, 520 30"
       stroke="#e0a"
       id="path5" />
    <path
       d="M70 230 C300 250, 320 0, 520 30"
       stroke="#a0f"
       id="path6" />
    <path
       d="M70 230 Q 480 300, 520 30"
       stroke="#33f"
       id="path7" />
    <path
       d="M70 230 C 300 350, 450 130, 490 30 C498 8, 520 8, 520 30"
       stroke="#07e"
       id="path8" />
    <path
       d="M70 230 Q 150 415, 520 30"
       stroke="#0bb"
       id="path9" />
  </g>
  <g
     fill="#000"
     stroke="none"
     id="g10">
    <circle
       cx="70"
       cy="230"
       r="6"
       id="circle9" />
    <circle
       cx="520"
       cy="30"
       r="6"
       id="circle10" />
  </g>
  <g
     font-size="20px"
     fill="#222"
     stroke="none"
     id="g11">
    <text
       x="47"
       y="237"
       id="text10">A</text>
    <text
       x="530"
       y="35"
       id="text11">B</text>
  </g>
  <path
     d="M 20.5 0 L 20.5 300 M 0 280.5 L 600 280.5"
     style="stroke: rgb(0, 0, 0); fill: none; stroke-width: 1;"
     id="path11" />
  <text
     x="70.5"
     y="294.5"
     style="fill: rgb(0, 0, 0); font-size: 12px; text-anchor: middle; font-family: monospace;"
     id="text12">5</text>
  <text
     x="120.5"
     y="294.5"
     style="fill: rgb(0, 0, 0); font-size: 12px; text-anchor: middle; font-family: monospace;"
     id="text13">10</text>
  <text
     x="170.5"
     y="294.5"
     style="fill: rgb(0, 0, 0); font-size: 12px; text-anchor: middle; font-family: monospace;"
     id="text14">15</text>
  <text
     x="220.5"
     y="294.5"
     style="fill: rgb(0, 0, 0); font-size: 12px; text-anchor: middle; font-family: monospace;"
     id="text15">20</text>
  <text
     x="270.5"
     y="294.5"
     style="fill: rgb(0, 0, 0); font-size: 12px; text-anchor: middle; font-family: monospace;"
     id="text16">25</text>
  <text
     x="320.5"
     y="294.5"
     style="fill: rgb(0, 0, 0); font-size: 12px; text-anchor: middle; font-family: monospace;"
     id="text17">30</text>
  <text
     x="370.5"
     y="294.5"
     style="fill: rgb(0, 0, 0); font-size: 12px; text-anchor: middle; font-family: monospace;"
     id="text18">35</text>
  <text
     x="420.5"
     y="294.5"
     style="fill: rgb(0, 0, 0); font-size: 12px; text-anchor: middle; font-family: monospace;"
     id="text19">40</text>
  <text
     x="470.5"
     y="294.5"
     style="fill: rgb(0, 0, 0); font-size: 12px; text-anchor: middle; font-family: monospace;"
     id="text20">45</text>
  <text
     x="520.5"
     y="294.5"
     style="fill: rgb(0, 0, 0); font-size: 12px; text-anchor: middle; font-family: monospace;"
     id="text21">50</text>
  <text
     x="570.5"
     y="294.5"
     style="fill: rgb(0, 0, 0); font-size: 12px; text-anchor: middle; font-family: monospace;"
     id="text22">55</text>
  <text
     x="15.5"
     y="234.5"
     style="fill: rgb(0, 0, 0); font-size: 12px; text-anchor: end; font-family: monospace;"
     id="text23">5</text>
  <text
     x="15.5"
     y="184.5"
     style="fill: rgb(0, 0, 0); font-size: 12px; text-anchor: end; font-family: monospace;"
     id="text24">10</text>
  <text
     x="15.5"
     y="134.5"
     style="fill: rgb(0, 0, 0); font-size: 12px; text-anchor: end; font-family: monospace;"
     id="text25">15</text>
  <text
     x="15.5"
     y="84.5"
     style="fill: rgb(0, 0, 0); font-size: 12px; text-anchor: end; font-family: monospace;"
     id="text26">20</text>
  <text
     x="15.5"
     y="34.5"
     style="fill: rgb(0, 0, 0); font-size: 12px; text-anchor: end; font-family: monospace;"
     id="text27">25</text>
  <path
     d="M 70.5 280.5  v 3M 120.5 280.5  v 3M 170.5 280.5  v 3M 220.5 280.5  v 3M 270.5 280.5  v 3M 320.5 280.5  v 3M 370.5 280.5  v 3M 420.5 280.5  v 3M 470.5 280.5  v 3M 520.5 280.5  v 3M 570.5 280.5  v 3M 20.5 230.5  h -3M 20.5 180.5  h -3M 20.5 130.5  h -3M 20.5 80.5  h -3M 20.5 30.5  h -3"
     style="stroke: rgb(0, 0, 0); fill: none; stroke-width: 1;"
     id="path27" />
  <text
     x="598"
     y="274"
     style="fill: rgb(0, 0, 0); font-size: 16px; text-anchor: end; font-family: monospace;"
     id="text28">время (с)</text>
  <text
     x="33"
     y="6"
     transform="rotate(-90, 33, 3)"
     style="fill: rgb(0, 0, 0); font-size: 16px; text-anchor: end; font-family: monospace;"
     id="text29">позиция (м)</text>
</svg>
