<?xml version="1.0" encoding="UTF-8" standalone="no"?>
<!-- Generator: Adobe Illustrator 26.2.1, SVG Export Plug-In . SVG Version: 6.00 Build 0)  -->

<svg
   version="1.1"
   id="svg1"
   inkscape:export-filename="displacement.svg"
   sodipodi:docname="displacement.svg"
   x="0px"
   y="0px"
   viewBox="0 0 680.3 288.1"
   style="enable-background:new 0 0 680.3 288.1;"
   xml:space="preserve"
   inkscape:export-xdpi="96"
   inkscape:export-ydpi="96"
   inkscape:version="1.4 (86a8ad7, 2024-10-11)"
   xmlns:inkscape="http://www.inkscape.org/namespaces/inkscape"
   xmlns:sodipodi="http://sodipodi.sourceforge.net/DTD/sodipodi-0.dtd"
   xmlns="http://www.w3.org/2000/svg"
   xmlns:svg="http://www.w3.org/2000/svg"><defs
   id="defs1" />
<style
   type="text/css"
   id="style1">
	.st0{fill-rule:evenodd;clip-rule:evenodd;}
</style>
<sodipodi:namedview
   bordercolor="#000000"
   borderopacity="0.25"
   id="namedview1"
   inkscape:current-layer="layer1"
   inkscape:cx="147.35958"
   inkscape:cy="164.91338"
   inkscape:deskcolor="#d1d1d1"
   inkscape:document-units="mm"
   inkscape:pagecheckerboard="0"
   inkscape:pageopacity="0.0"
   inkscape:showpageshadow="2"
   inkscape:window-height="1417"
   inkscape:window-maximized="1"
   inkscape:window-width="2560"
   inkscape:window-x="-8"
   inkscape:window-y="-8"
   inkscape:zoom="1.0823864"
   pagecolor="#ffffff">
	<inkscape:page
   bleed="0"
   height="288.10001"
   id="page2"
   margin="0"
   width="680.29999"
   x="0"
   y="0" />
</sodipodi:namedview>
<g
   id="layer1"
   transform="translate(-12.888198,-9.2284767)"
   inkscape:groupmode="layer"
   inkscape:label="РЎР»РѕР№ 1">
	<g
   id="g12"
   transform="matrix(1.0041031,0,0,-0.9730853,252.79685,93.766236)">
		<path
   id="path14"
   class="st0"
   d="m 231,-52.6 0.2,1.7 -240.1,21.8 -0.4,-3.4 240.1,-21.8 0.2,1.7" />
	</g>
	
	
	
	
	
	<g
   id="g40"
   transform="matrix(1.5256445,0,0,-1.3619454,205.38775,79.335201)">
		<path
   id="path42"
   class="st0"
   d="m 176,-47.5 11.6,-1.1 -22.8,7.3 0.2,-0.4 0.6,-0.6 c 0.8,-1.5 1.8,-3.3 1.1,-5 v -0.4 l -0.2,-0.2 c -0.1,-1 -1.3,-2.5 -2.1,-3 l -0.2,-0.4 -0.4,-0.4 23.7,3 -11.5,1.2" />
	</g>
	<g
   id="g44"
   transform="matrix(1.5256445,0,0,-1.3619454,217.24662,77.605963)">
		<path
   id="path46"
   class="st0"
   d="m 182.4,-46.1 1.3,-0.2 1.1,-0.7 c 1.9,-2 1.2,-4.6 -1.1,-5.8 l -1.3,-0.2 -1.3,0.2 c -2.3,1.2 -3,3.8 -1.1,5.8 l 1.1,0.7 1.3,0.2" />
	</g>
	<g
   id="g48"
   transform="matrix(1.5256445,0,0,-1.3619454,219.55797,79.311121)">
		<path
   id="path50"
   class="st0"
   d="m 185.2,-48.4 -0.4,1.9 -0.9,1.3 -1.5,0.9 -1.5,0.2 v -1.5 l 1.1,-0.2 0.7,-0.6 0.6,-0.9 0.4,-1.1 h 1.5" />
	</g>
	<g
   id="g52"
   transform="matrix(1.5256445,0,0,-1.3619454,217.24662,81.284595)">
		<path
   id="path54"
   class="st0"
   d="m 182.4,-51 1.5,0.2 1.5,0.9 0.9,1.3 0.4,1.7 h -1.5 l -0.4,-0.9 -0.6,-0.9 -0.7,-0.6 -1.1,-0.2 V -51" />
	</g>
	<g
   id="g56"
   transform="matrix(1.5256445,0,0,-1.3619454,214.93527,79.311121)">
		<path
   id="path58"
   class="st0"
   d="m 179.6,-48.4 0.4,-1.6 0.9,-1.3 1.5,-0.9 1.5,-0.2 v 1.5 l -1.1,0.2 -0.7,0.6 -0.6,0.9 -0.4,0.9 h -1.5" />
	</g>
	<g
   id="g60"
   transform="matrix(1.5256445,0,0,-1.3619454,217.24662,77.24641)">
		<path
   id="path62"
   class="st0"
   d="m 182.4,-45.6 -1.5,-0.2 -1.5,-0.9 -0.9,-1.3 -0.4,-1.9 h 1.5 l 0.4,1.1 0.6,0.9 0.7,0.6 1.1,0.2 v 1.5" />
	</g>
	<g
   id="g64"
   transform="matrix(1.5256445,0,0,-1.3619454,128.9057,70.518415)">
		<path
   id="path66"
   class="st0"
   d="m 76.2,-36.5 1.3,-0.2 1.1,-0.7 c 1.9,-2 1.2,-4.7 -1.1,-5.8 l -1.3,-0.2 -1.3,0.2 c -2.3,1.1 -3,3.8 -1.1,5.8 l 1.1,0.7 1.3,0.2" />
	</g>
	<g
   id="g68"
   transform="matrix(1.5256445,0,0,-1.3619454,131.72204,72.222197)">
		<path
   id="path70"
   class="st0"
   d="m 79.6,-38.8 -0.6,2.2 -1.1,1.5 -1.7,1.1 -1.9,0.4 V -37 H 75 l 0.6,-0.4 0.4,-0.7 0.2,-0.7 h 3.4" />
	</g>
	<g
   id="g72"
   transform="matrix(1.5256445,0,0,-1.3619454,128.9057,74.645108)">
		<path
   id="path74"
   class="st0"
   d="m 76.2,-42.1 1.9,0.4 1.7,1.1 1.1,1.5 0.6,2.1 h -3.4 l -0.2,-0.6 -0.4,-0.7 -0.6,-0.4 h -0.7 v -3.4" />
	</g>
	<g
   id="g76"
   transform="matrix(1.5256445,0,0,-1.3619454,126.09395,72.222197)">
		<path
   id="path78"
   class="st0"
   d="m 72.8,-38.8 0.6,-2.1 1.1,-1.5 1.7,-1.1 1.9,-0.4 v 3.4 h -0.7 l -0.6,0.4 -0.4,0.7 -0.2,0.6 h -3.4" />
	</g>
	<g
   id="g80"
   transform="matrix(1.5256445,0,0,-1.3619454,128.9057,69.710783)">
		<path
   id="path82"
   class="st0"
   d="m 76.2,-35.4 -1.9,-0.4 -1.7,-1.1 -1.1,-1.5 -0.5,-2.3 h 3.4 l 0.2,0.7 0.4,0.7 0.6,0.4 h 0.7 v 3.5" />
	</g>
	<g
   id="g84"
   transform="matrix(1.5256445,0,0,-1.3619454,181.26735,66.032155)">
		<path
   id="path86"
   class="st0"
   d="m 139.2,-30.5 -4.7,0.4 C 84.7,-26.4 25.4,-44.6 -20.3,-62.8 l -4.9,-1.9 0.4,-1.5 4.9,1.9 c 45.3,18 105.2,36.5 154.4,32.7 l 4.7,-0.4 v 1.5" />
	</g>
	<g
   id="g88"
   transform="matrix(1.5256445,0,0,-1.3619454,229.10545,94.831851)">
		<path
   id="path90"
   class="st0"
   d="m 196.7,-69.3 -2.6,6.7 c -14.9,31.9 -44.8,46.9 -78.2,52.1 l -8,1.1 v -1.5 l 7.7,-1.1 c 32.6,-5 63.1,-19.8 77.1,-51.3 l 2.6,-6.3 1.4,0.3" />
	</g>
	
	
	
	
	
	
	
	
	
	
	
	
	
	<g
   id="g144"
   transform="matrix(1.5256445,0,0,-1.3619454,165.18858,84.155575)">
		<path
   id="path146"
   class="st0"
   d="m 119.8,-54.9 h -12.3 l 6.3,14 z m -2.2,0.8 -4.5,9.9 -4.5,-9.9 h 9" />
	</g>
	<g
   id="g148"
   transform="matrix(1.5256445,0,0,-1.3619454,166.09176,79.04147)">
		<path
   id="path150"
   class="st0"
   d="m 120.9,-48 h 0.4 l 0.4,-0.2 0.2,-0.4 V -57 l -0.2,-0.4 -0.4,-0.2 H 120 v -1.1 h 7.1 v 1.1 h -1.3 l -0.4,0.2 -0.2,0.4 v 5.8 l 0.2,1.3 0.7,1.1 1.1,0.6 h 0.4 v -0.2 h -0.2 v -0.2 l -0.2,-0.2 c -0.3,-1.7 1.1,-2.6 2.6,-2.1 l 0.6,0.4 0.2,0.6 c 0.9,3.2 -1.9,4.5 -4.5,2.8 l -0.7,-0.7 -0.6,-0.7 h -0.2 v 2.2 l -0.7,-0.2 -2.2,-0.4 H 120 V -48 h 0.9" />
	</g>
	
	
	
	
	
<text
   xml:space="preserve"
   style="font-style:normal;font-variant:normal;font-weight:normal;font-stretch:normal;font-size:26.6667px;font-family:Arial;-inkscape-font-specification:Arial;text-align:start;writing-mode:lr-tb;direction:ltr;text-anchor:start;fill:#333333;stroke:#000000;stroke-width:6.73333;stroke-linecap:round;stroke-miterlimit:4.5;stroke-opacity:0.00478468;paint-order:markers stroke fill"
   x="210.99042"
   y="110.5228"
   id="text1"><tspan
     sodipodi:role="line"
     id="tspan1"
     x="210.99042"
     y="110.5228">A</tspan></text><text
   xml:space="preserve"
   style="font-style:normal;font-variant:normal;font-weight:normal;font-stretch:normal;font-size:26.6667px;font-family:Arial;-inkscape-font-specification:Arial;text-align:start;writing-mode:lr-tb;direction:ltr;text-anchor:start;fill:#333333;stroke:#000000;stroke-width:6.73333;stroke-linecap:round;stroke-miterlimit:4.5;stroke-opacity:0.00478468;paint-order:markers stroke fill"
   x="501.944"
   y="122.13304"
   id="text2"><tspan
     sodipodi:role="line"
     id="tspan2"
     x="501.944"
     y="122.13304">B</tspan></text></g>
</svg>
