<?xml version="1.0" encoding="UTF-8" standalone="no"?>
<svg
   viewBox="0 0 284.29117 195.9371"
   height="195.9371"
   width="284.29117"
   xml:space="preserve"
   id="svg2"
   version="1.1"
   sodipodi:docname="ellipce.svg"
   inkscape:export-filename="..\Desktop\mobile-navigation-animation\dist\proj\introSVG\ellipce.svg"
   inkscape:export-xdpi="96"
   inkscape:export-ydpi="96"
   xmlns:inkscape="http://www.inkscape.org/namespaces/inkscape"
   xmlns:sodipodi="http://sodipodi.sourceforge.net/DTD/sodipodi-0.dtd"
   xmlns="http://www.w3.org/2000/svg"
   xmlns:svg="http://www.w3.org/2000/svg"
   xmlns:rdf="http://www.w3.org/1999/02/22-rdf-syntax-ns#"
   xmlns:cc="http://creativecommons.org/ns#"
   xmlns:dc="http://purl.org/dc/elements/1.1/"><sodipodi:namedview
     id="namedview1"
     pagecolor="#ffffff"
     bordercolor="#000000"
     borderopacity="0.25"
     inkscape:showpageshadow="2"
     inkscape:pageopacity="0.0"
     inkscape:pagecheckerboard="0"
     inkscape:deskcolor="#d1d1d1"><inkscape:page
       x="0"
       y="0"
       width="284.29117"
       height="195.9371"
       id="page2"
       margin="0"
       bleed="0" /></sodipodi:namedview><metadata
     id="metadata8"><rdf:RDF><cc:Work
         rdf:about=""><dc:format>image/svg+xml</dc:format><dc:type
           rdf:resource="http://purl.org/dc/dcmitype/StillImage" /></cc:Work></rdf:RDF></metadata><defs
     id="defs6" /><g
     transform="matrix(1.3333333,0,0,-1.3333333,-265.9264,903.57187)"
     id="g10"><g
   transform="translate(301.493,598.75829)"
   id="g12"><g
     transform="translate(-102.0482)"
     id="g14"><path
       id="path16"
       style="fill:none;stroke:#000000;stroke-width:0.398;stroke-linecap:butt;stroke-linejoin:miter;stroke-miterlimit:10;stroke-dasharray:none;stroke-opacity:1"
       d="M 0,0 H 203.638" /></g></g><g
   transform="translate(403.08298,598.75829)"
   id="g18"><g
     transform="translate(-1.1955,1.594)"
     id="g20"><path
       id="path22"
       style="fill:none;stroke:#000000;stroke-width:0.319;stroke-linecap:round;stroke-linejoin:round;stroke-miterlimit:10;stroke-dasharray:none;stroke-opacity:1"
       d="M 0,0 C 0.1,-0.598 1.196,-1.494 1.494,-1.594 1.196,-1.694 0.1,-2.59 0,-3.188" /></g></g><text
   id="text26"
   style="font-variant:normal;font-weight:normal;font-size:9.963px;font-family:CMMI10;-inkscape-font-specification:CMMI10;writing-mode:lr-tb;fill:#000000;fill-opacity:1;fill-rule:nonzero;stroke:none"
   transform="matrix(1,0,0,-1,407.059,596.613)"><tspan
     id="tspan24"
     y="0"
     x="0">x</tspan></text>
<g
   transform="translate(301.493,598.75829)"
   id="g28"><g
     transform="translate(0,-68.0322)"
     id="g30"><path
       id="path32"
       style="fill:none;stroke:#000000;stroke-width:0.398;stroke-linecap:butt;stroke-linejoin:miter;stroke-miterlimit:10;stroke-dasharray:none;stroke-opacity:1"
       d="M 0,0 V 135.606" /></g></g><g
   transform="rotate(90,-182.41958,483.91257)"
   id="g34"><g
     transform="translate(-1.1955,1.594)"
     id="g36"><path
       id="path38"
       style="fill:none;stroke:#000000;stroke-width:0.319;stroke-linecap:round;stroke-linejoin:round;stroke-miterlimit:10;stroke-dasharray:none;stroke-opacity:1"
       d="M 0,0 C 0.1,-0.598 1.196,-1.494 1.494,-1.594 1.196,-1.694 0.1,-2.59 0,-3.188" /></g></g><text
   id="text42"
   style="font-variant:normal;font-weight:normal;font-size:9.963px;font-family:CMMI10;-inkscape-font-specification:CMMI10;writing-mode:lr-tb;fill:#000000;fill-opacity:1;fill-rule:nonzero;stroke:none"
   transform="matrix(1,0,0,-1,298.872,672.245)"><tspan
     id="tspan40"
     y="0"
     x="0">y</tspan></text>
<g
   transform="translate(301.493,598.75829)"
   id="g44"><g
     transform="translate(68.0322)"
     id="g46"><path
       id="path48"
       style="fill:none;stroke:#ff0000;stroke-width:0.797;stroke-linecap:butt;stroke-linejoin:miter;stroke-miterlimit:10;stroke-dasharray:none;stroke-opacity:1"
       d="m 0,0 c 0,18.787 -30.459,34.016 -68.032,34.016 -37.574,0 -68.032,-15.229 -68.032,-34.016 0,-18.787 30.458,-34.016 68.032,-34.016 C -30.459,-34.016 0,-18.787 0,0 Z" /></g></g><text
   id="text54"
   style="font-variant:normal;font-weight:normal;font-size:9.963px;font-family:CMMI10;-inkscape-font-specification:CMMI10;writing-mode:lr-tb;fill:#000000;fill-opacity:1;fill-rule:nonzero;stroke:none"
   transform="matrix(1,0,0,-1,331.655,601.532)"><tspan
     id="tspan50"
     y="0"
     x="0">a</tspan><tspan
     id="tspan52"
     y="-12.728"
     x="-28.575001">b</tspan></text>
<g
   transform="translate(301.493,598.75827)"
   id="g56"><g
     transform="translate(49.2943,24.0494)"
     id="g58"><path
       id="path60"
       style="fill:#000000;fill-opacity:1;fill-rule:nonzero;stroke:#000000;stroke-width:0.398;stroke-linecap:butt;stroke-linejoin:miter;stroke-miterlimit:10;stroke-dasharray:none;stroke-opacity:1"
       d="m 0,0 c 0,0.66 -0.535,1.196 -1.196,1.196 -0.66,0 -1.195,-0.536 -1.195,-1.196 0,-0.66 0.535,-1.196 1.195,-1.196 C -0.535,-1.196 0,-0.66 0,0 Z" /></g></g></g></svg>
