<svg xmlns="http://www.w3.org/2000/svg" viewBox="0 0 284.2911682128906 195.93710327148438" overflow="hidden" preserveAspectRatio="xMidYMid meet" id="eaf-bd7c-0"><defs><clipPath id="eaf-bd7c-1"><rect x="0" y="0" width="284.2912" height="195.9371"></rect></clipPath></defs><g clip-path="url('#eaf-bd7c-1')" style="isolation: isolate;"><g><g transform="matrix(1.3333 0 0 -1.3333 117.9699 900.2439)"><g transform="translate(301.493 598.7583)"><g transform="translate(-102.0482 0)"><path fill="none" stroke="#000" stroke-width="0.398" stroke-miterlimit="10" d="m0 0l203.638 0"></path></g></g><g transform="translate(403.083 598.7583)"><g transform="translate(-1.1955 1.594)"><path fill="none" stroke="#000" stroke-width="0.319" stroke-linecap="round" stroke-linejoin="round" d="m0 0c0.1 -0.598 1.196 -1.494 1.494 -1.594c-0.298 -0.1 -1.394 -0.996 -1.494 -1.594"></path></g></g><g transform="translate(301.493 598.7583)"><g transform="translate(0 -68.0322)"><path fill="none" stroke="#000" stroke-width="0.398" stroke-miterlimit="10" d="m0 0l0 135.606"></path></g></g><g transform="matrix(0 1 -1 0 301.493 666.3322)"><g transform="translate(-1.1955 1.594)"><path fill="none" stroke="#000" stroke-width="0.319" stroke-linecap="round" stroke-linejoin="round" d="m0 0c0.1 -0.598 1.196 -1.494 1.494 -1.594c-0.298 -0.1 -1.394 -0.996 -1.494 -1.594"></path></g></g><g transform="translate(301.493 598.7583)"><g transform="translate(68.0322 0)"><path fill="none" stroke="#f00" stroke-width="0.797" stroke-miterlimit="10" d="m0 0c0 18.787 -30.459 34.016 -68.032 34.016c-37.574 0 -68.032 -15.229 -68.032 -34.016c0 -18.787 30.458 -34.016 68.032 -34.016c37.573 0 68.032 15.229 68.032 34.016z"></path></g></g><g transform="translate(301.493 598.7582)"><g transform="translate(49.2943 24.0494)"><path fill="#000" stroke="#000" stroke-width="0.398" stroke-miterlimit="10" d="m0 0c0 0.66 -0.535 1.196 -1.196 1.196c-0.66 0 -1.195 -0.536 -1.195 -1.196c0 -0.66 0.535 -1.196 1.195 -1.196c0.661 0 1.196 0.536 1.196 1.196z"></path></g></g><animateTransform attributeName="transform" type="translate" from="0 0" to="0 0" calcMode="discrete" dur="1000ms" fill="freeze"></animateTransform><animateMotion keyTimes="0;1" calcMode="linear" dur="1000ms" fill="freeze" attributeName="transform" keyPoints="0;1" path="m519.8541 102.0061l-377.7085 -4.0375" additive="sum"></animateMotion><animateTransform attributeName="transform" type="scale" from="1.3333 -1.3333" to="1.3333 -1.3333" calcMode="discrete" dur="1000ms" fill="freeze" additive="sum"></animateTransform><animateTransform attributeName="transform" type="translate" from="-301.4131 -598.6784" to="-301.4131 -598.6784" calcMode="discrete" dur="1000ms" fill="freeze" additive="sum"></animateTransform></g></g></g></svg>