<?xml version="1.0" encoding="UTF-8" standalone="no"?>
<!-- Created with Inkscape (http://www.inkscape.org/) -->

<svg
   width="111.03125mm"
   height="9.5970764mm"
   viewBox="0 0 111.03125 9.5970764"
   version="1.1"
   id="svg1"
   inkscape:export-filename="form1.svg"
   inkscape:export-xdpi="96"
   inkscape:export-ydpi="96"
   xmlns:inkscape="http://www.inkscape.org/namespaces/inkscape"
   xmlns:sodipodi="http://sodipodi.sourceforge.net/DTD/sodipodi-0.dtd"
   xmlns="http://www.w3.org/2000/svg"
   xmlns:svg="http://www.w3.org/2000/svg">
  <sodipodi:namedview
     id="namedview1"
     pagecolor="#ffffff"
     bordercolor="#000000"
     borderopacity="0.25"
     inkscape:showpageshadow="2"
     inkscape:pageopacity="0.0"
     inkscape:pagecheckerboard="0"
     inkscape:deskcolor="#d1d1d1"
     inkscape:document-units="mm" />
  <defs
     id="defs1" />
  <g
     inkscape:label="Слой 1"
     inkscape:groupmode="layer"
     id="layer1"
     transform="translate(-16.240152,-3.397381)">
    <text
       xml:space="preserve"
       style="font-stretch:condensed;font-size:11.4169px;font-family:Denistina;-inkscape-font-specification:'Denistina Condensed';fill:#000080;stroke:#000000;stroke-width:2.16104;stroke-linecap:round;stroke-miterlimit:4.5;stroke-opacity:0.00478468;paint-order:markers stroke fill"
       x="17.286816"
       y="12.262281"
       id="text1"
       transform="scale(1.0292383,0.97159228)"><tspan
         sodipodi:role="line"
         id="tspan1"
         style="font-style:normal;font-variant:normal;font-weight:normal;font-stretch:normal;font-family:Mathlete;-inkscape-font-specification:Mathlete;fill:#000080;stroke-width:2.16104"
         x="17.286816"
         y="12.262281"><tspan
           style="font-style:italic;font-variant:normal;font-weight:normal;font-stretch:normal;font-size:16.3097px;font-family:'Comic Sans MS';-inkscape-font-specification:'Comic Sans MS Italic';stroke-width:2.16104"
           id="tspan3"> <tspan
   style="font-style:normal;font-variant:normal;font-weight:normal;font-stretch:normal;font-family:Denistina;-inkscape-font-specification:Denistina;stroke-width:2.16104"
   id="tspan10">x =  x</tspan><tspan
   style="font-style:normal;font-variant:normal;font-weight:normal;font-stretch:normal;font-size:8.15489px;font-family:Denistina;-inkscape-font-specification:Denistina;stroke-width:2.16104"
   id="tspan7">1</tspan><tspan
   style="font-style:normal;font-variant:normal;font-weight:normal;font-stretch:normal;font-family:Denistina;-inkscape-font-specification:Denistina;stroke-width:2.16104"
   id="tspan11"> +  x</tspan><tspan
   style="font-style:normal;font-variant:normal;font-weight:normal;font-stretch:normal;font-size:8.15489px;font-family:Denistina;-inkscape-font-specification:Denistina;stroke-width:2.16104"
   id="tspan8">2</tspan><tspan
   style="font-style:normal;font-variant:normal;font-weight:normal;font-stretch:normal;font-family:Denistina;-inkscape-font-specification:Denistina;stroke-width:2.16104"
   id="tspan12"> + .... +  x</tspan></tspan><tspan
           id="tspan14"
           style="font-style:normal;font-variant:normal;font-weight:normal;font-stretch:normal;font-size:8.15489px;font-family:Denistina;-inkscape-font-specification:Denistina;stroke-width:2.16104">n</tspan><tspan
           style="font-style:normal;font-variant:normal;font-weight:normal;font-stretch:normal;font-family:Denistina;-inkscape-font-specification:Denistina;stroke-width:2.16104"
           id="tspan13"> </tspan></tspan></text>
    <path
       style="fill:#000080;stroke:#000000;stroke-width:2.16104;stroke-linecap:round;stroke-miterlimit:4.5;stroke-opacity:0.00478468;paint-order:markers stroke fill"
       id="path14"
       d="m 20.959899,5.2034486 c -0.815757,0.9140675 -1.606082,1.8481173 -2.405828,2.7746992 -0.352338,0.4146674 -0.699938,0.8349922 -1.023154,1.2706187 -0.110865,0.149288 -0.22745,0.2776218 -0.209365,0.4623421 0.183912,0.183292 0.155358,0.1706921 0.60277,0.3097724 0.140386,0.04362 0.996531,-0.102056 1.167787,-0.1257509 0.567748,-0.1036734 1.153914,-0.08647 1.715025,-0.2194516 0.470203,-0.1594619 0.425569,-0.6477991 0.426948,-1.0416576 -0.01181,-0.600075 -0.04829,-1.1997703 -0.02522,-1.7998182 0.06019,-0.2748189 -0.04424,-0.6552805 0.152279,-0.8963874 0.03022,-0.037081 0.07661,-0.059428 0.114913,-0.089119 0,0 -0.399563,-0.2350813 -0.399563,-0.2350813 v 0 c -0.04139,0.034992 -0.09136,0.062796 -0.124443,0.1050432 -0.197007,0.2515891 -0.100165,0.6293598 -0.157023,0.9146784 -0.02474,0.60003 0.0118,1.2000399 0.0214,1.8001822 -4.52e-4,0.3863211 0.06756,0.8360365 -0.396114,0.9907285 -0.560088,0.1266481 -1.143565,0.1146109 -1.708984,0.2182612 -0.136082,0.018642 -0.53739,0.074566 -0.679928,0.088805 -0.09207,0.0092 -0.184396,0.015729 -0.27682,0.019539 -0.06901,0.00292 -0.230075,-0.060596 -0.206986,5.955e-4 0.03878,0.1021456 0.190806,0.1214381 0.279294,0.1906586 0.02379,0.017968 -0.05424,-0.023828 -0.08136,-0.035779 -0.05091,-0.1595737 0.09135,-0.3089029 0.18273,-0.43537 0.316341,-0.4386339 0.660302,-0.8603131 1.010615,-1.2748793 0.79777,-0.927395 1.591116,-1.8589136 2.421769,-2.7603836 z" />
    <path
       style="fill:#000080;stroke:#000000;stroke-width:2.16104;stroke-linecap:round;stroke-miterlimit:4.5;stroke-opacity:0.00478468;paint-order:markers stroke fill"
       id="path15"
       d="m 43.528845,6.0584948 c -0.587092,0.7503784 -1.182488,1.4944792 -1.761181,2.2506745 -0.114448,0.20236 -0.671627,0.7669623 -0.537511,1.0384011 0.0214,0.042717 0.06756,0.073174 0.113017,0.092891 0.201035,0.087367 0.413197,0.1502992 0.619806,0.2254437 0.674624,-0.06886 1.324478,-0.2635463 1.994963,-0.3535078 0.207699,-0.057991 0.653116,0.068614 0.794559,-0.1482332 0.01666,-0.026502 0.01666,-0.060079 0.02594,-0.09013 C 44.667549,8.6897641 44.486933,8.3257432 44.371302,7.940053 44.260673,7.4066154 44.196185,6.8644163 44.127576,6.3246384 c 0.01434,-0.1929494 -0.13039,-0.4640489 -1.67e-4,-0.6361582 0,0 -0.408057,-0.2259291 -0.408057,-0.2259291 v 0 c -0.133004,0.1951057 -0.0095,0.4492931 -0.0095,0.6666112 0.06733,0.541788 0.137285,1.0848697 0.240371,1.6214112 0.110633,0.3805402 0.269064,0.7427399 0.412269,1.1120548 -0.04329,0.2654172 -0.5968,0.1422803 -0.785447,0.1959589 -0.667081,0.097564 -1.316081,0.2915759 -1.990871,0.3446476 0.06567,0.066299 0.157973,0.1159366 0.196755,0.1988789 0.01898,0.041302 -0.10184,-0.020663 -0.130368,-0.057046 -0.02951,-0.037732 -0.03188,-0.09278 -0.02379,-0.1390237 0.0609,-0.3322746 0.373106,-0.5944891 0.534203,-0.8765579 0.576838,-0.7575901 1.171781,-1.5022098 1.770556,-2.2444465 z" />
    <path
       style="fill:#000080;stroke:#000000;stroke-width:2.16104;stroke-linecap:round;stroke-miterlimit:4.5;stroke-opacity:0.00478468;paint-order:markers stroke fill"
       id="path16"
       d="m 65.826465,5.7692615 c -0.557042,0.7975838 -1.144897,1.5753198 -1.707222,2.3695099 -0.09445,0.1582712 -0.789037,1.1035112 -0.507315,1.3003483 0.161072,0.1124999 0.344864,0.1925003 0.517286,0.2887527 0.596108,0.061585 1.199238,0.027693 1.797656,0.015729 0.227452,-0.012358 0.817422,0.024908 0.959009,-0.2140613 0.0214,-0.036787 0.0214,-0.081887 0.0314,-0.1228534 -0.01181,-0.05882 -0.01898,-0.1190347 -0.03807,-0.1765088 -0.0118,-0.038024 -0.17606,-0.4261711 -0.185572,-0.4490798 C 66.573012,8.4897896 66.459046,8.1970659 66.350246,7.9016383 66.166565,7.3667453 66.093674,6.8086832 66.049397,6.2504885 c 0.02783,-0.1279746 -0.0118,-0.093858 0.09017,-0.1286705 0,0 -0.396066,-0.2441729 -0.396066,-0.2441729 v 0 c -0.122291,0.079283 -0.07972,0.023941 -0.113727,0.174892 0.04829,0.5615457 0.117061,1.1236372 0.299352,1.6629748 0.18176,0.4968465 0.397184,0.9829822 0.57196,1.4808957 -0.0049,0.032679 1.18e-4,0.068973 -0.01666,0.098035 -0.125391,0.2177225 -0.732841,0.1777221 -0.934741,0.191647 -0.594158,0.012359 -1.20007,0.056621 -1.787948,-0.037194 0.09396,0.056621 0.178449,0.1306023 0.28177,0.1699061 0.03807,0.014606 -0.06567,-0.054081 -0.0759,-0.091589 -0.01434,-0.052533 -0.0072,-0.1098055 0.0072,-0.1626746 0.08969,-0.3682974 0.350172,-0.685093 0.539033,-1.0079212 0.563086,-0.7935545 1.149109,-1.5722295 1.719333,-2.3612336 z" />
    <path
       style="fill:#000080;stroke:#000000;stroke-width:2.16104;stroke-linecap:round;stroke-miterlimit:4.5;stroke-opacity:0.00478468;paint-order:markers stroke fill"
       id="path17"
       d="m 115.16228,5.6503117 c -0.56126,0.7861202 -1.19384,1.5271981 -1.81586,2.2714382 -0.15536,0.2426995 -0.82768,0.8601917 -0.6314,1.1854434 0.16869,0.082919 0.32736,0.1868628 0.50578,0.2487859 0.0143,0.00472 0.39873,-0.039348 0.40158,-0.039752 0.41472,-0.061426 0.82739,-0.1407978 1.24116,-0.207885 0.35379,-0.056283 0.7071,-0.1124546 1.06618,-0.1253687 0.1908,-0.00696 0.37925,0.00875 0.56948,-0.00426 0.23601,-0.114274 -0.0117,-0.4155591 -0.0878,-0.5686474 -0.22197,-0.5033329 -0.32638,-1.0346975 -0.39518,-1.5728651 -0.039,-0.2564446 -0.0801,-0.5125816 -0.12062,-0.7688287 -0.007,-0.046402 -0.0307,-0.2480606 -0.0628,-0.2649614 -0.15275,-0.080517 -0.32554,-0.1214379 -0.48831,-0.1821688 0,0 0.39475,0.246194 0.39475,0.246194 v 0 c -0.11177,-0.083658 -0.21317,-0.1818277 -0.3355,-0.2509736 -0.0285,-0.016166 0.0337,0.055026 0.0423,0.085413 0.0166,0.056104 0.019,0.114432 0.0295,0.1717253 0.0421,0.2561056 0.0824,0.5124604 0.12346,0.7687097 0.0671,0.5412513 0.1694,1.0749876 0.38489,1.5836389 0.0457,0.093633 0.0878,0.1887944 0.13657,0.2809817 0.0421,0.079529 0.13039,0.1752738 -0.005,0.2122422 -0.54543,0.027693 -1.09436,0.00696 -1.63043,0.1387554 -0.41441,0.067423 -0.82851,0.1462344 -1.24487,0.202113 -0.0769,0.010329 -0.15418,0.017518 -0.23149,0.022235 -0.0542,0.00359 -0.1932,-0.040697 -0.16297,0.00178 0.0687,0.096531 0.20318,0.1316353 0.30482,0.1974638 -0.019,-0.013482 -0.0462,-0.020214 -0.0555,-0.040539 -0.11791,-0.2538708 0.53103,-0.9139596 0.64473,-1.0978647 0.62143,-0.7475146 1.25427,-1.4896908 1.82905,-2.2696144 z" />
  </g>
</svg>
