<?xml version="1.0" encoding="UTF-8" standalone="no"?>
<!-- Generator: Adobe Illustrator 26.2.1, SVG Export Plug-In . SVG Version: 6.00 Build 0)  -->

<svg
   version="1.1"
   id="svg1"
   inkscape:export-filename="koordinata.svg"
   sodipodi:docname="koordinata.svg"
   x="0px"
   y="0px"
   viewBox="0 0 680.3 288.1"
   style="enable-background:new 0 0 680.3 288.1;"
   xml:space="preserve"
   inkscape:version="1.4 (86a8ad7, 2024-10-11)"
   inkscape:export-xdpi="96"
   inkscape:export-ydpi="96"
   xmlns:inkscape="http://www.inkscape.org/namespaces/inkscape"
   xmlns:sodipodi="http://sodipodi.sourceforge.net/DTD/sodipodi-0.dtd"
   xmlns="http://www.w3.org/2000/svg"
   xmlns:svg="http://www.w3.org/2000/svg"><defs
   id="defs1" />
<style
   type="text/css"
   id="style1">
	.st0{fill-rule:evenodd;clip-rule:evenodd;}
</style>
<sodipodi:namedview
   bordercolor="#000000"
   borderopacity="0.25"
   id="namedview1"
   inkscape:current-layer="layer1"
   inkscape:cx="213.41732"
   inkscape:cy="275.77952"
   inkscape:deskcolor="#d1d1d1"
   inkscape:document-units="mm"
   inkscape:pagecheckerboard="0"
   inkscape:pageopacity="0.0"
   inkscape:showpageshadow="2"
   inkscape:window-height="1417"
   inkscape:window-maximized="1"
   inkscape:window-width="2560"
   inkscape:window-x="-8"
   inkscape:window-y="-8"
   inkscape:zoom="1.0823864"
   pagecolor="#ffffff">
	<inkscape:page
   bleed="0"
   height="288.10001"
   id="page2"
   margin="0"
   width="680.29999"
   x="0"
   y="0" />
</sodipodi:namedview>
<g
   id="layer1"
   transform="translate(-12.888198,-9.2284767)"
   inkscape:groupmode="layer"
   inkscape:label="РЎР»РѕР№ 1">
	
	
	
	
	
	
	
	
	
	
	
	
	
	
	
	
	
	
	
	
	
	
	
	
	
	
	
	
	
	
	
	
	
	
	
	
	
	
	
<path
   stroke-width="1.35925"
   stroke-linecap="butt"
   stroke-miterlimit="10"
   stroke-linejoin="miter"
   fill="none"
   stroke="#000000"
   d="m 275.95504,232.27861 -98.40255,42.51124"
   id="path59" /><path
   id="use61"
   d="m 184.3409,285.6074 -1.39859,1.41743 -1.70512,1.8313 3.12287,4.41495 c 0.15965,0.22115 0.23949,0.43885 0.23949,0.6531 0,0.26943 -0.0958,0.50772 -0.28739,0.71487 -0.19159,0.20735 -0.40872,0.31102 -0.65139,0.31102 -0.24268,0 -0.463,-0.12792 -0.66098,-0.38378 -0.58753,-0.73954 -1.6221,-2.16355 -3.1037,-4.27203 l -1.86797,2.0796 c -0.37679,0.36557 -0.926,0.93462 -1.64765,1.70713 -0.20436,0.24832 -0.42468,0.37247 -0.66097,0.37247 -0.24268,0 -0.45822,-0.1035 -0.64661,-0.31038 -0.18839,-0.20694 -0.28259,-0.4449 -0.28259,-0.7139 0,-0.21382 0.0799,-0.4311 0.23948,-0.65182 0.17882,-0.2552 0.45662,-0.56214 0.83341,-0.92081 0.44064,-0.42076 0.73122,-0.71045 0.87172,-0.86909 l 2.04039,-2.30721 -1.25489,-1.95544 c -0.50451,-0.77943 -0.94516,-1.34848 -1.32194,-1.70714 -0.24268,-0.23452 -0.36402,-0.48972 -0.36402,-0.76562 0,-0.2759 0.091,-0.52078 0.27301,-0.73459 0.18201,-0.21382 0.39116,-0.32073 0.62745,-0.32073 0.37678,0 0.94516,0.5311 1.70512,1.59332 l 1.65723,2.47276 1.87754,-1.86233 c 0.77912,-0.79322 1.30599,-1.41399 1.5806,-1.86233 0.20435,-0.32418 0.44703,-0.48627 0.72802,-0.48627 0.24907,0 0.46939,0.1 0.66098,0.30004 0.19159,0.20003 0.28738,0.43109 0.28738,0.6932 0,0.37936 -0.29696,0.90013 -0.89088,1.56228 z"
   style="stroke-width:20.3887" /><path
   stroke-width="1.35925"
   stroke-linecap="butt"
   stroke-miterlimit="10"
   stroke-linejoin="miter"
   fill="none"
   stroke="#000000"
   d="M 275.95504,232.27861 H 478.53985"
   id="path62" /><path
   id="use64"
   d="m 489.93181,212.36644 -3.31445,7.73997 c -0.81745,1.88323 -1.44329,3.45942 -1.87755,4.72856 l -0.63224,2.0075 c -0.16605,0.50352 -0.45342,0.75528 -0.86214,0.75528 -0.26822,0 -0.49973,-0.0954 -0.6945,-0.28614 -0.19478,-0.19055 -0.29217,-0.42798 -0.29217,-0.71228 0,-0.6932 0.6897,-2.68777 2.06914,-5.9837 l -3.42941,-7.13827 -0.43106,-0.75657 c -0.17244,-0.31772 -0.25865,-0.58359 -0.25865,-0.79763 0,-0.28279 0.10055,-0.53111 0.30175,-0.74494 0.20117,-0.21381 0.42628,-0.32073 0.67534,-0.32073 0.29377,0 0.52048,0.12072 0.68014,0.36212 1.08565,1.63018 2.25114,3.95109 3.49645,6.96272 l 1.41774,-3.58046 c 0.5109,-1.2353 1.00265,-2.29719 1.47523,-3.18568 0.20435,-0.38626 0.47258,-0.57938 0.80465,-0.57938 0.26184,0 0.49334,0.0999 0.69451,0.2997 0.20117,0.19982 0.30175,0.43756 0.30175,0.71325 0,0.15153 -0.0415,0.32375 -0.12453,0.51668 z"
   style="stroke-width:20.3887" /><path
   stroke-width="1.35925"
   stroke-linecap="butt"
   stroke-miterlimit="10"
   stroke-linejoin="miter"
   fill="none"
   stroke="#000000"
   d="M 275.95504,232.27861 V 13.474762"
   id="path65" /><path
   id="use67"
   d="m 268.33676,15.632721 c -0.56837,0.738039 -1.2964,1.807153 -2.18409,3.207336 -1.02817,1.628033 -1.78176,2.780025 -2.26072,3.455983 0.67055,-0.04142 1.2549,-0.06205 1.75301,-0.06205 0.24907,0 0.61948,0.05169 1.11121,0.155191 0.49173,0.103499 0.86215,0.1552 1.11121,0.1552 0.28099,0 0.50929,0.09825 0.68492,0.294867 0.17561,0.196578 0.26343,0.446615 0.26343,0.750102 0,0.310383 -0.0878,0.562146 -0.26343,0.755272 -0.17563,0.193143 -0.40393,0.289698 -0.68492,0.289698 -0.24906,0 -0.61948,-0.04824 -1.11121,-0.144845 -0.49173,-0.09654 -0.86214,-0.144853 -1.11121,-0.144853 -1.43689,0 -2.80035,0.138279 -4.09036,0.414829 -0.13412,0.02697 -0.25227,0.04045 -0.35444,0.04045 -0.61947,0 -0.9292,-0.294112 -0.9292,-0.882345 0,-0.345942 0.15965,-0.67811 0.47897,-0.996471 1.6668,-1.626517 3.48049,-4.159298 5.44106,-7.598361 -0.84936,0.05522 -1.46564,0.08272 -1.84882,0.08272 -0.94516,0 -1.91586,-0.08272 -2.91211,-0.24832 -0.56838,-0.08968 -0.85256,-0.431083 -0.85256,-1.024268 0,-0.303488 0.0863,-0.556976 0.25864,-0.760457 0.17243,-0.203473 0.38956,-0.305214 0.6514,-0.305214 0.31292,0 0.7855,0.03789 1.41774,0.113813 0.63224,0.07585 1.11121,0.113797 1.43689,0.113797 0.43428,0 1.08567,-0.03106 1.9542,-0.09311 0.86852,-0.06205 1.51992,-0.09311 1.95418,-0.09311 0.54283,0 0.81424,0.242379 0.81424,0.727137 0,0.56087 -0.24267,1.159867 -0.72803,1.797023 z"
   style="stroke-width:20.3887" /><path
   id="use75"
   d="M 359.46769,134.96511 Z"
   style="fill:#000080;stroke-width:20.3887" /><path
   id="use76"
   d="M 364.15592,134.96511 Z"
   style="fill:#000080;stroke-width:20.3887" /><path
   id="use77"
   d="M 368.83453,134.96511 Z"
   style="stroke-width:20.3887" /><path
   id="use78"
   d="M 373.51471,134.96511 Z"
   style="stroke-width:20.3887" /><path
   id="use79"
   d="M 378.19332,134.96511 Z"
   style="stroke-width:20.3887" /><path
   id="use80"
   d="M 382.87364,134.96511 Z"
   style="stroke-width:20.3887" /><path
   id="use81"
   d="M 387.55213,134.96511 Z"
   style="stroke-width:20.3887" /><path
   id="use82"
   d="M 392.23242,134.96511 Z"
   style="stroke-width:20.3887" /><path
   id="use83"
   d="M 396.91091,134.96511 Z"
   style="stroke-width:20.3887" /><path
   id="use84"
   d="M 401.59118,134.96511 Z"
   style="stroke-width:20.3887" /><path
   id="use85"
   d="M 406.26967,134.96511 Z"
   style="stroke-width:20.3887" /><path
   id="use86"
   d="M 410.94998,134.96511 Z"
   style="stroke-width:20.3887" /><path
   id="use87"
   d="M 415.62863,134.96511 Z"
   style="stroke-width:20.3887" /><path
   id="use88"
   d="M 420.30877,134.96511 Z"
   style="stroke-width:20.3887" /><path
   id="use89"
   d="M 424.98738,134.96511 Z"
   style="fill:#000080;stroke-width:20.3887" /><path
   id="use90"
   d="M 429.66755,134.96511 Z"
   style="fill:#000080;stroke-width:20.3887" /><path
   id="use91"
   d="M 434.34604,134.96511 Z"
   style="fill:#000080;stroke-width:20.3887" /><path
   id="use92"
   d="M 439.02631,134.96511 Z"
   style="fill:#000080;stroke-width:20.3887" /><path
   stroke-width="0.678773"
   stroke-linecap="butt"
   stroke-dasharray="2.989, 2.989"
   stroke-miterlimit="10"
   stroke-linejoin="miter"
   fill="none"
   stroke="#000000"
   d="M 345.30477,262.39352 H 205.75182"
   id="path106" /><path
   stroke-width="0.678773"
   stroke-linecap="butt"
   stroke-dasharray="2.989, 2.989"
   stroke-miterlimit="10"
   stroke-linejoin="miter"
   fill="none"
   stroke="#000000"
   d="M 343.94993,262.87629 413.7264,232.73117 H 274.17345"
   id="path107" /><path
   stroke-width="0.833398"
   stroke-linecap="butt"
   stroke-dasharray="2.989, 2.989"
   stroke-miterlimit="10"
   stroke-linejoin="miter"
   fill="none"
   stroke="#000000"
   d="M 343.58086,91.798059 V 262.21148"
   id="path108" /><g
   id="g64"
   transform="matrix(1.255991,0,0,-1.1631247,250.17849,43.989556)">
		<path
   id="path66-5"
   class="st0"
   d="m 76.2,-36.5 1.3,-0.2 1.1,-0.7 c 1.9,-2 1.2,-4.7 -1.1,-5.8 l -1.3,-0.2 -1.3,0.2 c -2.3,1.1 -3,3.8 -1.1,5.8 l 1.1,0.7 1.3,0.2"
   style="clip-rule:evenodd;fill-rule:evenodd" />
	</g><g
   id="g68"
   transform="matrix(1.255991,0,0,-1.1631247,252.49704,45.444602)">
		<path
   id="path70-5"
   class="st0"
   d="m 79.6,-38.8 -0.6,2.2 -1.1,1.5 -1.7,1.1 -1.9,0.4 V -37 H 75 l 0.6,-0.4 0.4,-0.7 0.2,-0.7 h 3.4"
   style="clip-rule:evenodd;fill-rule:evenodd" />
	</g><g
   id="g72"
   transform="matrix(1.255991,0,0,-1.1631247,250.17849,47.513824)">
		<path
   id="path74"
   class="st0"
   d="m 76.2,-42.1 1.9,0.4 1.7,1.1 1.1,1.5 0.6,2.1 h -3.4 l -0.2,-0.6 -0.4,-0.7 -0.6,-0.4 h -0.7 v -3.4"
   style="clip-rule:evenodd;fill-rule:evenodd" />
	</g><g
   id="g76"
   transform="matrix(1.255991,0,0,-1.1631247,247.86371,45.444602)">
		<path
   id="path78"
   class="st0"
   d="m 72.8,-38.8 0.6,-2.1 1.1,-1.5 1.7,-1.1 1.9,-0.4 v 3.4 h -0.7 l -0.6,0.4 -0.4,0.7 -0.2,0.6 h -3.4"
   style="clip-rule:evenodd;fill-rule:evenodd" />
	</g><g
   id="g80"
   transform="matrix(1.255991,0,0,-1.1631247,250.17849,43.299815)">
		<path
   id="path82"
   class="st0"
   d="m 76.2,-35.4 -1.9,-0.4 -1.7,-1.1 -1.1,-1.5 -0.5,-2.3 h 3.4 l 0.2,0.7 0.4,0.7 0.6,0.4 h 0.7 v 3.5"
   style="clip-rule:evenodd;fill-rule:evenodd" />
	</g><g
   id="g84"
   transform="matrix(1.255991,0,0,-1.0932154,237.66018,55.597305)">
		<path
   id="path86"
   class="st0"
   d="m 139.2,-30.5 -4.7,0.4 C 84.7,-26.4 25.4,-44.6 -20.3,-62.8 l -4.9,-1.9 0.4,-1.5 4.9,1.9 c 45.3,18 105.2,36.5 154.4,32.7 l 4.7,-0.4 v 1.5"
   style="clip-rule:evenodd;fill-rule:evenodd" />
	</g><g
   id="g88"
   transform="matrix(1.255991,0,0,-1.0932154,276.30134,78.473387)">
		<path
   id="path90"
   class="st0"
   d="m 196.7,-69.3 -2.6,6.7 c -14.9,31.9 -44.8,46.9 -78.2,52.1 l -8,1.1 v -1.5 l 7.7,-1.1 c 32.6,-5 63.1,-19.8 77.1,-51.3 l 2.6,-6.3 1.4,0.3"
   style="clip-rule:evenodd;fill-rule:evenodd" />
	</g></g>
</svg>
