<?xml version="1.0" encoding="UTF-8" standalone="no"?>
<svg
   viewBox="0 0 657.77039 231.93121"
   height="231.93121"
   width="657.77039"
   xml:space="preserve"
   id="svg2"
   version="1.1"
   sodipodi:docname="traektoria.svg"
   inkscape:export-filename="..\Desktop\mobile-navigation-animation\dist\proj\introSVG\traektoria.svg"
   inkscape:export-xdpi="96"
   inkscape:export-ydpi="96"
   inkscape:version="1.3.2 (091e20e, 2023-11-25, custom)"
   xmlns:inkscape="http://www.inkscape.org/namespaces/inkscape"
   xmlns:sodipodi="http://sodipodi.sourceforge.net/DTD/sodipodi-0.dtd"
   xmlns="http://www.w3.org/2000/svg"
   xmlns:svg="http://www.w3.org/2000/svg"
   xmlns:rdf="http://www.w3.org/1999/02/22-rdf-syntax-ns#"
   xmlns:cc="http://creativecommons.org/ns#"
   xmlns:dc="http://purl.org/dc/elements/1.1/"><sodipodi:namedview
     id="namedview1"
     pagecolor="#ffffff"
     bordercolor="#000000"
     borderopacity="0.25"
     inkscape:showpageshadow="2"
     inkscape:pageopacity="0.0"
     inkscape:pagecheckerboard="0"
     inkscape:deskcolor="#d1d1d1"
     inkscape:zoom="1.6351844"
     inkscape:cx="229.94348"
     inkscape:cy="269.38857"
     inkscape:window-width="2560"
     inkscape:window-height="1417"
     inkscape:window-x="-8"
     inkscape:window-y="-8"
     inkscape:window-maximized="1"
     inkscape:current-layer="svg2" /><metadata
     id="metadata8"><rdf:RDF><cc:Work
         rdf:about=""><dc:format>image/svg+xml</dc:format><dc:type
           rdf:resource="http://purl.org/dc/dcmitype/StillImage" /></cc:Work></rdf:RDF></metadata><defs
     id="defs6" /><g
     transform="matrix(1.7724821,0,0,-2.0181728,-344.60516,1334.6062)"
     id="g10"><g
   transform="translate(197.05952,549.2282)"
   id="g12"><path
     id="path14"
     style="fill:none;stroke:#000000;stroke-width:0.398;stroke-linecap:butt;stroke-linejoin:miter;stroke-miterlimit:10;stroke-dasharray:none;stroke-opacity:1"
     d="M 0,0 H 167.016" /></g><g
   transform="translate(362.35785,549.22821)"
   id="g16"><g
     transform="translate(4.2146)"
     id="g18"><path
       id="path20"
       style="fill:#000000;fill-opacity:1;fill-rule:nonzero;stroke:#000000;stroke-width:0.398;stroke-linecap:butt;stroke-linejoin:miter;stroke-miterlimit:10;stroke-dasharray:none;stroke-opacity:1"
       d="M 0,0 -3.571,1.346 -2.397,0 -3.571,-1.346 Z" /></g></g><text
   id="text24"
   style="font-variant:normal;font-weight:normal;font-stretch:normal;font-size:9.963px;font-family:'Comic Sans MS';-inkscape-font-specification:ComicSansMS;writing-mode:lr-tb;fill:#000000;fill-opacity:1;fill-rule:nonzero;stroke:none"
   transform="matrix(1,0,0,-1,370.657,546.587)"><tspan
     id="tspan22"
     y="0"
     x="0">x</tspan></text>
<g
   transform="translate(197.05952,549.2282)"
   id="g26"><path
     id="path28"
     style="fill:none;stroke:#000000;stroke-width:0.398;stroke-linecap:butt;stroke-linejoin:miter;stroke-miterlimit:10;stroke-dasharray:none;stroke-opacity:1"
     d="M 0,0 V 98.984" /></g><g
   transform="rotate(90,-224.7174,421.77694)"
   id="g30"><g
     transform="translate(4.2146)"
     id="g32"><path
       id="path34"
       style="fill:#000000;fill-opacity:1;fill-rule:nonzero;stroke:#000000;stroke-width:0.398;stroke-linecap:butt;stroke-linejoin:miter;stroke-miterlimit:10;stroke-dasharray:none;stroke-opacity:1"
       d="M 0,0 -3.571,1.346 -2.397,0 -3.571,-1.346 Z" /></g></g><text
   id="text38"
   style="font-variant:normal;font-weight:normal;font-stretch:normal;font-size:9.963px;font-family:'Comic Sans MS';-inkscape-font-specification:ComicSansMS;writing-mode:lr-tb;fill:#000000;fill-opacity:1;fill-rule:nonzero;stroke:none"
   transform="matrix(1,0,0,-1,194.439,656.235)"><tspan
     id="tspan36"
     y="0"
     x="0">y</tspan></text>
<g
   transform="translate(197.05952,549.2282)"
   id="g40"><g
     transform="translate(17.008,17.008)"
     id="g42"><path
       id="path44"
       style="fill:none;stroke:#0000ff;stroke-width:0.797;stroke-linecap:butt;stroke-linejoin:miter;stroke-miterlimit:10;stroke-dasharray:none;stroke-opacity:1"
       d="M 0,0 C 51.024,68.032 85.04,10.205 119.056,34.016" /></g></g><g
   transform="translate(197.05952,549.2282)"
   id="g46"><g
     transform="translate(18.8013,17.008)"
     id="g48"><path
       id="path50"
       style="fill:#000000;fill-opacity:1;fill-rule:nonzero;stroke:#000000;stroke-width:0.398;stroke-linecap:butt;stroke-linejoin:miter;stroke-miterlimit:10;stroke-dasharray:none;stroke-opacity:1"
       d="M 0,0 C 0,0.99 -0.803,1.793 -1.793,1.793 -2.784,1.793 -3.587,0.99 -3.587,0 c 0,-0.99 0.803,-1.793 1.794,-1.793 C -0.803,-1.793 0,-0.99 0,0 Z" /></g></g><text
   id="text54"
   style="font-variant:normal;font-weight:normal;font-stretch:normal;font-size:9.963px;font-family:'Comic Sans MS';-inkscape-font-specification:ComicSansMS;writing-mode:lr-tb;fill:#000000;fill-opacity:1;fill-rule:nonzero;stroke:none"
   transform="matrix(1,0,0,-1,202.642,554.913)"><tspan
     id="tspan52"
     y="0"
     x="0 7.2829528 10.929411">A(t</tspan></text>
<text
   id="text58"
   style="font-variant:normal;font-weight:normal;font-stretch:normal;font-size:6.974px;font-family:'Comic Sans MS';-inkscape-font-specification:ComicSansMS;writing-mode:lr-tb;fill:#000000;fill-opacity:1;fill-rule:nonzero;stroke:none"
   transform="matrix(1,0,0,-1,218.272,553.419)"><tspan
     id="tspan56"
     y="0"
     x="0">1</tspan></text>
<text
   id="text62"
   style="font-variant:normal;font-weight:normal;font-stretch:normal;font-size:9.963px;font-family:'Comic Sans MS';-inkscape-font-specification:ComicSansMS;writing-mode:lr-tb;fill:#000000;fill-opacity:1;fill-rule:nonzero;stroke:none"
   transform="matrix(1,0,0,-1,221.412,554.913)"><tspan
     id="tspan60"
     y="0"
     x="0">)</tspan></text>
<g
   transform="translate(197.05952,549.22821)"
   id="g64"><g
     transform="translate(137.8576,51.0241)"
     id="g66"><path
       id="path68"
       style="fill:#000000;fill-opacity:1;fill-rule:nonzero;stroke:#000000;stroke-width:0.398;stroke-linecap:butt;stroke-linejoin:miter;stroke-miterlimit:10;stroke-dasharray:none;stroke-opacity:1"
       d="M 0,0 C 0,0.99 -0.803,1.793 -1.793,1.793 -2.784,1.793 -3.587,0.99 -3.587,0 c 0,-0.99 0.803,-1.793 1.794,-1.793 C -0.803,-1.793 0,-0.99 0,0 Z" /></g></g><text
   id="text72"
   style="font-variant:normal;font-weight:normal;font-stretch:normal;font-size:9.963px;font-family:'Comic Sans MS';-inkscape-font-specification:ComicSansMS;writing-mode:lr-tb;fill:#000000;fill-opacity:1;fill-rule:nonzero;stroke:none"
   transform="matrix(1,0,0,-1,336.642,605.765)"><tspan
     id="tspan70"
     y="0"
     x="0 6.27669 9.9231482">B(t</tspan></text>
<text
   id="text76"
   style="font-variant:normal;font-weight:normal;font-stretch:normal;font-size:6.974px;font-family:'Comic Sans MS';-inkscape-font-specification:ComicSansMS;writing-mode:lr-tb;fill:#000000;fill-opacity:1;fill-rule:nonzero;stroke:none"
   transform="matrix(1,0,0,-1,351.265,604.271)"><tspan
     id="tspan74"
     y="0"
     x="0">2</tspan></text>
<text
   id="text80"
   style="font-variant:normal;font-weight:normal;font-stretch:normal;font-size:9.963px;font-family:'Comic Sans MS';-inkscape-font-specification:ComicSansMS;writing-mode:lr-tb;fill:#000000;fill-opacity:1;fill-rule:nonzero;stroke:none"
   transform="matrix(1,0,0,-1,355.522,605.765)"><tspan
     id="tspan78"
     y="0"
     x="0">)</tspan></text>
<g
   transform="translate(197.05952,549.2282)"
   id="g82"><g
     transform="translate(17.008,17.008)"
     id="g84"><path
       id="path86"
       style="fill:none;stroke:#ff0000;stroke-width:1.196;stroke-linecap:butt;stroke-linejoin:miter;stroke-miterlimit:10;stroke-dasharray:none;stroke-opacity:1"
       d="M 0,0 114.098,32.6" /></g></g><g
   transform="matrix(0.9614868,0.274704,-0.274704,0.9614868,325.07747,597.95337)"
   id="g88"><g
     transform="translate(6.6663)"
     id="g90"><path
       id="path92"
       style="fill:#ff0000;fill-opacity:1;fill-rule:nonzero;stroke:#ff0000;stroke-width:1.196;stroke-linecap:butt;stroke-linejoin:miter;stroke-miterlimit:10;stroke-dasharray:none;stroke-opacity:1"
       d="M 0,0 -4.736,1.796 -3.155,0 -4.736,-1.796 Z" /></g></g><text
   id="text96"
   style="font-variant:normal;font-weight:normal;font-stretch:normal;font-size:9.963px;font-family:'Comic Sans MS';-inkscape-font-specification:ComicSansMS;writing-mode:lr-tb;fill:#ff0000;fill-opacity:1;fill-rule:nonzero;stroke:none"
   transform="matrix(1,0,0,-1,264.589,586.665)"><tspan
     id="tspan94"
     y="0"
     x="0">r</tspan></text>
<text
   id="text100"
   style="font-variant:normal;font-weight:normal;font-stretch:normal;font-size:9.963px;font-family:'Comic Sans MS';-inkscape-font-specification:ComicSansMS;writing-mode:lr-tb;fill:#000000;fill-opacity:1;fill-rule:nonzero;stroke:none"
   transform="matrix(1,0,0,-1,278.757,606.556)"><tspan
     id="tspan98"
     y="0"
     x="0">S</tspan></text>
<text
   id="text104"
   style="font-variant:normal;font-weight:normal;font-stretch:normal;font-size:9.963px;font-family:'Comic Sans MS';-inkscape-font-specification:ComicSansMS;writing-mode:lr-tb;fill:#0000ff;fill-opacity:1;fill-rule:nonzero;stroke:none"
   transform="matrix(1,0,0,-1,207.597,616.189)"><tspan
     id="tspan102"
     y="0"
     x="0 6.7748399 12.105045 17.2061 22.665825 27.567621 32.260193 38.148327 43.478531 49.824963">Траектория</tspan></text>
</g><text
     xml:space="preserve"
     style="font-size:33.6875px;font-family:'Comic Sans MS';-inkscape-font-specification:'Comic Sans MS';fill:#f90337;fill-opacity:1;stroke:#000000;stroke-width:6.37654;stroke-linecap:round;stroke-miterlimit:4.5;stroke-opacity:0.00478468;paint-order:markers stroke fill"
     x="393.74451"
     y="118.61415"
     id="text1"
     transform="scale(0.95675176,1.0452032)"><tspan
       sodipodi:role="line"
       id="tspan1"
       x="393.74451"
       y="118.61415"
       style="font-style:normal;font-variant:normal;font-weight:normal;font-stretch:normal;font-family:Denistina;-inkscape-font-specification:Denistina;fill:#0000ff;fill-opacity:1;stroke-width:6.37654">Т раектория - линия</tspan><tspan
       sodipodi:role="line"
       x="393.74451"
       y="161.79765"
       id="tspan2"
       style="font-style:normal;font-variant:normal;font-weight:normal;font-stretch:normal;font-family:Denistina;-inkscape-font-specification:Denistina;fill:#000080;fill-opacity:1;stroke-width:6.37654">Путь - скаляр</tspan><tspan
       sodipodi:role="line"
       x="393.74451"
       y="204.98116"
       id="tspan3"
       style="font-style:normal;font-variant:normal;font-weight:normal;font-stretch:normal;font-family:Denistina;-inkscape-font-specification:Denistina;fill:#f90337;fill-opacity:1;stroke-width:6.37654">Перемещение - вектор</tspan></text><path
     style="fill:#ff0000;fill-opacity:1;stroke:#000000;stroke-width:6.37654;stroke-linecap:round;stroke-miterlimit:4.5;stroke-opacity:0.00478468;paint-order:markers stroke fill"
     id="path3"
     d="m 125.20339,139.31089 c 1.00379,-0.41323 1.94918,-0.96918 2.9382,-1.41952 0.57699,-0.3341 1.16881,-0.60106 1.81435,-0.71393 0.59305,-0.0223 1.17351,-0.154 1.76023,-0.23983 0,0 -1.05501,-0.81354 -1.05501,-0.81354 v 0 c -0.58733,0.0906 -1.17096,0.20475 -1.76388,0.24317 -0.64668,0.13264 -1.2394,0.41494 -1.82137,0.74739 -0.98537,0.46035 -1.93265,1.01577 -2.94453,1.40798 z" /><path
     style="fill:#ff0000;fill-opacity:1;stroke:#000000;stroke-width:6.37654;stroke-linecap:round;stroke-miterlimit:4.5;stroke-opacity:0.00478468;paint-order:markers stroke fill"
     id="path4"
     d="m 129.90827,136.15575 c -0.77753,-0.006 -1.55457,-0.0652 -2.33165,-0.1 -0.31102,-0.0141 -0.62216,-0.0245 -0.93333,-0.0341 0,0 1.03386,0.82476 1.03386,0.82476 v 0 c 0.30697,0.007 0.61393,0.0143 0.92077,0.0267 0.78404,0.0327 1.56708,0.0946 2.35156,0.10901 z" /><path
     style="fill:#ff0000;fill-opacity:1;stroke:#000000;stroke-width:6.37654;stroke-linecap:round;stroke-miterlimit:4.5;stroke-opacity:0.00478468;paint-order:markers stroke fill"
     id="path5"
     d="m 130.07415,136.22483 c -0.52317,0.31278 -1.05877,0.60718 -1.56236,0.95759 -0.28219,0.21306 -0.54219,0.46557 -0.77042,0.74546 -0.0889,0.14539 -0.0497,0.0697 -0.11756,0.22702 0,0 1.12717,0.69591 1.12717,0.69591 v 0 c 0.0543,-0.13243 0.0221,-0.0686 0.0973,-0.19121 0.221,-0.26897 0.46577,-0.51828 0.74063,-0.72047 0.49589,-0.34641 1.01846,-0.65617 1.55346,-0.92256 z" /><text
     xml:space="preserve"
     style="font-style:normal;font-variant:normal;font-weight:normal;font-stretch:normal;font-size:26.6667px;font-family:'Dudu Cyryllic';-inkscape-font-specification:'Dudu Cyryllic';fill:#000080;stroke:#000000;stroke-width:3.53333;stroke-linecap:round;stroke-miterlimit:4.5;stroke-opacity:0.00478468;paint-order:markers stroke fill"
     x="141.88002"
     y="56.262768"
     id="text4"><tspan
       sodipodi:role="line"
       id="tspan4"></tspan></text></svg>
