<?xml version="1.0" encoding="UTF-8" standalone="no"?>
<!-- Generator: Adobe Illustrator 26.2.1, SVG Export Plug-In . SVG Version: 6.00 Build 0)  -->

<svg
   version="1.1"
   id="svg1"
   inkscape:export-filename="koordinata.svg"
   sodipodi:docname="traektornii.svg"
   x="0px"
   y="0px"
   viewBox="0 0 680.3 288.1"
   style="enable-background:new 0 0 680.3 288.1;"
   xml:space="preserve"
   inkscape:version="1.4 (86a8ad7, 2024-10-11)"
   inkscape:export-xdpi="96"
   inkscape:export-ydpi="96"
   xmlns:inkscape="http://www.inkscape.org/namespaces/inkscape"
   xmlns:sodipodi="http://sodipodi.sourceforge.net/DTD/sodipodi-0.dtd"
   xmlns="http://www.w3.org/2000/svg"
   xmlns:svg="http://www.w3.org/2000/svg"><defs
   id="defs1" />
<style
   type="text/css"
   id="style1">
	.st0{fill-rule:evenodd;clip-rule:evenodd;}
</style>
<sodipodi:namedview
   bordercolor="#000000"
   borderopacity="0.25"
   id="namedview1"
   inkscape:current-layer="g884"
   inkscape:cx="181.08136"
   inkscape:cy="252.04724"
   inkscape:deskcolor="#d1d1d1"
   inkscape:document-units="mm"
   inkscape:pagecheckerboard="0"
   inkscape:pageopacity="0.0"
   inkscape:showpageshadow="2"
   inkscape:window-height="1417"
   inkscape:window-maximized="1"
   inkscape:window-width="2560"
   inkscape:window-x="-8"
   inkscape:window-y="-8"
   inkscape:zoom="8.6590912"
   pagecolor="#ffffff">
	<inkscape:page
   bleed="0"
   height="288.10001"
   id="page2"
   margin="0"
   width="680.29999"
   x="0"
   y="0" />
</sodipodi:namedview>
<g
   id="layer1"
   transform="translate(-12.888198,-9.2284767)"
   inkscape:groupmode="layer"
   inkscape:label="РЎР»РѕР№ 1">
	
	
	
	
	
	
	
	
	
	
	
	
	
	
	
	
	
	
	
	
	
	
	
	
	
	
	
	
	
	
	
	
	
	
	
	
	
	
	
<g
   transform="matrix(3.550096,0,0,-3.306373,314.18119,141.69927)"
   id="g824"><path
     id="path826"
     style="fill:#221e1f;fill-opacity:1;fill-rule:evenodd;stroke:none"
     d="m 0,0 -2.406,-1.415 c -13.386,-7.942 -27.688,-20.564 -23.7,-37.921 l 1.202,-3.962 0.566,0.141 -1.202,3.962 c -3.952,17.061 10.328,29.505 23.417,37.355 L 0.283,-0.425 0,0" /></g><g
   transform="matrix(3.550096,0,0,-3.306373,434.48689,30.816709)"
   id="g828"><path
     id="path830"
     style="fill:#221e1f;fill-opacity:1;fill-rule:evenodd;stroke:none"
     d="M 0,0 -0.849,-3.538 C -5.577,-18.429 -18.441,-25.269 -31.412,-32.05 l -2.476,-1.485 0.283,-0.425 2.476,1.345 c 13.057,7.191 26.069,13.666 30.846,28.936 L 0.566,-0.142 0,0" /></g><g
   transform="matrix(3.550096,0,0,-3.306373,220.74626,249.3019)"
   id="g836"><path
     id="path838"
     style="fill:#221e1f;fill-opacity:1;fill-rule:evenodd;stroke:none"
     d="M 0,0 0.496,-0.071 0.92,-0.354 C 1.629,-1.104 1.384,-2.115 0.496,-2.547 L 0,-2.618 -0.495,-2.547 c -0.888,0.432 -1.133,1.443 -0.424,2.193 L -0.495,-0.071 0,0" /></g><g
   transform="matrix(3.550096,0,0,-3.306373,227.77902,253.74891)"
   id="g840"><path
     id="path842"
     style="fill:#221e1f;fill-opacity:1;fill-rule:evenodd;stroke:none"
     d="M 0,0 -0.212,0.849 -0.636,1.415 -1.273,1.84 -1.981,1.981 V 0.708 h 0.284 L -1.485,0.566 -1.344,0.283 -1.273,0 H 0" /></g><g
   transform="matrix(3.550096,0,0,-3.306373,220.74626,260.06412)"
   id="g844"><path
     id="path846"
     style="fill:#221e1f;fill-opacity:1;fill-rule:evenodd;stroke:none"
     d="M 0,0 0.708,0.141 1.345,0.566 1.769,1.132 1.981,1.91 H 0.708 L 0.637,1.698 0.496,1.415 0.284,1.274 H 0 V 0" /></g><g
   transform="matrix(3.550096,0,0,-3.306373,213.71353,253.74891)"
   id="g848"><path
     id="path850"
     style="fill:#221e1f;fill-opacity:1;fill-rule:evenodd;stroke:none"
     d="M 0,0 0.213,-0.778 0.637,-1.344 1.274,-1.769 1.981,-1.91 v 1.274 H 1.698 L 1.486,-0.495 1.345,-0.212 1.274,0 H 0" /></g><g
   transform="matrix(3.550096,0,0,-3.306373,220.74626,247.19899)"
   id="g852"><path
     id="path854"
     style="fill:#221e1f;fill-opacity:1;fill-rule:evenodd;stroke:none"
     d="m 0,0 -0.707,-0.141 -0.637,-0.425 -0.424,-0.566 -0.213,-0.849 h 1.274 l 0.071,0.283 0.141,0.283 0.212,0.142 H 0 V 0" /></g><g
   transform="matrix(3.550096,0,0,-3.306373,383.75246,100.29687)"
   id="g856"><path
     id="path858"
     style="fill:#221e1f;fill-opacity:1;fill-rule:evenodd;stroke:none"
     d="M 0,0 0.495,-0.07 0.92,-0.353 C 1.628,-1.101 1.383,-2.116 0.495,-2.547 L 0,-2.617 l -0.495,0.07 c -0.888,0.431 -1.133,1.446 -0.425,2.194 L -0.495,-0.07 0,0" /></g><g
   transform="matrix(3.550096,0,0,-3.306373,389.52849,104.7406)"
   id="g860"><path
     id="path862"
     style="fill:#221e1f;fill-opacity:1;fill-rule:evenodd;stroke:none"
     d="M 0,0 -0.141,0.707 -0.495,1.203 -1.061,1.556 -1.627,1.627 V 1.061 L -1.202,0.991 -0.919,0.778 -0.707,0.425 -0.566,0 H 0" /></g><g
   transform="matrix(3.550096,0,0,-3.306373,383.75246,109.8853)"
   id="g864"><path
     id="path866"
     style="fill:#221e1f;fill-opacity:1;fill-rule:evenodd;stroke:none"
     d="M 0,0 0.566,0.07 1.132,0.424 1.486,0.919 1.627,1.556 H 1.061 L 0.92,1.202 0.708,0.849 0.425,0.636 0,0.565 V 0" /></g><g
   transform="matrix(3.550096,0,0,-3.306373,377.97647,104.7406)"
   id="g868"><path
     id="path870"
     style="fill:#221e1f;fill-opacity:1;fill-rule:evenodd;stroke:none"
     d="m 0,0 0.142,-0.637 0.353,-0.495 0.566,-0.354 0.566,-0.07 v 0.565 L 1.203,-0.92 0.92,-0.707 0.707,-0.354 0.566,0 H 0" /></g><g
   transform="matrix(3.550096,0,0,-3.306373,383.75246,99.361121)"
   id="g872"><path
     id="path874"
     style="fill:#221e1f;fill-opacity:1;fill-rule:evenodd;stroke:none"
     d="M 0,0 -0.566,-0.071 -1.132,-0.424 -1.485,-0.92 -1.627,-1.627 h 0.566 l 0.141,0.425 0.213,0.353 0.283,0.213 L 0,-0.566 V 0" /></g><g
   transform="matrix(3.550096,0,0,-3.306373,465.13129,54.444076)"
   id="g876"><path
     id="path878"
     style="fill:#221e1f;fill-opacity:1;fill-rule:evenodd;stroke:none"
     d="m 0,0 -0.354,0.495 -22.781,-15.14 0.707,-0.99 L 0.353,-0.495 0,0" /></g><g
   transform="matrix(3.550096,0,0,-3.306373,468.14532,52.572636)"
   id="g880"><path
     id="path882"
     style="fill:#221e1f;fill-opacity:1;fill-rule:evenodd;stroke:none"
     d="m 0,0 3.466,2.335 -7.994,-3.113 0.141,-0.071 h 0.213 c 0.495,-0.246 0.627,-0.232 1.131,-0.637 l 0.071,-0.07 0.071,-0.071 c 0.461,-0.535 0.593,-1.177 0.495,-1.91 L -2.477,-3.679 V -3.821 L 3.466,2.335 0,0" /></g><g
   transform="matrix(3.550096,0,0,-3.306373,198.89544,242.98667)"
   id="g884"><path
     id="path886"
     style="fill:#404041;fill-opacity:1;fill-rule:evenodd;stroke:none;stroke-width:0.774057"
     d="m 0.62126426,-1.5368395 -0.59718559,-0.055421 -0.5971856,-0.2209032 C -2.6356232,-2.6155968 -3.4070519,-6.146146 -0.95383193,-6.9493596 L -0.41037769,-7.004 0.29580579,-6.8939387 C 2.4258701,-6.531751 3.7630132,-2.7951294 1.490177,-1.7031024 l -0.4344564,0.1108419 z m -2.11778286,-4.2525829 -0.054499,0.1108419 v 0.7173502 c 0.165032,1.5190026 1.12682318,3.9520608 2.9866955,2.8163214 L 1.6529061,-2.5859348 1.761904,-3.2486446 c 0.036844,-1.5174415 -1.24963772,-4.274439 -2.9321966,-3.0926456 l -0.2172282,0.2755436 -0.1089979,0.2763242" /></g><g
   transform="matrix(3.550096,0,0,-3.306373,361.64952,104.27109)"
   id="g888" /><g
   transform="matrix(3.550096,0,0,-3.306373,291.07365,186.8478)"
   id="g892"><text
     xml:space="preserve"
     style="font-size:7.78346px;line-height:0.8;font-family:Denistina;-inkscape-font-specification:Denistina;text-align:start;writing-mode:lr-tb;direction:ltr;text-anchor:start;fill:#333333;stroke:#000000;stroke-width:1.96532;stroke-linecap:round;stroke-miterlimit:4.5;stroke-opacity:0.00478468;paint-order:markers stroke fill"
     x="4.0168605"
     y="2.8981423"
     id="text1"
     transform="scale(0.96506346,-1.0362013)"><tspan
       sodipodi:role="line"
       id="tspan1"
       style="font-style:normal;font-variant:normal;font-weight:bold;font-stretch:normal;font-size:7.78346px;line-height:0.8;font-family:Arial;-inkscape-font-specification:'Arial Bold';stroke-width:1.96532"
       x="4.0168605"
       y="2.8981423">S(t)</tspan></text></g></g>
</svg>
