<?xml version="1.0" encoding="UTF-8" standalone="no"?>
<!-- Generator: Adobe Illustrator 26.2.1, SVG Export Plug-In . SVG Version: 6.00 Build 0)  -->

<svg
   version="1.1"
   id="svg1"
   inkscape:export-filename="vect1.svg"
   sodipodi:docname="vect1.svg"
   x="0px"
   y="0px"
   viewBox="0 0 680.3 288.1"
   style="enable-background:new 0 0 680.3 288.1;"
   xml:space="preserve"
   inkscape:version="1.4 (86a8ad7, 2024-10-11)"
   xmlns:inkscape="http://www.inkscape.org/namespaces/inkscape"
   xmlns:sodipodi="http://sodipodi.sourceforge.net/DTD/sodipodi-0.dtd"
   xmlns="http://www.w3.org/2000/svg"
   xmlns:svg="http://www.w3.org/2000/svg"><defs
   id="defs1" />
<style
   type="text/css"
   id="style1">
	.st0{fill-rule:evenodd;clip-rule:evenodd;}
</style>
<sodipodi:namedview
   bordercolor="#000000"
   borderopacity="0.25"
   id="namedview1"
   inkscape:current-layer="layer1"
   inkscape:cx="214.3412"
   inkscape:cy="275.77952"
   inkscape:deskcolor="#d1d1d1"
   inkscape:document-units="mm"
   inkscape:pagecheckerboard="0"
   inkscape:pageopacity="0.0"
   inkscape:showpageshadow="2"
   inkscape:window-height="1417"
   inkscape:window-maximized="1"
   inkscape:window-width="2560"
   inkscape:window-x="-8"
   inkscape:window-y="-8"
   inkscape:zoom="1.0823864"
   pagecolor="#ffffff">
	<inkscape:page
   bleed="0"
   height="288.10001"
   id="page2"
   margin="0"
   width="680.29999"
   x="0"
   y="0" />
</sodipodi:namedview>
<g
   id="layer1"
   transform="translate(-12.888198,-9.2284767)"
   inkscape:groupmode="layer"
   inkscape:label="РЎР»РѕР№ 1">
	
	
	<g
   id="g20"
   transform="matrix(1.5256445,0,0,-1.3619454,74.132789,43.870333)">
		<path
   id="path22"
   class="st0"
   d="M73.6-46.7l3.9,11.8l-2.8-25.2l-0.2,0.4l-0.2,0.4c-1.4,2-0.8,1.3-2.6,3l-0.4,0.2h-0.2    c-1.8,1-3.9,0.7-5.8,0l-0.6-0.2l-0.4-0.2l13.1,21.7L73.6-46.7" />
	</g>
	<g
   id="g24"
   transform="matrix(1.5256445,0,0,-1.3619454,55.742667,90.074339)">
		<path
   id="path26"
   class="st0"
   d="M51.5-108.9L54-111l32.5,94.7l-3.4,1.1l-32.5-94.7l2.4-2.1l-2.4,2.1l-1.1-3.7l3.5,1.7L51.5-108.9    " />
	</g>
	<g
   id="g28"
   transform="matrix(1.5256445,0,0,-1.3619454,158.05235,47.818598)">
		<path
   id="path30"
   class="st0"
   d="M174.6-52l-0.7,1.5l-189.3-89.4l1.5-3l189.3,89.4L174.6-52" />
	</g>
	<g
   id="g32"
   transform="matrix(1.5256445,0,0,-1.3619454,159.45903,47.27928)">
		<path
   id="path34"
   class="st0"
   d="M176.3-51.3l10.6,5l-23.3-5.4l0.7-0.4l0.4-0.2l0.7-0.4l0.2-0.2l0.4-0.2l0.4-0.2l0.2-0.2l0.2-0.4    l0.4-0.2l0.2-0.2l0.2-0.4l0.2-0.2l0.2-0.4v-0.2l0.2-0.4l0.2-0.2v-0.4l0.2-0.4v-2.4l-0.2-0.4v-0.4L168-60v-0.4l-0.2-0.6l19,14.8    L176.3-51.3" />
	</g>
	
	<g
   id="g44"
   transform="matrix(1.5256445,0,0,-1.3619454,164.5852,43.422237)">
		<path
   id="path46"
   class="st0"
   d="M182.4-46.1l1.3-0.2l1.1-0.7c1.9-2,1.2-4.6-1.1-5.8l-1.3-0.2l-1.3,0.2c-2.3,1.2-3,3.8-1.1,5.8    l1.1,0.7L182.4-46.1" />
	</g>
	<g
   id="g48"
   transform="matrix(1.5256445,0,0,-1.3619454,166.89655,45.127395)">
		<path
   id="path50"
   class="st0"
   d="M185.2-48.4l-0.4,1.9l-0.9,1.3l-1.5,0.9l-1.5,0.2v-1.5l1.1-0.2l0.7-0.6l0.6-0.9l0.4-1.1H185.2" />
	</g>
	<g
   id="g52"
   transform="matrix(1.5256445,0,0,-1.3619454,164.5852,47.100869)">
		<path
   id="path54"
   class="st0"
   d="M182.4-51l1.5,0.2l1.5,0.9l0.9,1.3l0.4,1.7h-1.5l-0.4-0.9l-0.6-0.9l-0.7-0.6l-1.1-0.2V-51" />
	</g>
	<g
   id="g56"
   transform="matrix(1.5256445,0,0,-1.3619454,162.27385,45.127395)">
		<path
   id="path58"
   class="st0"
   d="M179.6-48.4L180-50l0.9-1.3l1.5-0.9l1.5-0.2v1.5l-1.1,0.2l-0.7,0.6l-0.6,0.9l-0.4,0.9H179.6" />
	</g>
	<g
   id="g60"
   transform="matrix(1.5256445,0,0,-1.3619454,164.5852,43.062684)">
		<path
   id="path62"
   class="st0"
   d="M182.4-45.6l-1.5-0.2l-1.5-0.9l-0.9-1.3l-0.4-1.9h1.5l0.4,1.1l0.6,0.9l0.7,0.6l1.1,0.2V-45.6" />
	</g>
	<g
   id="g64"
   transform="matrix(1.5256445,0,0,-1.3619454,76.244279,36.334689)">
		<path
   id="path66"
   class="st0"
   d="M76.2-36.5l1.3-0.2l1.1-0.7c1.9-2,1.2-4.7-1.1-5.8l-1.3-0.2l-1.3,0.2c-2.3,1.1-3,3.8-1.1,5.8    l1.1,0.7L76.2-36.5" />
	</g>
	<g
   id="g68"
   transform="matrix(1.5256445,0,0,-1.3619454,79.060619,38.038471)">
		<path
   id="path70"
   class="st0"
   d="M79.6-38.8L79-36.6l-1.1,1.5L76.2-34l-1.9,0.4v-3.4h0.7l0.6-0.4l0.4-0.7l0.2-0.7H79.6" />
	</g>
	<g
   id="g72"
   transform="matrix(1.5256445,0,0,-1.3619454,76.244279,40.461382)">
		<path
   id="path74"
   class="st0"
   d="M76.2-42.1l1.9,0.4l1.7,1.1l1.1,1.5l0.6,2.1h-3.4l-0.2-0.6l-0.4-0.7l-0.6-0.4h-0.7V-42.1" />
	</g>
	<g
   id="g76"
   transform="matrix(1.5256445,0,0,-1.3619454,73.432529,38.038471)">
		<path
   id="path78"
   class="st0"
   d="M72.8-38.8l0.6-2.1l1.1-1.5l1.7-1.1l1.9-0.4v3.4h-0.7l-0.6,0.4l-0.4,0.7l-0.2,0.6H72.8" />
	</g>
	<g
   id="g80"
   transform="matrix(1.5256445,0,0,-1.3619454,76.244279,35.527057)">
		<path
   id="path82"
   class="st0"
   d="M76.2-35.4l-1.9-0.4l-1.7-1.1l-1.1-1.5L71-40.7h3.4l0.2,0.7l0.4,0.7l0.6,0.4h0.7V-35.4" />
	</g>
	<g
   id="g84"
   transform="matrix(1.5256445,0,0,-1.3619454,128.60593,31.848429)">
		<path
   id="path86"
   class="st0"
   d="M139.2-30.5l-4.7,0.4C84.7-26.4,25.4-44.6-20.3-62.8l-4.9-1.9l0.4-1.5l4.9,1.9    c45.3,18,105.2,36.5,154.4,32.7l4.7-0.4V-30.5" />
	</g>
	<g
   id="g88"
   transform="matrix(1.5256445,0,0,-1.3619454,176.44403,60.648125)">
		<path
   id="path90"
   class="st0"
   d="M196.7-69.3l-2.6,6.7c-14.9,31.9-44.8,46.9-78.2,52.1l-8,1.1v-1.5l7.7-1.1    c32.6-5,63.1-19.8,77.1-51.3l2.6-6.3L196.7-69.3" />
	</g>
	
	
	<g
   id="g100"
   transform="matrix(1.5256445,0,0,-1.3619454,55.338371,89.807375)">
		<path
   id="path102"
   class="st0"
   d="M51-108.5l1.3-0.2l1.1-0.7c1.9-2,1.2-4.7-1.1-5.8l-1.3-0.2l-1.3,0.2c-2.3,1.1-3,3.8-1.1,5.8    l1.1,0.7L51-108.5" />
	</g>
	<g
   id="g104"
   transform="matrix(1.5256445,0,0,-1.3619454,58.153186,91.511151)">
		<path
   id="path106"
   class="st0"
   d="M54.4-110.8l-0.6,2.2l-1.1,1.5l-1.7,1.1l-1.9,0.4v-3.4H50l0.6-0.4l0.4-0.7l0.2-0.7H54.4" />
	</g>
	<g
   id="g108"
   transform="matrix(1.5256445,0,0,-1.3619454,55.338371,93.934086)">
		<path
   id="path110"
   class="st0"
   d="M51-114.1l1.9,0.4l1.7,1.1l1.1,1.5l0.6,2.1h-3.4l-0.2-0.6l-0.4-0.7l-0.6-0.4H51V-114.1" />
	</g>
	<g
   id="g112"
   transform="matrix(1.5256445,0,0,-1.3619454,52.525092,91.51118)">
		<path
   id="path114"
   class="st0"
   d="M47.7-110.8l0.6-2.1l1.1-1.5l1.7-1.1l1.9-0.4v3.4h-0.7l-0.6,0.4l-0.4,0.7l-0.2,0.6H47.7" />
	</g>
	<g
   id="g116"
   transform="matrix(1.5256445,0,0,-1.3619454,55.338371,88.998391)">
		<path
   id="path118"
   class="st0"
   d="M51-107.5l-1.9-0.4l-1.7-1.1l-1.1-1.5l-0.6-2.2h3.4l0.2,0.7l0.4,0.7l0.6,0.4H51V-107.5" />
	</g>
	<g
   id="g120"
   transform="matrix(1.5256445,0,0,-1.3619454,74.436379,32.297858)">
		<path
   id="path122"
   class="st0"
   d="M74-31.1l-0.2-0.6c0.1-1.1-0.7-1.6-1.7-1.9h-1.3l-0.4-1.1h8.6l0.2,1.1h-1.7    c-1.3,0.2-1.3,0.9-0.9,2.1l3.5,14.8h-1.1l-1.1-1.1l-1.1-0.7l-1.1-0.4L74-19.1l-0.2-0.9h2.2l0.4-0.2l0.2-0.2V-21l-0.2-0.4v-0.2    L74-31.1" />
	</g>
	<g
   id="g124"
   transform="matrix(1.5256445,0,0,-1.3619454,171.31786,38.846106)">
		<path
   id="path126"
   class="st0"
   d="M190.5-39.9h-1.1l-0.6-1.5l-0.7-0.7l-0.9-0.4l-0.9-0.2H181l-0.2,0.2l0.7,0.6l0.7,0.7    c4.3,3.4,17.1,10.8,4.5,13.8l-1.3-0.2l-1.3-0.4l-0.9-0.6l-0.7-0.6l-0.6-0.7l-0.4-0.9l-0.4-0.7v-0.7l0.2-1.1l0.7-0.6l0.7-0.4    c1.8-0.3,3.3,1.3,2.2,3l-0.6,0.4l-0.6,0.2h-0.2v-0.2h-0.7l-0.2,0.2v0.2l0.4,0.7l0.7,0.6l1.1,0.4l1.3,0.2l0.7-0.2l0.7-0.4l0.6-0.9    l0.2-1.5l-0.2-0.9l-0.2-0.9l-0.6-0.9l-0.6-0.7l-0.7-0.7l-0.9-0.7l-0.9-0.9l-0.9-0.7l-1.1-0.9l-2.2-1.9l-1.3-1.5l-0.7-2.6h11    L190.5-39.9" />
	</g>
	<g
   id="g128"
   transform="matrix(1.5256445,0,0,-1.3619454,60.263149,61.724045)">
		<path
   id="path130"
   class="st0"
   d="M57-70.7h1.5l0.2-0.2v-6l-0.4-0.4H57v-0.6h5.4v0.6h-1.3l-0.4,0.4v8h-0.6l-0.6-0.6l-0.7-0.4    L58.1-70L57-70.2V-70.7" />
	</g>
	<g
   id="g132"
   transform="matrix(1.5256445,0,0,-1.3619454,54.937124,58.045444)">
		<path
   id="path134"
   class="st0"
   d="M50.6-65.8h0.4l0.4-0.2l0.2-0.4v-8.4l-0.2-0.4l-0.4-0.2h-1.3v-1.1h7.1v1.1h-1.3L55-75.1    l-0.2,0.4v5.8l0.2,1.3l0.7,1.1l1.1,0.6h0.4v-0.2h-0.2v-0.2l-0.2-0.2c-0.3-1.7,1.1-2.6,2.6-2.1l0.6,0.4l0.2,0.6    c0.9,3.2-1.9,4.5-4.5,2.8L55-65.6l-0.6-0.7h-0.2v2.2l-0.7-0.2l-2.2-0.4h-1.7v-1.1H50.6" />
	</g>
	<g
   id="g136"
   transform="matrix(1.5256445,0,0,-1.3619454,114.63712,79.848843)">
		<path
   id="path138"
   class="st0"
   d="M122.4-95.1h6.3v3.2H128v-0.7c-0.8-1-0.5-0.3-0.9-0.7h-3.2v0.2l0.7,0.7c6.2,2.6,4.9,7.1-0.6,6.2    l-0.7-0.7c-2.9-3.8,3.2-3.3,0.7-0.7h-0.4v0.6l0.4,0.2l0.4,0.4c1.6,0,2-0.3,2.2-1.9l-0.2-0.7c-0.3-2.2-2.8-2.2-4.1-5V-95.1" />
	</g>
	<g
   id="g140"
   transform="matrix(1.5256445,0,0,-1.3619454,109.81303,72.401714)">
		<path
   id="path142"
   class="st0"
   d="M116.6-85.1h0.4l0.4-0.2l0.2-0.4v-8.4l-0.2-0.4l-0.4-0.2h-1.3v-1.1h7.1v1.1h-1.3l-0.4,0.2    l-0.2,0.4v5.8L121-87l0.7,1.1l1.1,0.6h0.4v-0.2h-0.2v-0.2l-0.2-0.2c-0.3-2.1,1.9-2.8,3.2-1.7l0.2,0.6l0.2,0.9    c0,3.5-3.9,3.1-5.4,1.1l-0.6-0.7h-0.2v2.2l-0.7-0.2l-2.2-0.4h-1.7v-1.1H116.6" />
	</g>
	
	
	
	
	
	
	<g
   id="g168"
   transform="matrix(1.5256445,0,0,-1.3619454,52.625774,95.549343)">
		<path
   id="path170"
   class="st0"
   d="M47.8-116.3l-2.1-0.2l-2.1-0.7c-7.1-2.6-9.7-14.7-1.3-17.4l1.9-0.2l2.4,0.4    c7.4,1.3,11.9,13.8,4.1,17.6l-1.5,0.4L47.8-116.3z M40.5-130.7l-0.2,0.4v2.4c0.6,5.1,3.9,13.4,10.3,9.5l0.7-1.5l0.4-2.2    c0.1-5.1-4.3-14.4-10.1-10.5l-0.7,0.9L40.5-130.7" />
	</g>
</g>
</svg>
