<?xml version="1.0" encoding="UTF-8" standalone="no"?>
<!DOCTYPE svg PUBLIC "-//W3C//DTD SVG 1.1//EN" "http://www.w3.org/Graphics/SVG/1.1/DTD/svg11.dtd">
<svg width="1600.00" height="1200.00" viewBox="0.00 0.00 1600.00 1200.00" xmlns="http://www.w3.org/2000/svg" xmlns:xlink="http://www.w3.org/1999/xlink">
<g stroke-linecap="round" id="Layer_2">
<path d="M185.45,974.55 Q905.45,867.27 1490.91,958.18" fill="none" stroke="rgb(30, 26, 26)" stroke-width="10.00" stroke-opacity="1.00" stroke-linejoin="round"/>
<path d="M195.48,1020.53 C194.54,1020.41 193.89,1020.33 193.52,1020.29 C192.95,1020.23 190.36,1020.01 189.42,1019.93 C191.58,1017.65 197.81,1014.22 200.31,1013.01 C207.05,1009.77 242.69,995.46 256.87,990.34 C276.88,983.47 340.99,964.89 344.02,963.76 C344.71,963.50 347.45,962.37 348.28,962.04" fill="none" stroke="rgb(30, 26, 26)" stroke-width="6.00" stroke-opacity="1.00" stroke-linejoin="round"/>
<path d="M329.29,1008.88 C328.26,1009.40 326.51,1010.38 325.49,1011.04 C325.17,1011.25 324.71,1011.58 324.10,1012.02 C334.96,1007.11 361.86,995.04 377.90,987.88 C392.56,981.41 421.76,968.63 436.30,962.33 C450.53,956.38 478.95,945.51 490.54,941.32 C495.23,939.72 503.03,937.12 506.13,936.12 C506.76,935.91 507.40,935.71 508.03,935.50" fill="none" stroke="rgb(30, 26, 26)" stroke-width="6.00" stroke-opacity="1.00" stroke-linejoin="round"/>
<path d="M464.99,1010.88 C464.66,1010.87 463.53,1011.03 462.66,1011.15 C462.23,1011.20 461.31,1011.29 459.90,1011.41 C462.65,1008.50 471.22,1003.25 480.56,997.88 C491.82,991.57 524.31,975.34 534.13,970.87 C547.90,965.02 575.85,953.95 589.56,948.90 C596.42,946.48 611.41,941.62 619.16,939.19 C623.30,937.97 630.85,935.76 634.25,934.76 C635.55,934.38 637.86,933.71 638.88,933.41" fill="none" stroke="rgb(30, 26, 26)" stroke-width="6.00" stroke-opacity="1.00" stroke-linejoin="round"/>
<path d="M606.96,1009.83 C606.96,1009.83 606.61,1010.27 606.61,1010.27 C606.96,1010.01 607.42,1009.61 611.02,1006.24 C615.83,1001.77 630.35,990.33 634.69,987.19 C643.14,981.24 651.62,975.77 660.47,970.59 C677.33,961.13 698.27,950.62 717.94,942.38 C731.71,936.84 756.00,927.71 775.18,921.56 C778.65,920.50 786.97,918.01 789.96,917.21 C792.08,916.65 797.07,915.52 797.93,915.32" fill="none" stroke="rgb(30, 26, 26)" stroke-width="6.00" stroke-opacity="1.00" stroke-linejoin="round"/>
<path d="M925.42,918.75 C925.42,918.75 925.31,917.65 925.31,917.65 C924.17,917.30 923.35,917.25 921.81,917.57 C917.10,918.54 901.99,923.30 894.60,925.68 C880.93,930.51 852.72,942.83 839.42,949.19 C826.43,955.84 797.46,971.79 787.40,977.91 C781.19,981.87 768.54,990.10 762.10,994.38 C746.86,1005.05 732.13,1018.00 727.53,1022.28 C722.13,1027.40 716.84,1034.08 716.23,1034.84" fill="none" stroke="rgb(30, 26, 26)" stroke-width="6.00" stroke-opacity="1.00" stroke-linejoin="round"/>
<path d="M1024.83,920.10 C1024.83,920.10 1024.82,919.19 1024.82,919.19 C1021.88,919.04 1020.08,919.15 1017.98,919.80 C1011.42,921.82 1000.07,926.19 991.80,930.12 C983.38,934.25 971.17,940.86 964.51,944.92 C958.00,949.04 943.96,958.64 939.20,962.21 C934.28,966.01 920.07,978.10 916.78,981.30 C914.58,983.45 909.97,988.38 908.39,990.07" fill="none" stroke="rgb(30, 26, 26)" stroke-width="6.00" stroke-opacity="1.00" stroke-linejoin="round"/>
<path d="M1116.60,923.33 C1112.75,923.89 1107.41,926.28 1105.09,927.45 C1101.13,929.47 1084.19,938.99 1078.78,942.31 C1071.40,947.04 1058.62,955.94 1051.92,960.88 C1045.47,965.79 1033.21,975.64 1026.97,981.01 C1021.32,986.16 1009.46,997.59 1005.15,1002.45 C1002.80,1005.17 999.73,1008.72 999.01,1009.56" fill="none" stroke="rgb(30, 26, 26)" stroke-width="6.00" stroke-opacity="1.00" stroke-linejoin="round"/>
<path d="M1210.60,930.27 C1207.49,930.84 1204.07,931.93 1200.98,933.21 C1195.32,935.57 1179.68,944.29 1176.11,946.54 C1169.65,950.66 1161.75,956.33 1153.67,962.64 C1144.03,970.36 1131.05,985.52 1129.23,987.67" fill="none" stroke="rgb(30, 26, 26)" stroke-width="6.00" stroke-opacity="1.00" stroke-linejoin="round"/>
<path d="M1329.46,944.74 C1329.46,944.74 1329.46,944.33 1329.46,944.33 C1328.21,944.00 1327.28,943.92 1326.22,944.19 C1321.67,945.37 1308.13,951.96 1300.77,956.72 C1294.86,960.70 1283.18,968.70 1277.41,972.71 C1272.14,976.52 1261.55,985.05 1256.67,989.02" fill="none" stroke="rgb(30, 26, 26)" stroke-width="6.00" stroke-opacity="1.00" stroke-linejoin="round"/>
<path d="M1401.78,950.67 C1401.78,950.67 1403.41,949.08 1403.41,949.08 C1403.61,948.21 1398.59,949.82 1394.67,951.74 C1390.53,953.87 1376.24,962.75 1369.23,967.35 C1361.48,972.71 1348.70,982.09 1342.02,987.07 C1335.64,992.01 1322.47,1002.69 1317.99,1007.41 C1316.22,1009.31 1313.90,1011.82 1313.33,1012.43" fill="none" stroke="rgb(30, 26, 26)" stroke-width="6.00" stroke-opacity="1.00" stroke-linejoin="round"/>
<path d="M766.06,917.47 C767.19,917.38 767.57,917.42 767.56,917.38 C767.56,917.34 767.68,917.16 767.92,916.83 C768.17,916.45 771.10,912.29 771.30,911.74 C771.44,911.39 771.44,910.88 771.31,910.23" fill="none" stroke="rgb(30, 12, 237)" stroke-width="4.00" stroke-opacity="1.00" stroke-linejoin="round"/>
</g>
</svg>
